<?xml version="1.0" encoding="utf-8"?>
<!-- Generator: Adobe Illustrator 18.0.0, SVG Export Plug-In . SVG Version: 6.00 Build 0)  -->
<!DOCTYPE svg PUBLIC "-//W3C//DTD SVG 1.1//EN" "http://www.w3.org/Graphics/SVG/1.1/DTD/svg11.dtd">
<svg version="1.1" id="Layer_1" xmlns="http://www.w3.org/2000/svg" xmlns:xlink="http://www.w3.org/1999/xlink" x="0px" y="0px"
	 viewBox="0 0 380.3 82.8" enable-background="new 0 0 380.3 82.8" xml:space="preserve">
<g>
	<path d="M158.9,417.3c0.3,0.2,0.9,0.4,1.4,0.4c0.8,0,1.1-0.4,1.1-0.9c0-0.5-0.3-0.8-1.1-1.1c-1-0.4-1.5-0.9-1.5-1.6
		c0-0.9,0.8-1.7,2-1.7c0.6,0,1.1,0.2,1.4,0.4l-0.3,0.8c-0.2-0.1-0.6-0.3-1.2-0.3c-0.6,0-1,0.4-1,0.8c0,0.5,0.3,0.7,1.1,1
		c1,0.4,1.5,0.9,1.5,1.8c0,1-0.8,1.7-2.2,1.7c-0.6,0-1.2-0.2-1.6-0.4L158.9,417.3z"/>
	<path d="M164.4,415.6c0,1.4,0.9,2,2,2c0.8,0,1.2-0.1,1.6-0.3l0.2,0.8c-0.4,0.2-1,0.4-1.9,0.4c-1.8,0-2.9-1.2-2.9-2.9s1-3.1,2.7-3.1
		c1.9,0,2.4,1.7,2.4,2.7c0,0.2,0,0.4,0,0.5H164.4z M167.5,414.9c0-0.7-0.3-1.7-1.5-1.7c-1.1,0-1.5,1-1.6,1.7H167.5z"/>
	<path d="M170.4,415.6c0,1.4,0.9,2,2,2c0.8,0,1.2-0.1,1.6-0.3l0.2,0.8c-0.4,0.2-1,0.4-1.9,0.4c-1.8,0-2.9-1.2-2.9-2.9s1-3.1,2.7-3.1
		c1.9,0,2.4,1.7,2.4,2.7c0,0.2,0,0.4,0,0.5H170.4z M173.5,414.9c0-0.7-0.3-1.7-1.5-1.7c-1.1,0-1.5,1-1.6,1.7H173.5z"/>
	<path d="M176.8,415.2L176.8,415.2c0.2-0.2,0.4-0.5,0.5-0.7l1.7-2h1.3l-2.2,2.4l2.6,3.4h-1.3l-2-2.8l-0.5,0.6v2.2h-1v-8.5h1V415.2z"
		/>
	<path d="M181.6,409.8h1.1v8.5h-1.1V409.8z"/>
	<path d="M189.7,415.4c0,2.1-1.5,3.1-2.9,3.1c-1.6,0-2.8-1.2-2.8-3c0-1.9,1.3-3.1,2.9-3.1C188.6,412.4,189.7,413.6,189.7,415.4z
		 M185.1,415.4c0,1.3,0.7,2.2,1.8,2.2c1,0,1.8-0.9,1.8-2.3c0-1-0.5-2.2-1.7-2.2C185.7,413.2,185.1,414.3,185.1,415.4z"/>
	<path d="M196.1,412.5c0,0.4,0,0.9,0,1.6v3.4c0,1.3-0.3,2.1-0.8,2.7c-0.6,0.5-1.4,0.7-2.1,0.7c-0.7,0-1.5-0.2-1.9-0.5l0.3-0.8
		c0.4,0.2,1,0.5,1.7,0.5c1.1,0,1.9-0.6,1.9-2v-0.6h0c-0.3,0.5-0.9,1-1.8,1c-1.4,0-2.5-1.2-2.5-2.8c0-2,1.3-3.1,2.6-3.1
		c1,0,1.6,0.5,1.8,1h0l0-0.9H196.1z M195,414.8c0-0.2,0-0.3-0.1-0.5c-0.2-0.6-0.7-1.1-1.5-1.1c-1,0-1.7,0.9-1.7,2.2
		c0,1.1,0.6,2.1,1.7,2.1c0.6,0,1.2-0.4,1.5-1.1c0.1-0.2,0.1-0.4,0.1-0.6V414.8z"/>
	<path d="M203,415.4c0,2.1-1.5,3.1-2.9,3.1c-1.6,0-2.8-1.2-2.8-3c0-1.9,1.3-3.1,2.9-3.1C201.9,412.4,203,413.6,203,415.4z
		 M198.4,415.4c0,1.3,0.7,2.2,1.8,2.2c1,0,1.8-0.9,1.8-2.3c0-1-0.5-2.2-1.7-2.2C198.9,413.2,198.4,414.3,198.4,415.4z"/>
	<path d="M203.8,417.7c0-0.4,0.3-0.8,0.7-0.8c0.4,0,0.7,0.3,0.7,0.8c0,0.4-0.3,0.8-0.7,0.8C204.1,418.5,203.8,418.1,203.8,417.7z"/>
	<path d="M206.5,414.1c0-0.6,0-1.1,0-1.6h0.9l0.1,1h0c0.3-0.6,1-1.1,1.9-1.1c0.8,0,2.1,0.5,2.1,2.5v3.5h-1.1V415
		c0-0.9-0.3-1.7-1.3-1.7c-0.7,0-1.2,0.5-1.4,1.1c0,0.1-0.1,0.3-0.1,0.5v3.5h-1.1V414.1z"/>
	<path d="M213.8,415.6c0,1.4,0.9,2,2,2c0.8,0,1.2-0.1,1.6-0.3l0.2,0.8c-0.4,0.2-1,0.4-1.9,0.4c-1.8,0-2.9-1.2-2.9-2.9s1-3.1,2.7-3.1
		c1.9,0,2.4,1.7,2.4,2.7c0,0.2,0,0.4,0,0.5H213.8z M216.9,414.9c0-0.7-0.3-1.7-1.5-1.7c-1.1,0-1.5,1-1.6,1.7H216.9z"/>
	<path d="M220.5,410.9v1.7h1.5v0.8h-1.5v3.1c0,0.7,0.2,1.1,0.8,1.1c0.3,0,0.5,0,0.6-0.1l0,0.8c-0.2,0.1-0.5,0.1-0.9,0.1
		c-0.5,0-0.9-0.2-1.1-0.4c-0.3-0.3-0.4-0.8-0.4-1.5v-3.2h-0.9v-0.8h0.9v-1.4L220.5,410.9z"/>
</g>
<g transform="translate(-179.26877,-381.87377)">
	<g transform="matrix(2.3177689,0,0,2.3177689,-52.089615,-823.26339)">
		<path fill="#78C25A" d="M100.7,541.7c0-1.9,0.3-3.5,0.9-5.2c0.6-1.6,1.5-3,2.6-4.2c1.1-1.1,2.4-2.1,4-2.8c1.5-0.6,3.3-1,5-1
			c1.4,0,2.6,0.3,3.8,0.6s2.3,1.1,3.3,2v-2.1h6.3v25.2h-6.3v-2.1c-1,0.9-2.1,1.6-3.3,2c-1.1,0.4-2.4,0.6-3.8,0.6c-1.9,0-3.5-0.4-5-1
			s-2.9-1.6-4-2.8c-1.1-1.1-2-2.5-2.6-4.2C100.9,545.3,100.7,543.6,100.7,541.7z M114,548.9c0.5,0,1,0,1.5-0.1
			c0.5-0.1,1.1-0.3,1.6-0.5c0.5-0.3,1.1-0.6,1.6-1c0.5-0.4,1-1,1.5-1.5V538c-0.5-0.6-1-1.1-1.5-1.5c-0.5-0.4-1-0.8-1.6-1
			c-0.5-0.3-1.1-0.5-1.6-0.5c-0.5-0.1-1-0.1-1.5-0.1c-1,0-1.9,0.1-2.8,0.5s-1.6,0.9-2.1,1.5c-0.6,0.6-1.1,1.4-1.5,2.3
			c-0.4,0.9-0.5,1.9-0.5,2.9c0,1,0.1,2,0.5,2.9s0.9,1.6,1.5,2.3c0.6,0.6,1.4,1.1,2.1,1.5c0.9,0.4,1.8,0.5,2.8,0.5V548.9z
			 M142.2,534.8c-3,0-5.5,2.1-5.5,5.2v14.3h-6.3v-14.1c0-5.9,5.2-11.5,11.7-11.6h0.1c6.5,0.1,11.7,5.7,11.7,11.6v14.1h-6.3V540
			c0-3-2.5-5.2-5.5-5.2 M156.9,541.7c0-1.9,0.3-3.5,0.9-5.2c0.6-1.6,1.5-3,2.6-4.2c1.1-1.1,2.4-2.1,4-2.8c1.5-0.6,3.3-1,5-1
			c1.4,0,2.6,0.3,3.8,0.6c1.1,0.4,2.3,1.1,3.3,2v-9.7h6.3v32.7h-6.3v-2.1c-1,0.9-2.1,1.6-3.3,2c-1.1,0.4-2.4,0.6-3.8,0.6
			c-1.9,0-3.5-0.4-5-1c-1.5-0.6-2.9-1.6-4-2.8c-1.1-1.1-2-2.5-2.6-4.2C157.2,545.3,156.9,543.6,156.9,541.7z M170.3,548.9
			c0.5,0,1,0,1.5-0.1c0.5-0.1,1.1-0.3,1.6-0.5c0.5-0.3,1.1-0.6,1.6-1c0.5-0.4,1-1,1.5-1.5V538c-0.5-0.6-1-1.1-1.5-1.5
			c-0.5-0.4-1-0.8-1.6-1c-0.5-0.3-1.1-0.5-1.6-0.5c-0.5-0.1-1-0.1-1.5-0.1c-1,0-1.9,0.1-2.8,0.5s-1.6,0.9-2.1,1.5
			c-0.6,0.6-1.1,1.4-1.5,2.3c-0.4,0.9-0.5,1.9-0.5,2.9c0,1,0.1,2,0.5,2.9s0.9,1.6,1.5,2.3c0.6,0.6,1.4,1.1,2.1,1.5
			c0.9,0.4,1.8,0.5,2.8,0.5V548.9z M212.1,548.9c0.9,0,1.8-0.1,2.6-0.5c0.9-0.4,1.5-0.9,2.1-1.5c0.6-0.6,1.1-1.4,1.5-2.3
			s0.5-1.9,0.5-2.9c0-1-0.1-2-0.5-2.9c-0.4-0.9-0.9-1.6-1.5-2.3c-0.6-0.6-1.4-1.1-2.1-1.5c-0.9-0.4-1.6-0.5-2.6-0.5
			c-0.9,0-1.8,0.1-2.6,0.5c-0.9,0.4-1.5,0.9-2.1,1.5s-1.1,1.4-1.5,2.3s-0.5,1.9-0.5,2.9c0,1,0.1,2,0.5,2.9c0.4,0.9,0.9,1.6,1.5,2.3
			s1.4,1.1,2.1,1.5C210.3,548.8,211.2,548.9,212.1,548.9z M212.1,554.8c-1.8,0-3.5-0.4-5.2-1c-1.6-0.6-3-1.5-4.2-2.8
			c-1.3-1.1-2.1-2.5-2.9-4.2s-1-3.3-1-5.2c0-1.8,0.4-3.5,1-5.2c0.8-1.6,1.6-3,2.9-4.2c1.3-1.1,2.6-2.1,4.2-2.8c1.6-0.6,3.3-1,5.2-1
			c1.8,0,3.5,0.4,5.2,1c1.6,0.6,3,1.6,4.2,2.8c1.3,1.1,2.1,2.5,2.9,4.2c0.8,1.6,1,3.3,1,5.2c0,1.9-0.4,3.6-1,5.2
			c-0.8,1.6-1.6,3-2.9,4.2c-1.3,1.1-2.6,2.1-4.2,2.8C215.6,554.4,214,554.8,212.1,554.8z M231.2,527.1c-0.5,0-1-0.1-1.4-0.3
			c-0.5-0.3-0.9-0.5-1.1-0.8c-0.4-0.4-0.6-0.8-0.8-1.1c-0.3-0.5-0.3-0.9-0.3-1.4c0-0.5,0.1-1,0.3-1.4c0.3-0.5,0.5-0.9,0.8-1.3
			c0.4-0.4,0.8-0.6,1.1-0.8c0.5-0.3,0.9-0.3,1.4-0.3c0.5,0,1,0.1,1.4,0.3c0.5,0.3,0.9,0.5,1.3,0.8c0.4,0.4,0.6,0.8,0.8,1.3
			c0.3,0.5,0.3,0.9,0.3,1.4c0,0.5-0.1,1-0.3,1.4c-0.3,0.5-0.5,0.9-0.8,1.1c-0.4,0.4-0.8,0.6-1.3,0.8
			C232.1,527.1,231.7,527.1,231.2,527.1z M228.1,529.1h6.3v25.2h-6.3V529.1z M237.2,541.7c0-1.9,0.3-3.5,0.9-5.2
			c0.6-1.6,1.5-3,2.6-4.2c1.1-1.1,2.4-2.1,4-2.8c1.5-0.6,3.3-1,5-1c1.4,0,2.6,0.3,3.8,0.6c1.1,0.4,2.3,1.1,3.3,2v-9.7h6.3v32.7h-6.3
			v-2.1c-1,0.9-2.1,1.6-3.3,2c-1.1,0.4-2.4,0.6-3.8,0.6c-1.9,0-3.5-0.4-5-1c-1.5-0.6-2.9-1.6-4-2.8c-1.1-1.1-2-2.5-2.6-4.2
			C237.5,545.3,237.2,543.6,237.2,541.7z M250.6,548.9c0.5,0,1,0,1.5-0.1c0.5-0.1,1.1-0.3,1.6-0.5c0.5-0.3,1.1-0.6,1.6-1
			c0.5-0.4,1-1,1.5-1.5V538c-0.5-0.6-1-1.1-1.5-1.5c-0.5-0.4-1-0.8-1.6-1c-0.5-0.3-1.1-0.5-1.6-0.5c-0.5-0.1-1-0.1-1.5-0.1
			c-1,0-1.9,0.1-2.8,0.5s-1.6,0.9-2.1,1.5c-0.6,0.6-1.1,1.4-1.5,2.3s-0.5,1.9-0.5,2.9c0,1,0.1,2,0.5,2.9c0.4,0.9,0.9,1.6,1.5,2.3
			c0.6,0.6,1.4,1.1,2.1,1.5c0.9,0.4,1.8,0.5,2.8,0.5V548.9z M198.2,534.8c-4.2,0-6,2.1-6,5.2v14.3h-6.3v-14.1
			c0-5.9,3.4-11.7,12.3-11.7"/>
	</g>
</g>
</svg>
