<?xml version="1.0" encoding="utf-8"?>
<!-- Generator: Adobe Illustrator 18.0.0, SVG Export Plug-In . SVG Version: 6.00 Build 0)  -->
<!DOCTYPE svg PUBLIC "-//W3C//DTD SVG 1.1//EN" "http://www.w3.org/Graphics/SVG/1.1/DTD/svg11.dtd">
<svg version="1.1" id="Layer_1" xmlns="http://www.w3.org/2000/svg" xmlns:xlink="http://www.w3.org/1999/xlink" x="0px" y="0px"
	 viewBox="0 0 643.8 118.5" enable-background="new 0 0 643.8 118.5" xml:space="preserve">
<g>
	<g>
		<path fill="#00B9F2" d="M138.5,77.7h-18.4V40h17.4c7.6,0,11.4,3.9,11.4,10.2c0,3.2-1.4,5.7-3.7,7.4c3.2,1.7,5.2,4.7,5.2,9
			C150.3,73.3,145.7,77.7,138.5,77.7z M127.3,46.5v8.3h10.2c2.4,0,4.4-1.7,4.4-4.2c0-2.5-1.7-4.1-4.4-4.1H127.3z M137.3,61.4h-10.1
			v9.7h10.2c2.8,0,5.5-1.1,5.5-4.8C143,63.2,141,61.4,137.3,61.4z"/>
		<path fill="#00B9F2" d="M178.4,77.7h-6.8v-2.6c-1.7,2-4.2,3.2-7.1,3.2c-6.6,0-11-4.9-11-12.3V49.7h7.2V66c0,1.6,0.5,5.5,5.2,5.5
			c3.2,0,5.4-2.4,5.4-5.5V49.7h7.2V77.7z"/>
		<path fill="#00B9F2" d="M189.5,66.5c0.9,3.4,3.6,5.5,7,5.5c2.4,0,4.7-1,5.9-3.3h7.7c-1.6,5.7-6.6,9.6-13.5,9.6
			c-7.9,0-14.3-6.5-14.3-14.6S188.7,49,196.5,49c8.3,0,15.1,6.4,14.1,17.5H189.5z M203.5,60.6c-0.9-3.3-3.6-5.3-7-5.3
			c-3.3,0-5.9,2.1-6.9,5.3H203.5z"/>
		<path fill="#00B9F2" d="M239.5,77.7h-7.2V61.3c0-1.6-0.5-5.5-5.2-5.5c-3.2,0-5.4,2.4-5.4,5.5v16.4h-7.2v-28h6.8v2.7
			c1.8-2.1,4.2-3.4,7.2-3.4c6.6,0,10.9,4.9,10.9,12.3V77.7z"/>
		<path fill="#00B9F2" d="M271.4,63.7c0,8.4-6.4,14.6-14.1,14.6c-7.8,0-14.1-6.2-14.1-14.6c0-8.4,6.3-14.7,14.1-14.7
			C265,49,271.4,55.3,271.4,63.7z M264.1,63.8c0-4.8-3.1-8.2-6.9-8.2c-3.8,0-6.9,3.4-6.9,8.2c0,4.7,3.1,8,6.9,8
			C261,71.7,264.1,68.5,264.1,63.8z"/>
		<path fill="#00B9F2" d="M286.5,78.3c-7.1,0-12.4-3.7-13.3-9.8h7.3c1,2.4,3.9,3.3,6,3.3c2.9,0,5.1-0.9,5.1-2.5c0-1.6-1-2.2-5.9-3
			c-5-0.8-11.7-2.1-11.7-8.4c0-4.4,3.9-9,12-9c6.4,0,11.2,3.5,12.1,8.7h-7.4c-0.4-1.3-2-2.3-4.7-2.3c-3.3,0-4.7,1.2-4.7,2.2
			c0,1.5,2.1,2,5.5,2.5c7,1.1,12,2.7,12,8.7C298.8,74.4,293.7,78.3,286.5,78.3z"/>
		<path fill="#00B9F2" d="M325.5,70.1l-2.6,7.6h-7.6L328.5,40h9.1l13.1,37.7h-7.6l-2.6-7.6H325.5z M333,48l-5.3,15.5h10.5L333,48z"
			/>
		<path fill="#00B9F2" d="M360.8,46.6h-7.2V40h7.2V46.6z M360.8,77.7h-7.2v-28h7.2V77.7z"/>
		<path fill="#00B9F2" d="M391.4,62.7h-7.2v-1.4c0-1.6-0.5-5.5-5.2-5.5c-3.2,0-5.4,2.4-5.4,5.5v16.4h-7.2v-28h6.8v2.7
			c1.8-2.1,4.2-3.4,7.2-3.4c6.6,0,10.9,4.9,10.9,12.3V62.7z"/>
		<path fill="#00B9F2" d="M400.8,66.5c0.9,3.4,3.6,5.5,7,5.5c2.4,0,4.7-1,5.9-3.3h7.7c-1.6,5.7-6.6,9.6-13.5,9.6
			c-7.9,0-14.3-6.5-14.3-14.6S400,49,407.9,49c8.3,0,15.1,6.4,14.1,17.5H400.8z M414.8,60.6c-0.9-3.3-3.6-5.3-7-5.3
			c-3.3,0-5.9,2.1-6.9,5.3H414.8z"/>
		<path fill="#00B9F2" d="M437.2,78.3c-7.1,0-12.4-3.7-13.3-9.8h7.3c1,2.4,3.9,3.3,6,3.3c2.9,0,5.1-0.9,5.1-2.5c0-1.6-1-2.2-5.9-3
			c-5-0.8-11.7-2.1-11.7-8.4c0-4.4,3.9-9,12-9c6.4,0,11.2,3.5,12.1,8.7h-7.4c-0.4-1.3-2-2.3-4.7-2.3c-3.3,0-4.7,1.2-4.7,2.2
			c0,1.5,2.1,2,5.5,2.5c7,1.1,12,2.7,12,8.7C449.5,74.4,444.4,78.3,437.2,78.3z"/>
		<path fill="#00B9F2" d="M485.8,78.3c-10.3,0-18.3-8.6-18.3-19.7c0-11,8-19.7,18.3-19.7c8.5,0,14.8,4.8,17.2,12.6h-7.8
			c-1.7-3.4-5.1-6-9.4-6c-6.2,0-11.1,6-11.1,13.1c0,7.2,4.9,13.1,11.1,13.1c4.3,0,7.7-2.7,9.4-6.1h7.7
			C500.5,73.4,494.2,78.3,485.8,78.3z"/>
		<path fill="#00B9F2" d="M513.7,46.6h-7.2V40h7.2V46.6z M513.7,77.7h-7.2v-28h7.2V77.7z"/>
		<path fill="#00B9F2" d="M543.9,77.7H537v-2.6c-1.7,2-4.2,3.2-7.1,3.2c-6.6,0-11-4.9-11-12.3V49.7h7.2V66c0,1.6,0.5,5.5,5.2,5.5
			c3.2,0,5.4-2.4,5.4-5.5V49.7h7.2V77.7z"/>
		<path fill="#00B9F2" d="M576.4,77.7h-6.8v-3c-2.2,2.3-5.2,3.6-8.6,3.6c-7.3,0-13.3-6.3-13.3-14.6c0-8.3,6-14.6,13.3-14.6
			c3.3,0,6.1,1.2,8.3,3.3V37.2h7.2V77.7z M562.1,55.7c-4,0-7.2,3.5-7.2,8c0,4.5,3.2,7.9,7.2,7.9s7.2-3.5,7.2-7.9
			C569.3,59.3,566,55.7,562.1,55.7z"/>
		<path fill="#00B9F2" d="M609.1,77.7h-6.8v-3c-2.2,2.3-5.2,3.6-8.6,3.6c-7.3,0-13.3-6.3-13.3-14.6c0-8.3,6-14.6,13.3-14.6
			c3.4,0,6.4,1.3,8.6,3.6v-3h6.8V77.7z M594.8,55.7c-4,0-7.2,3.5-7.2,8c0,4.5,3.2,7.9,7.2,7.9c4,0,7.2-3.5,7.2-7.9
			C602,59.3,598.8,55.7,594.8,55.7z"/>
		<path fill="#00B9F2" d="M641.8,77.7h-6.8v-3c-2.2,2.3-5.2,3.6-8.6,3.6c-7.3,0-13.3-6.3-13.3-14.6c0-8.3,6-14.6,13.3-14.6
			c3.3,0,6.1,1.2,8.3,3.3V37.2h7.2V77.7z M627.4,55.7c-4,0-7.2,3.5-7.2,8c0,4.5,3.2,7.9,7.2,7.9s7.2-3.5,7.2-7.9
			C634.6,59.3,631.4,55.7,627.4,55.7z"/>
	</g>
	<g>
		<g>
			<path fill="#00B9F2" d="M50.1,20.1c-0.3,0-0.5,0.2-0.5,0.5c0,0.3,0.2,0.5,0.5,0.5c0.3,0,0.5-0.2,0.5-0.5
				C50.7,20.4,50.4,20.1,50.1,20.1"/>
			<path fill="#00B9F2" d="M77.1,28.4L77.1,28.4c-2.9-0.1-5.5-1.1-8.1-2.1c-1-0.4-2.1-0.8-3.2-1.1c-2.1-0.7-4-1-5.7-1.1
				c-0.5,0-0.9,0-1.3,0c-1.2,0-2.8,0.1-3.9,1.1c-0.3-1.3-0.7-2.8-1.2-4.2c-0.5-1.3-1.3-2.9-2.7-3.3c-0.2-0.1-0.5-0.1-0.7-0.1
				c-1.4,0-2.5,1.3-3,2L47,19.9c-0.6,0.9-0.9,1.3-0.8,1.7c0.1,0.4,0.6,0.7,1.7,1.4c0.5,0.3,0.6,1,0.7,1.5v0.1
				c0.1,0.8,0.2,1.6,0.2,2.3c-1.6-1.7-4.1-2.3-6.3-2.7C41.8,24,41.2,24,40.6,24c-2.6,0-5.1,1-6.7,1.7c-0.9,0.4-1.9,0.9-2.8,1.3
				c-1.8,0.8-3.6,1.7-5.5,2.3c-0.6,0.2-1.2,0.3-1.9,0.4h0c0,0,0,0,0,0l-0.1,0c-0.3,0.1-0.8,0.2-0.9,0.6c-0.1,0.4,0,0.7,0.6,1.2
				c1.4,0.8,3.1,1.2,5.1,1.2c0.4,0,0.9,0,1.3,0c0.6,0,1.2-0.1,1.9-0.2c1-0.1,1.9-0.2,2.8-0.2c0.6,0,1.2,0.1,1.7,0.2
				c1.5,0.4,2.4,1.9,3.2,3.2c0.2,0.3,0.4,0.7,0.6,0.9l0,0c0.4,0.6,1,1.5,0.9,2.2c0,0.7-1,1.2-1.7,1.7c-0.2,0.1-0.4,0.2-0.5,0.3
				c-0.2,0.2-0.5,0.3-0.7,0.5c-1.5,1-3.6,2.3-3.4,4.1c0.1,0.9,0.8,1.6,1.8,1.7c0.1,0,0.2,0,0.2,0c0.6,0,1.2-0.3,1.8-0.6
				c0.2-0.1,0.5-0.3,0.7-0.3c0.7-0.3,1.5-0.4,2.2-0.4c1.2,0,2.4,0.4,3.5,1.2c0.4,0.3,0.7,0.6,1,0.9c0.3,0.3,0.7,0.7,1.1,1
				c0.3,0.2,0.9,0.5,1.4,0.5c0.5,0,0.8-0.2,0.9-0.7c0.2-0.9,0.2-1.8,0.2-2.7c0-0.7,0-1.5,0.1-2.2c0.1-0.4,0.2-1.3,0.7-1.6
				c0.2-0.1,0.4-0.1,0.7-0.1c0.3,0,0.6,0.1,0.9,0.1c0.4,0.1,0.8,0.1,1.2,0.1c1.6-0.2,3-1.5,3.6-3.5c0.3-0.7,0.7-1,1.4-1.1
				c0.8-0.2,1.3-0.9,1.8-1.5c0.1-0.2,0.3-0.3,0.4-0.5c1-1.2,2.3-1.7,4-1.7c0.3,0,0.7,0,1.1,0.1c0.3,0,0.7,0.1,1.1,0.1
				c0.9,0.1,1.8,0.2,2.7,0.2c1,0,1.9-0.1,2.7-0.4c2.1-0.7,4-2.1,5.6-3.4l0.2-0.2c0.5-0.4,0.6-0.7,0.5-1.1
				C77.9,28.5,77.3,28.4,77.1,28.4 M40.8,34.6c-0.4-0.7-0.8-1.4-1.4-2c-1.2-1.5-2.8-2.2-5.3-2.2c-1,0-2.1,0.1-3.1,0.2
				c-1,0.1-2.1,0.2-3.1,0.2c-0.5,0-1,0-1.4-0.1c1.7-0.6,3.4-1.4,5.1-2.2c1.7-0.8,3.6-1.7,5.4-2.3c1.2-0.4,2.4-0.5,3.6-0.5
				c2.3,0,4.3,0.6,6,1.7c1.4,0.9,1.8,1.9,1.3,3.3c-0.5,1.5-1.4,2.9-2.6,4.3c-0.1,0.1-0.2,0.2-0.3,0.3c-0.5,0.6-1.4,1.7-2.2,1.7
				c-0.2,0-0.4-0.1-0.6-0.3C41.8,36.2,41.3,35.4,40.8,34.6 M55.1,36.7c-0.2,1.2-0.7,2.3-1.4,3c-0.7,0.6-1.4,0.7-2.4,0.7
				c-0.2,0-0.3,0-0.5,0c-0.2,0-0.4,0-0.5,0c-0.6,0-1.1,0.2-1.5,0.6c-1.2,1.2-1.1,3.8-1.1,5.5V47l-0.1-0.1c-1.5-1.4-2.9-2.7-4.9-3
				c-0.3-0.1-0.7-0.1-1-0.1c-0.6,0-1.3,0.1-2,0.2c-0.6,0.1-1.1,0.4-1.6,0.6c-0.2,0.1-0.4,0.2-0.6,0.3c-0.3,0.1-0.6,0.2-0.8,0.2
				c-0.1,0-0.1,0-0.1,0c0,0,0-0.1,0-0.1c0.2-0.7,1-1.2,1.6-1.6l0.2-0.1c1.5-1,3-2.1,4.4-3.2c2.6-2,5.5-4.6,6.9-8
				c0.8-1.9,1.2-4.2,1-6.4l0-0.1c-0.1-0.9-0.1-1.9-0.5-2.8c-0.3-0.7-0.9-1-1.5-1.4c-0.1-0.1-0.2-0.1-0.3-0.2c0.3-0.5,1-1.9,1.9-1.9
				c0.3,0,0.7,0.2,1,0.6c1,1.4,1.5,3.1,1.9,4.7c0.1,0.3,0.2,0.5,0.2,0.8C54.1,28.4,55.5,33.2,55.1,36.7 M73,31.2
				c-1.4,0.8-2.7,1.2-3.9,1.2h-0.1c-0.8,0-1.6-0.1-2.4-0.2c-0.7-0.1-1.3-0.2-2-0.2c-1.7-0.1-3,0.2-4,0.8c-0.7,0.4-1.2,1-1.7,1.7
				c-0.3,0.4-0.7,0.9-1.2,1.2c-0.1,0.1-0.3,0.2-0.5,0.2h0c-0.2,0-0.2-0.1-0.2-0.4c0-0.1,0-0.1,0-0.2c0-0.6-0.1-1.3-0.2-1.9l-0.1-0.3
				c-0.1-1.1-0.3-2.2-0.6-3.3c0-0.2-0.1-0.4-0.2-0.7c-0.3-1-0.7-2.2,0.1-2.8c0.5-0.4,1.2-0.5,1.8-0.5c0,0,0.6-0.1,1.2-0.1h0.2
				c0.7,0,1.4,0,2.1,0.1c1.3,0.2,2.7,0.5,4.4,1.1c0.9,0.3,1.8,0.6,2.7,1c2,0.8,4.2,1.5,6.4,1.9C74.2,30.4,73.5,30.8,73,31.2"/>
			<path fill="#00B9F2" d="M95.7,47.5c-0.6-3.9-1.6-7.7-2.9-11.4c-1.3-3.6-2.8-7-4.7-10.3c-1.5-2.5-3.1-4.9-5-7.2
				c-2.4-2.9-5-5.5-8-7.8c-2.9-2.2-6-4.1-9.4-5.6c-3.3-1.4-6.9-2.4-10.5-2.9c-3.7-0.5-7.4-0.4-11,0.1C40.6,3,37.2,4.1,33.9,5.6
				c-3.3,1.5-6.4,3.5-9.3,5.8c-2.9,2.3-5.5,5-7.8,8c-2.3,2.9-4.2,6-5.9,9.2c-1.7,3.4-3.1,7-4.2,10.6C5.5,43,4.7,46.9,4.3,50.9
				C3.9,55,3.8,59.1,4.1,63.3c0.3,4,1,8,2,11.8c1,3.7,2.3,7.3,3.9,10.8c1.6,3.3,3.5,6.5,5.6,9.5c2.5,3.3,8.7,9.2,8.7,9.2
				c7.4,6,16.3,9.6,25.9,9.6h0c3.7,0,7.3-0.5,10.8-1.5c3.5-1,6.8-2.5,9.9-4.4c3.2-1.9,6.1-4.2,8.7-6.8c2.6-2.6,4.9-5.5,6.9-8.6
				c2-3.1,3.8-6.4,5.2-9.9c1.5-3.6,2.6-7.3,3.4-11.1c0.8-4,1.3-8,1.4-12.1C96.6,55.6,96.3,51.5,95.7,47.5 M13.7,74.3h-1.2l1.1-4
				c0.1-0.3,0.2-0.3,0.2-0.2C13.8,71.5,13.8,72.9,13.7,74.3 M14.3,63.3l-2.4-1.1c-0.1-0.1-0.1-0.1,0-0.1h5.1c0.2,0,0.2,0,0,0.1
				l-2.3,1.1C14.7,63.4,14.5,63.4,14.3,63.3 M11.4,61.1l2.7-1.9c0,0.6,0,1.2,0,1.9H11.4z M12.2,54.7h4.5c0.1,0,0.1,0,0,0.1l-2,1
				c-0.1,0.1-0.3,0.1-0.4,0L12.2,54.7C12.1,54.8,12.1,54.7,12.2,54.7 M11.7,53.8l2.4-1.6c0,0.5,0,1,0,1.6H11.7z M15,52.2l2.4,1.6H15
				C15,53.3,15,52.8,15,52.2 M15.1,59.2l2.7,1.9h-2.6C15.1,60.5,15.1,59.8,15.1,59.2 M15.3,74.3c0-1.3-0.1-2.7-0.1-4.2
				c0-0.1,0.1-0.2,0.2,0.1l1.1,4.1H15.3z M50.2,110.2c-7.1,0-13.7-2.1-19.6-5.9c4.5,0,9.1,0.6,13.6,1.2c4.5,0.7,9,1.4,13.5,1.9
				c1.7,0.2,3.5,0.3,5.2,0.4C59,109.3,54.7,110.2,50.2,110.2 M70.9,103.5c-4.5,0.5-9,0.3-13.4-0.2c-4.5-0.5-8.9-1.2-13.3-1.9
				c-4.6-0.7-9.2-1.2-13.8-1.2c-1.6,0-3.1,0.1-4.7,0.2c-1.5-1.3-2.9-2.7-4.2-4.2c4.6-0.7,9.4-0.7,14-0.3c4.7,0.3,9.3,1,14,1.7
				c2.3,0.4,4.7,0.7,7,1c1.2,0.1,5.8,0.5,6.9,0.5c4.7,0,9.4-0.4,14-1.1C75.4,100.1,73.2,101.9,70.9,103.5 M81.6,93
				c-4.5,1.1-9.1,1.7-13.7,1.9C65.6,95,63.3,95.1,61,95c-2.3-0.1-4.6-0.5-6.9-0.8c-4.6-0.7-9.3-1.4-13.9-1.9
				c-4.6-0.5-9.3-0.8-14-0.6c-2.5,0.1-5.1,0.4-7.6,0.9c-0.9-1.2-1.7-2.4-2.4-3.7c4.1-0.8,8.3-1.4,12.5-1.5c4.3-0.1,8.5,0.1,12.7,0.7
				c4.1,0.5,8.1,1.3,12.2,1.8c3.7,0.5,7.5,0.8,11.2,0.8h0c3.9,0,7.8-0.3,11.7-1c2.8-0.5,5.6-1,8.4-1.8C83.8,89.7,82.7,91.4,81.6,93
				 M19.4,78.7c-1.9-1.3-2.2-3.4-2.1-3.8l6-14.2c0.1-0.3,0.2-0.2,0.2,0L19.4,78.7z M23.4,65.3c-0.1,6.4-0.2,12.3-0.2,15.1
				c-1.1-0.3-2.2-0.7-3.1-1.3L23.3,65C23.4,64.9,23.4,65.1,23.4,65.3 M21.8,52.8h4.5c0.1,0,0.1,0.1,0,0.1l-2,1
				c-0.1,0.1-0.3,0.1-0.4,0l-2.1-1C21.7,52.9,21.7,52.8,21.8,52.8 M21.3,51.9l2.4-1.6c0,0.5,0,1,0,1.6H21.3z M24.6,50.3l2.4,1.6
				h-2.3C24.6,51.4,24.6,50.8,24.6,50.3 M29.4,71.2c-0.1,3.1-0.2,6.1-0.2,8.5c0,0,0,0-0.1,0l-2-8.8l1.1-2.6L29.4,71.2z M28.6,67.4
				l0.8-1.9c0.1-0.1,0.1-0.1,0.2,0c0,1.2-0.1,2.5-0.1,3.9L28.6,67.4z M26.6,72.1l2,8c-0.7,0.3-1.5,0.4-2.3,0.5
				c-0.3,0-0.5,0.1-0.8,0.1c-0.2,0-0.3,0-0.5,0c0-1.1,0-2.7,0-4.7L26.6,72.1z M24.9,74.2c0-2.6-0.1-5.7-0.1-8.9
				c0-0.3,0.1-0.5,0.2-0.1l1.3,5.7L24.9,74.2z M26.8,69.7l-2.1-9c0-0.2,0-0.3,0.2,0l2.9,6.7L26.8,69.7z M30.8,72.5v-1.3
				c-0.1-2.3-0.1-3.4-0.2-5.6c0-0.2,0.1-0.3,0.2-0.1l3.6,9c-0.6,1.2-0.7,1.6-1.6,2.5L30.8,72.5z M32.2,77.6
				c-0.4,0.4-0.8,0.8-1.2,1.1c0-1.2-0.1-2.8-0.1-4.2L32.2,77.6z M35.9,74.2l4.1-8.8c-0.1,2.5-0.2,6.2-0.2,8.8h-1.7
				C37.5,74.2,36.5,74.2,35.9,74.2 M65.4,62.8h6c0.2,0,0.2,0,0.1,0.1c0,0-2.7,1.3-2.7,1.3c-0.2,0.1-0.4,0.1-0.6,0L65.3,63
				C65.2,62.9,65.2,62.8,65.4,62.8 M64.7,61.7l3.1-2.2c0,0.7,0,2.1,0,2.2H64.7z M65.8,52.9c0,0,0.1,0,0.1,0h5c0.1,0,0.1,0,0.1,0h0h0
				c0,0,0,0-0.1,0.1l-2.2,1c-0.1,0.1-0.3,0.1-0.5,0L65.8,52.9C65.8,52.9,65.8,52.9,65.8,52.9 M65.3,51.8l2.7-1.9c0,0.6,0,1.2,0,1.9
				H65.3z M68.8,49.9l2.7,1.9h-2.6C68.9,51.2,68.9,50.6,68.8,49.9 M69,59.4l3.1,2.2H69C69,60.9,69,60.2,69,59.4 M78,57h5.1
				c0.1,0,0.2,0,0,0.1l-2.3,1.1c-0.1,0.1-0.3,0.1-0.5,0L78,57.1C77.8,57.1,77.8,57,78,57 M77.4,56l2.7-1.9c0,0.6,0,1.3,0,1.9H77.4z
				 M81.1,54.1l2.7,1.9h-2.7C81.1,55.4,81.1,54.7,81.1,54.1 M79.9,65.1c-0.1,6.2-0.2,12.8-0.3,17.4c-1.5,0.5-2.8,0.7-3.9,0.6
				l2.5-11.3l1.5-6.7C79.8,64.9,79.9,64.8,79.9,65.1 M79.6,62.4L75.1,82l-1.9-5.3l0,0l6-14.5C79.4,61.9,79.6,61.7,79.6,62.4
				 M74.7,82.9c-1.4-0.3-2.5-1-3.3-1.7l1.4-3.4L74.7,82.9z M70.8,80.6c-0.9-0.9-1.3-1.8-1.5-2.2c0-3-0.1-7.4-0.2-12.1l3.4,10.3
				L70.8,80.6z M63.5,78.2h-7.3L67.1,66L63.5,78.2z M67.7,66.3c0,2.8-0.1,11.6-0.1,11.9h-3.2L67.7,66.3z M81.2,65
				c0-0.2,0.1-0.1,0.2,0l3,13.2c-0.7,1.5-2,2.7-3,3.3C81.4,79.2,81.2,65.1,81.2,65 M85.2,78.2l-3.7-15.6c-0.1-1,0.1-0.6,0.3-0.3
				l6.8,15.9H85.2z M91.3,70.6c-0.5,2.5-1.2,4.9-2,7.3l-8.1-19.3l3.6-1.6c0.4-0.2,0.4-0.7,0-0.9c0,0-3.5-2.5-3.7-2.6L81,47.5
				c0.4-0.1,0.9-0.3,1.3-0.3c0.5-0.1,0.9,0,1.4,0.1c0.4,0.1,0.9,0.1,1.3,0c0.4-0.1,0.7-0.3,1.1-0.6c-0.9,0-1.7-0.6-2.5-1
				c-0.4-0.2-0.9-0.3-1.3-0.4c-0.4,0-1-0.1-1.4,0.1c0-0.3-0.1-0.7-0.2-1.1h-0.2c-0.3,1.6-0.3,3.4-0.3,5c0,1.1,0,2.3,0,3.5
				c0,0.2,0,0.4,0,0.6l-3.7,2.6c-0.4,0.2-0.4,0.7,0,0.9v0l3.5,1.6l-7,17.1l-3.6-11l4-1.9c0.4-0.2,0.4-0.8,0-1c0,0-3.8-2.6-4.3-3
				c0-1.4,0-2.9-0.1-4.2l3.7-1.7v0c0.4-0.2,0.4-0.7,0-0.9c0,0-3.3-2.3-3.8-2.7c0-2.7,0-5.4-0.1-8.1c0.2,0,0.4-0.1,0.6-0.1
				c0.2-0.1,0.5-0.1,0.7-0.2c0.5-0.1,0.9,0,1.4,0.1c0.5,0.1,0.9,0.1,1.3,0c0.4-0.1,0.7-0.3,1.1-0.6c-0.9,0-1.7-0.6-2.5-1
				c-0.4-0.2-0.9-0.3-1.3-0.4c-0.5,0-1-0.1-1.4,0.1c0-0.3-0.1-0.7-0.2-1.1h-0.2v0C68,39.5,68,41,68,42.5c0,1.4,0,2.7,0,4.1
				c0,0.9,0,1.8,0,2.7l-3.7,2.7c-0.4,0.2-0.4,0.7,0,0.9l3.6,1.7l0,0c0,1.3,0,2.8,0,4.2l-4.3,3c-0.4,0.2-0.4,0.8,0,1l3.9,1.9
				L55.2,78.2c-0.2,0-1.8,0-2,0.3c-0.3,0.3-0.3,0.6-0.2,1c0.2,0.4,0.6,0.8,1,1c0.2,0.1,0.4,0.2,0.7,0.3c0,0,0.1,0,0.1,0.1
				c0,0,1.1,3.7,5.8,5.4h0c0,0,0.1,0,0.1,0.1c0,0,0,0,0,0c0,0-0.1,0-0.1,0c-4.5-0.3-9-1-13.4-1.7c-1.7-0.3-3.4-0.5-5.1-0.8
				c-1.2-0.1-2.3-0.3-3.5-0.5c-0.1,0-0.2-0.1-0.2-0.1v0c0,0,0,0,0,0v0c0,0,0,0,0,0c0,0,0-0.1,0.1-0.1c0,0,0,0,0,0
				c6.3-1.9,7.6-6.4,7.6-6.4c0.1,0,0.2-0.1,0.2-0.1c0.2-0.1,0.3-0.2,0.5-0.2c0.4-0.2,0.8-0.5,1-1c0.1-0.3,0.1-0.7-0.2-1
				c-0.2-0.3-2-0.3-2-0.3l0,0h-0.3c0-1,0-3.5-0.1-5.1c0.2,0.1,0.4,0,0.6,0c0.2-0.1,0.5-0.1,0.7-0.2c0.5-0.1,0.9-0.1,1.4,0
				c0.5,0.1,0.9,0.2,1.4,0c0.4-0.1,0.8-0.3,1.1-0.6c-0.9,0-1.7-0.6-2.6-1c-0.4-0.2-0.9-0.3-1.4-0.3c-0.5,0-1-0.1-1.4,0.1
				c0-0.4-0.1-0.7-0.1-1h-0.2c-0.2,1.4-0.2,6.3-0.3,8.2l-3.1,0c-0.1-3.4-0.2-8-0.3-10.9l2.7-5.8c0.4,0.2,0.8,0.2,1.2,0.3
				c0.4,0.1,0.8,0.4,1.1,0.7c0.3,0.3,0.7,0.5,1.1,0.7c0.4,0.1,0.9,0.1,1.4,0c-0.8-0.5-1.1-1.3-1.6-2c-0.3-0.4-0.6-0.7-1-1
				c-0.4-0.3-0.8-0.6-1.3-0.7c0.1-0.3,0.2-0.8,0.3-1c0,0,0-0.1-0.1-0.1c0,0,0,0-0.1,0c-0.1,0-0.2,0.1-0.2,0.2
				c-0.2,0.3-0.6,0.9-0.6,1l-2.9,6.2c0-1-0.1-2-0.1-2.9c0-1.2-0.1-2.5-0.3-3.7h-0.2c-0.3,1.5-0.3,3-0.3,4.5c0,1.3-0.1,2.7-0.1,4.1
				L35,74l-4.5-11c0-1.4-0.1-2.7-0.1-4.1c0-1.5,0-3.1-0.3-4.6H30c-0.3,1.5-0.3,3-0.3,4.5c0,1.4,0,2.8-0.1,4.1l-1.4,3.4l-3.5-8.2
				c0-1.4,0-2.7-0.1-4l3.2-1.5c0.3-0.2,0.3-0.6,0-0.8c0,0-2.7-1.9-3.3-2.3c0-2.8-0.1-5.6-0.1-8.4c0.2,0,0.4-0.1,0.6-0.1
				c0.2-0.1,0.5-0.1,0.7-0.2c0.5-0.1,0.9,0,1.4,0.1c0.4,0.1,0.9,0.1,1.3,0c0.4-0.1,0.7-0.3,1.1-0.6c-0.9,0-1.7-0.6-2.4-1
				c-0.4-0.2-0.8-0.3-1.3-0.4c-0.5-0.1-1-0.1-1.5,0c0-0.4-0.1-0.7-0.1-1.1H24c-0.3,1.8-0.3,3.6-0.3,5.4c0,1.8,0,3.5-0.1,5.3
				c0,0.3,0,0.7,0,1l-3.3,2.3c-0.3,0.2-0.3,0.6,0,0.8l3.2,1.5c0,1.5-0.1,3.8-0.1,4L17,73.5l-1-3.5h0.8l0,0h0.4
				c0.2,0,0.4-0.1,0.5-0.1c0.1,0,0.4-0.1,0.4-0.3c0-0.2-0.3-0.3-0.4-0.3c-0.2-0.1-0.4-0.1-0.6-0.1h-1.5l-0.6-2.4c0-1,0-2-0.1-3
				l3.6-1.7c0.4-0.2,0.4-0.7,0-0.9c0,0-3.4-2.4-3.7-2.6c0-0.7,0-1.7,0-2.4l3.2-1.5c0.3-0.2,0.3-0.6,0-0.8c0,0-2.9-2.1-3.3-2.4
				c0-2.4,0-3.9-0.1-4.1c0.4,0,0.8-0.2,1.1-0.3c0.4-0.1,0.8,0,1.2,0c0.4,0.1,0.8,0.1,1.2,0c0.4-0.1,0.7-0.3,1-0.5
				c-0.8,0-1.5-0.5-2.2-0.9c-0.4-0.2-0.8-0.3-1.2-0.3c-0.4,0-0.9-0.1-1.2,0.1c0-0.3-0.1-0.6-0.2-1h-0.2c-0.2,1.3-0.3,2.6-0.3,3.9
				c0,1.1,0,1.9-0.1,3l-3.3,2.4c-0.3,0.2-0.3,0.7,0,0.8l3.2,1.5c0,0.7,0,1.7,0,2.4l-3.6,2.6c-0.4,0.2-0.4,0.7,0,0.9l3.6,1.7
				c0,1,0,2-0.1,2.9l-0.6,2.5h-1.5c-0.2,0-0.4,0.1-0.6,0.1c-0.1,0-0.4,0.2-0.4,0.3c0,0.2,0.3,0.3,0.4,0.3c0.2,0.1,0.4,0.1,0.6,0.1
				h0.4c0,0,0,0,0,0H13l-1.1,4.2h-1.8C9,70.2,8.3,66,8.1,61.7C7.9,57.5,8,53.3,8.6,49.1c0.6-3.9,1.5-7.7,2.8-11.5
				c1.2-3.5,2.8-6.9,4.7-10.2c1-1.7,2.1-3.3,3.3-4.9c4.9,1.6,11.2,0.1,11.2,0.1c5.7-1,9.2-0.9,11.3-0.5l1.1,0.2
				c0.1-0.7,0.2-1.2,0.4-1.8c-5.9-1.9-12.6-1-12.6-1c-4.1,0.4-6.5-0.4-7.8-1.2c0,0,2.6-2.7,4.6-4.2c1.8,1.3,4.1,2,6.3,2.4
				c1.4,0.3,2.9,0.4,4.3,0.7c1.4,0.3,2.9,0.8,4.3,1.2c0.5,0.2,1.1,0.5,1.4,0.6c0.3-0.6,0.6-1.1,1-1.6L44,16.8
				c-1.8-1.1-3.6-1.6-5.5-2.2c-1.3-0.4-2.5-0.8-3.7-1.5c-1.6-0.9-2.7-2-2.8-2c0,0,2.8-1.7,5.5-2.7c1.2,1.7,3.5,2.7,5.1,4.1
				c2.2,1.9,3.4,3.6,3.5,3.8c0.5-0.4,1-0.7,1.7-0.9c-0.9-1.9-2.1-4.1-3.6-5.5c-0.7-0.6-1.7-1.7-2-2.9c0,0,3.5-0.9,6.3-0.9l1,8.9
				c0.4-0.1,0.9-0.1,0.9-0.1s0.4,0,1,0.1l1-8.9c0,0,2.4,0.1,4.4,0.5C57.6,6.8,58.5,7,58.5,7c-0.3,1.1-1.3,2.2-2,2.9
				c-1.5,1.4-2.7,3.6-3.6,5.6c0.5,0.2,1.1,0.5,1.7,0.9c1-1.5,2.3-2.8,3.5-3.8c1.5-1.3,3.8-2.4,5-4.1c0.3,0.1,1.7,0.6,3.9,1.8
				l1.6,0.9c-0.1,0-1.9,1.5-2.8,2c-1.2,0.7-2.5,1.1-3.7,1.5c-1.9,0.6-3.7,1.1-5.5,2.2l-0.9,0.6c0.4,0.5,0.7,1,1,1.6
				c0.3-0.2,1-0.5,1.4-0.6c1.4-0.5,2.8-0.9,4.3-1.2c1.4-0.3,2.9-0.4,4.3-0.7c2.1-0.4,4.5-1.1,6.3-2.4c2.3,1.8,4.6,4.2,4.6,4.2
				c-1.3,0.7-3.7,1.5-7.8,1.1c0,0-6.7-0.9-12.6,1c0.2,0.6,0.3,0.9,0.4,1.8l1.2-0.2c2.1-0.3,5.5-0.4,11.2,0.6c0,0,6.3,1.5,11.1-0.1
				c0.5,0.6,1,1.3,1.4,1.9c2.1,3,3.8,6.3,5.3,9.7c1.5,3.6,2.7,7.3,3.4,11.1c0.8,4,1.3,8.1,1.3,12.1C92.5,61.8,92.1,66.2,91.3,70.6"
				/>
		</g>
	</g>
</g>
</svg>
