<?xml version="1.0" encoding="utf-8"?>
<!-- Generator: Adobe Illustrator 18.0.0, SVG Export Plug-In . SVG Version: 6.00 Build 0)  -->
<!DOCTYPE svg PUBLIC "-//W3C//DTD SVG 1.1//EN" "http://www.w3.org/Graphics/SVG/1.1/DTD/svg11.dtd">
<svg version="1.1" id="Layer_1" xmlns="http://www.w3.org/2000/svg" xmlns:xlink="http://www.w3.org/1999/xlink" x="0px" y="0px"
	 viewBox="0 0 733.4 182.1" enable-background="new 0 0 733.4 182.1" xml:space="preserve">
<g>
	<g>
		<path fill="#439DD7" d="M77.3,66.5c-4,4.8-8.8,8.6-14.4,11.5c-5.6,2.8-11.9,4.3-18.6,4.3c-5.9,0-11.4-1.1-16.5-3.2
			c-5.1-2.1-9.6-5.1-13.4-8.8c-3.8-3.7-6.8-8-9-13C3.1,52.2,2,46.9,2,41.1s1.1-11.1,3.3-16.1c2.2-5,5.2-9.3,9-13.1
			c3.8-3.7,8.3-6.6,13.4-8.8c5.1-2.1,10.6-3.2,16.5-3.2c6.8,0,13,1.4,18.6,4.3c5.6,2.8,10.3,6.5,14.1,11.1L66.4,26.3
			c-2.4-3.5-5.6-6.3-9.4-8.5c-3.9-2.1-8.1-3.2-12.7-3.2c-3.7,0-7.2,0.7-10.4,2.1c-3.3,1.4-6.1,3.3-8.6,5.7c-2.4,2.4-4.4,5.2-5.8,8.4
			c-1.4,3.2-2.1,6.6-2.1,10.2c0,3.6,0.7,6.9,2.1,10.1c1.4,3.2,3.3,6,5.8,8.4c2.4,2.4,5.3,4.3,8.6,5.7c3.3,1.4,6.7,2.1,10.4,2.1
			c4.9,0,9.2-1.1,13-3.3c3.8-2.2,6.9-5.1,9.4-8.8L77.3,66.5z"/>
		<path fill="#439DD7" d="M147.1,80.7h-15.3v-35h-31.2v35H85.3v-79h15.3V33h31.2V1.7h15.3V80.7z"/>
		<path fill="#439DD7" d="M177.3,80.7h-15.3v-79h15.3V80.7z"/>
		<path fill="#439DD7" d="M264.4,66.5c-4,4.8-8.8,8.6-14.4,11.5c-5.6,2.8-11.9,4.3-18.6,4.3c-5.9,0-11.4-1.1-16.5-3.2
			c-5.1-2.1-9.6-5.1-13.4-8.8c-3.8-3.7-6.8-8-9-13c-2.2-5-3.3-10.3-3.3-16.1s1.1-11.1,3.3-16.1c2.2-5,5.2-9.3,9-13.1
			c3.8-3.7,8.3-6.6,13.4-8.8c5.1-2.1,10.6-3.2,16.5-3.2c6.8,0,13,1.4,18.6,4.3c5.6,2.8,10.3,6.5,14.1,11.1l-10.6,10.9
			c-2.4-3.5-5.6-6.3-9.4-8.5c-3.9-2.1-8.1-3.2-12.7-3.2c-3.7,0-7.2,0.7-10.4,2.1c-3.3,1.4-6.1,3.3-8.6,5.7c-2.4,2.4-4.4,5.2-5.8,8.4
			c-1.4,3.2-2.1,6.6-2.1,10.2c0,3.6,0.7,6.9,2.1,10.1c1.4,3.2,3.3,6,5.8,8.4c2.4,2.4,5.3,4.3,8.6,5.7c3.3,1.4,6.7,2.1,10.4,2.1
			c4.9,0,9.2-1.1,13-3.3c3.8-2.2,6.9-5.1,9.4-8.8L264.4,66.5z"/>
		<path fill="#439DD7" d="M352.2,80.7h-16.8l-7.3-15.8h-38.4l-7.4,15.8h-16.8l37.4-79.1h12L352.2,80.7z M322.1,52.1l-13.2-28.5
			l-13.4,28.5H322.1z"/>
		<path fill="#439DD7" d="M413,59.9c0,3-0.6,5.8-1.9,8.5c-1.3,2.7-3.1,5-5.4,7.1c-2.3,2-5,3.7-8.2,4.9c-3.2,1.2-6.7,1.8-10.5,1.8
			c-3.4,0-6.5-0.2-9.2-0.6c-2.7-0.4-5.3-1-7.7-1.9c-2.4-0.9-4.7-2-6.9-3.3c-2.2-1.4-4.5-3-6.9-4.9l10.9-11c3.2,2.6,6.3,4.5,9.3,5.6
			c3,1.1,6.3,1.6,9.9,1.6c1.4,0,2.8-0.2,4.1-0.6c1.3-0.4,2.4-1,3.4-1.7c1-0.7,1.7-1.6,2.3-2.6c0.6-1,0.8-2.1,0.8-3.3
			c0-1.3-0.2-2.4-0.7-3.4c-0.5-1-1.3-1.9-2.5-2.9c-1.2-0.9-2.8-1.9-4.9-2.8c-2.1-1-4.8-2-8.1-3.2c-2.9-1.1-5.7-2.3-8.4-3.6
			c-2.7-1.4-5-3-7-4.9c-2-1.9-3.6-4.2-4.8-6.7c-1.2-2.6-1.8-5.6-1.8-9.1c0-3.4,0.7-6.5,2-9.3c1.4-2.8,3.2-5.3,5.5-7.3
			c2.3-2,5.1-3.6,8.2-4.7c3.1-1.1,6.5-1.7,10.1-1.7c6.1,0,11.2,0.8,15.3,2.4c4.2,1.6,7.8,3.9,11.1,6.9l-10.7,10.8
			c-2-1.9-4.2-3.4-6.6-4.4c-2.4-1-5.3-1.5-8.6-1.5c-1.5,0-2.9,0.2-4.2,0.7c-1.3,0.5-2.4,1.1-3.3,1.8c-0.9,0.8-1.7,1.6-2.2,2.7
			c-0.6,1-0.8,2.1-0.8,3.2c0,1.3,0.3,2.4,0.8,3.4c0.5,1,1.4,2,2.7,3c1.3,1,2.9,1.9,5,2.9c2.1,1,4.7,2,7.8,3.1
			c4,1.4,7.4,2.9,10.2,4.6c2.8,1.6,5.1,3.5,6.9,5.4c1.8,2,3.1,4.2,4,6.7C412.6,54.1,413,56.8,413,59.9z"/>
		<path fill="#519688" d="M507.2,80.7H455v-79h52.2v12.7h-37.2v18.9h36.7v12.4h-36.7v21.8h37.2V80.7z"/>
		<path fill="#519688" d="M584.9,80.7h-15l-35.7-55.5v55.5h-15V1.6h17.2l33.5,51.6V1.6h15V80.7z"/>
	</g>
	<g>
		<path fill="#9C5EA6" d="M59.3,115.2H37.4v65.4H21.9v-65.4H0v-13.7h59.3V115.2z"/>
		<path fill="#9C5EA6" d="M121.4,180.6H69.1v-79h52.2v12.7H84.2v18.9h36.7v12.4H84.2v21.8h37.2V180.6z"/>
		<path fill="#9C5EA6" d="M205.6,166.3c-4,4.8-8.8,8.6-14.4,11.5c-5.6,2.8-11.9,4.3-18.6,4.3c-5.9,0-11.4-1.1-16.5-3.2
			c-5.1-2.1-9.6-5.1-13.4-8.8c-3.8-3.7-6.8-8-9-13c-2.2-5-3.3-10.3-3.3-16.1s1.1-11.1,3.3-16.1c2.2-5,5.2-9.3,9-13.1
			c3.8-3.7,8.3-6.6,13.4-8.8c5.1-2.1,10.6-3.2,16.5-3.2c6.8,0,13,1.4,18.6,4.3c5.6,2.8,10.3,6.5,14.1,11.1l-10.6,10.9
			c-2.4-3.5-5.6-6.3-9.4-8.5c-3.9-2.1-8.1-3.2-12.7-3.2c-3.7,0-7.2,0.7-10.4,2.1c-3.3,1.4-6.1,3.3-8.6,5.7c-2.4,2.4-4.4,5.2-5.8,8.4
			c-1.4,3.2-2.1,6.6-2.1,10.2c0,3.6,0.7,6.9,2.1,10.1c1.4,3.2,3.3,6,5.8,8.4c2.4,2.4,5.3,4.3,8.6,5.7c3.3,1.4,6.7,2.1,10.4,2.1
			c4.9,0,9.2-1.1,13-3.3c3.8-2.2,6.9-5.1,9.4-8.8L205.6,166.3z"/>
		<path fill="#9C5EA6" d="M279.3,180.6h-15l-35.7-55.5v55.5h-15v-79.1h17.2l33.5,51.6v-51.6h15V180.6z"/>
		<path fill="#9C5EA6" d="M375.1,141c0,5.7-1.1,11-3.3,16c-2.2,5-5.2,9.4-9,13.1c-3.8,3.7-8.3,6.6-13.3,8.8
			c-5.1,2.1-10.5,3.2-16.2,3.2c-5.7,0-11.1-1.1-16.3-3.2c-5.1-2.1-9.6-5.1-13.4-8.8c-3.8-3.7-6.8-8-9-13c-2.2-5-3.3-10.3-3.3-16.1
			s1.1-11.1,3.3-16.1c2.2-5,5.2-9.4,9-13.1c3.8-3.7,8.3-6.6,13.4-8.7c5.1-2.1,10.5-3.2,16.3-3.2c5.7,0,11.1,1.1,16.2,3.2
			c5.1,2.1,9.5,5,13.3,8.8c3.8,3.7,6.8,8.1,9,13.1C374,129.9,375.1,135.3,375.1,141z M359.8,141c0-3.6-0.7-7-2.1-10.2
			c-1.4-3.2-3.3-6-5.7-8.4c-2.4-2.4-5.2-4.3-8.5-5.7c-3.2-1.4-6.7-2.1-10.3-2.1c-3.7,0-7.2,0.7-10.4,2.1c-3.2,1.4-6.1,3.3-8.5,5.7
			c-2.4,2.4-4.3,5.2-5.7,8.4c-1.4,3.2-2.1,6.6-2.1,10.2c0,3.6,0.7,7,2.1,10.2c1.4,3.2,3.3,6.1,5.7,8.5c2.4,2.4,5.2,4.3,8.5,5.7
			c3.2,1.4,6.7,2.1,10.4,2.1c3.6,0,7.1-0.7,10.3-2.1c3.2-1.4,6.1-3.3,8.5-5.7c2.4-2.4,4.3-5.2,5.7-8.5
			C359.1,148,359.8,144.6,359.8,141z"/>
		<path fill="#9C5EA6" d="M440.6,180.6h-53.5v-79h15.6v64.2h37.9V180.6z"/>
		<path fill="#9C5EA6" d="M525.2,141c0,5.7-1.1,11-3.3,16c-2.2,5-5.2,9.4-9,13.1c-3.8,3.7-8.3,6.6-13.3,8.8
			c-5.1,2.1-10.5,3.2-16.2,3.2c-5.7,0-11.1-1.1-16.3-3.2c-5.1-2.1-9.6-5.1-13.4-8.8c-3.8-3.7-6.8-8-9-13c-2.2-5-3.3-10.3-3.3-16.1
			s1.1-11.1,3.3-16.1c2.2-5,5.2-9.4,9-13.1c3.8-3.7,8.3-6.6,13.4-8.7c5.1-2.1,10.5-3.2,16.3-3.2c5.7,0,11.1,1.1,16.2,3.2
			c5.1,2.1,9.5,5,13.3,8.8c3.8,3.7,6.8,8.1,9,13.1C524,129.9,525.2,135.3,525.2,141z M509.8,141c0-3.6-0.7-7-2.1-10.2
			c-1.4-3.2-3.3-6-5.7-8.4c-2.4-2.4-5.2-4.3-8.5-5.7c-3.2-1.4-6.7-2.1-10.3-2.1c-3.7,0-7.2,0.7-10.4,2.1c-3.2,1.4-6.1,3.3-8.5,5.7
			c-2.4,2.4-4.3,5.2-5.7,8.4c-1.4,3.2-2.1,6.6-2.1,10.2c0,3.6,0.7,7,2.1,10.2c1.4,3.2,3.3,6.1,5.7,8.5c2.4,2.4,5.2,4.3,8.5,5.7
			c3.2,1.4,6.7,2.1,10.4,2.1c3.6,0,7.1-0.7,10.3-2.1c3.2-1.4,6.1-3.3,8.5-5.7c2.4-2.4,4.3-5.2,5.7-8.5
			C509.1,148,509.8,144.6,509.8,141z"/>
		<path fill="#9C5EA6" d="M609.9,166c-2.2,2.8-4.7,5.2-7.3,7.2c-2.6,2-5.4,3.7-8.3,5c-2.9,1.3-5.8,2.3-8.8,2.9c-3,0.6-6,0.9-9,0.9
			c-5.9,0-11.4-1.1-16.5-3.2c-5.1-2.1-9.6-5-13.5-8.7c-3.8-3.7-6.9-8-9.1-13.1c-2.2-5-3.4-10.4-3.4-16.2c0-5.7,1.1-11,3.3-16
			c2.2-5,5.2-9.3,9.1-13c3.9-3.7,8.4-6.6,13.5-8.8c5.1-2.1,10.6-3.2,16.5-3.2c6.8,0,13,1.4,18.5,4.2c5.6,2.8,10.3,6.5,14.2,11.1
			L599,125.8c-3-4-6.3-6.9-10-8.7c-3.7-1.7-7.8-2.6-12.3-2.6c-3.8,0-7.3,0.7-10.6,2.1c-3.3,1.4-6.2,3.3-8.6,5.7
			c-2.5,2.4-4.4,5.2-5.8,8.4c-1.4,3.2-2.1,6.6-2.1,10.2c0,3.7,0.7,7.1,2.1,10.3c1.4,3.2,3.4,6,5.8,8.5c2.5,2.4,5.3,4.4,8.6,5.7
			c3.3,1.4,6.8,2.1,10.6,2.1c3.6,0,6.9-0.7,10.1-2c3.2-1.3,6-3.1,8.5-5.2v-7.6H579v-13.1h31V166z"/>
		<path fill="#9C5EA6" d="M643.6,75.3l-14.2,19.1h-10.5l8.9-19.1H643.6z M637.1,180.6h-15.3v-79h15.3V180.6z"/>
		<path fill="#9C5EA6" d="M731.8,180.6H715l-7.3-15.8h-38.4l-7.4,15.8H645l37.4-79.1h12L731.8,180.6z M701.6,152l-13.2-28.5
			L675.1,152H701.6z"/>
	</g>
</g>
</svg>
