<?xml version="1.0" encoding="utf-8"?>
<!-- Generator: Adobe Illustrator 18.0.0, SVG Export Plug-In . SVG Version: 6.00 Build 0)  -->
<!DOCTYPE svg PUBLIC "-//W3C//DTD SVG 1.1//EN" "http://www.w3.org/Graphics/SVG/1.1/DTD/svg11.dtd">
<svg version="1.1" id="Layer_1" xmlns="http://www.w3.org/2000/svg" xmlns:xlink="http://www.w3.org/1999/xlink" x="0px" y="0px"
	 viewBox="0 0 378.4 108.2" enable-background="new 0 0 378.4 108.2" xml:space="preserve">
<g>
	<rect x="314.5" y="6.5" fill="#EE2E30" width="3.8" height="38"/>
	<rect x="368.7" y="64.5" fill="#EE2E30" width="3.8" height="36.4"/>
	<rect x="314.5" y="52.6" fill="#EE2E30" width="58" height="3.8"/>
	<rect x="326.4" y="40.8" fill="#EE2E30" width="46.2" height="3.8"/>
	<path fill="#EE2E30" d="M6.8,50.4c-0.1,0.4-0.1,1-0.1,1.4c0,2.4,1.5,4.5,4.2,4.5c2.5,0,4.5-1.8,5-3.9h1c-0.8,2.7-2.9,4.7-6.1,4.7
		c-3.3,0-5.1-2.4-5.1-5.2c0-4.9,2.7-8.6,7-8.6c3.1,0,4.8,2.2,4.8,5.1c0,0.7-0.1,1.3-0.2,1.9H6.8z M16.5,49.5
		c0.1-0.4,0.1-0.8,0.1-1.1c0-2.3-1.3-4.2-4-4.2c-3.1,0-5,2.5-5.6,5.3H16.5z"/>
	<polygon fill="#EE2E30" points="23.9,38.5 24.8,38.5 21,56.8 20,56.8 	"/>
	<path fill="#EE2E30" d="M40.4,45.2c-0.3-2.1-1.9-3.3-4-3.3c-2,0-4.8,1.1-4.8,6.4c0,2.9,1.3,6,4.6,6c2.2,0,3.8-1.5,4.2-4h3.9
		c-0.7,4.5-3.5,7-8,7c-5.5,0-8.5-3.9-8.5-9c0-5.3,2.9-9.4,8.6-9.4c4.1,0,7.5,2,7.9,6.3H40.4z"/>
	<path fill="#EE2E30" d="M62.3,56.8h-3.8v-2.4h-0.1c-0.9,1.8-3,2.9-5,2.9c-4.6,0-6.5-2.3-6.5-6.9V39.3h3.9V50c0,3.1,1.3,4.2,3.4,4.2
		c3.2,0,4.3-2.1,4.3-4.8V39.3h3.9V56.8z"/>
	<rect x="66.5" y="32.6" fill="#EE2E30" width="3.9" height="24.2"/>
	<path fill="#EE2E30" d="M72.8,39.3h2.9v-5.3h3.9v5.3H83v2.9h-3.5v9.3c0,1.6,0.1,2.4,1.9,2.4c0.5,0,1.1,0,1.6-0.1v3
		c-0.8,0.1-1.7,0.2-2.5,0.2c-4,0-4.8-1.6-4.8-4.5V42.2h-2.9V39.3z"/>
	<path fill="#EE2E30" d="M100.9,56.8h-3.8v-2.4H97c-0.9,1.8-3,2.9-5,2.9c-4.6,0-6.5-2.3-6.5-6.9V39.3h3.9V50c0,3.1,1.3,4.2,3.4,4.2
		c3.2,0,4.3-2.1,4.3-4.8V39.3h3.9V56.8z"/>
	<path fill="#EE2E30" d="M104.9,39.3h3.6v3.4h0.1c0.4-1.9,2.7-3.9,5.1-3.9c0.9,0,1.1,0.1,1.5,0.1v3.7c-0.5-0.1-1.1-0.2-1.7-0.2
		c-2.6,0-4.7,2.1-4.7,6v8.3h-3.9V39.3z"/>
	<path fill="#EE2E30" d="M132,52.9c0,1,0.2,1.3,0.9,1.3c0.2,0,0.5,0,0.9-0.1v2.7c-0.6,0.2-1.8,0.4-2.4,0.4c-1.6,0-2.7-0.5-3-2.1
		c-1.5,1.5-4,2.1-6.1,2.1c-3.2,0-6-1.7-6-5.1c0-4.4,3.5-5.1,6.7-5.5c2.8-0.5,5.2-0.2,5.2-2.5c0-2-2.1-2.4-3.6-2.4
		c-2.2,0-3.7,0.9-3.9,2.8H117c0.3-4.5,4.1-5.8,8-5.8c3.4,0,7,1.4,7,5.1V52.9z M128.2,48c-1.2,0.8-3.1,0.7-4.7,1.1
		c-1.7,0.3-3.2,0.9-3.2,2.9c0,1.7,2.2,2.2,3.6,2.2c1.7,0,4.3-0.9,4.3-3.3V48z"/>
	<rect x="136.3" y="32.6" fill="#EE2E30" width="3.9" height="24.2"/>
	<path fill="#EE2E30" d="M147.3,51.2c0.2,2.2,1.9,3,4,3c1.5,0,4-0.3,3.9-2.3c-0.1-2-2.9-2.3-5.7-2.9c-2.8-0.6-5.6-1.6-5.6-5.2
		c0-3.8,4.1-5,7.3-5c3.6,0,6.8,1.5,7.3,5.4h-4c-0.3-1.8-1.9-2.3-3.6-2.3c-1.1,0-3.2,0.3-3.2,1.8c0,1.9,2.8,2.2,5.7,2.8
		c2.8,0.6,5.7,1.7,5.7,5.1c0,4.2-4.2,5.7-7.8,5.7c-4.4,0-7.7-2-7.8-6.1H147.3z"/>
	<path fill="#EE2E30" d="M177.1,52.9c0,1,0.2,1.3,0.9,1.3c0.2,0,0.5,0,0.9-0.1v2.7c-0.6,0.2-1.8,0.4-2.4,0.4c-1.6,0-2.7-0.5-3-2.1
		c-1.5,1.5-4,2.1-6.1,2.1c-3.2,0-6-1.7-6-5.1c0-4.4,3.5-5.1,6.7-5.5c2.8-0.5,5.3-0.2,5.3-2.5c0-2-2.1-2.4-3.6-2.4
		c-2.2,0-3.7,0.9-3.9,2.8h-3.9c0.3-4.5,4.1-5.8,8-5.8c3.4,0,7,1.4,7,5.1V52.9z M173.2,48c-1.2,0.8-3.1,0.7-4.7,1.1
		c-1.7,0.3-3.2,0.9-3.2,2.9c0,1.7,2.2,2.2,3.6,2.2c1.7,0,4.3-0.9,4.3-3.3V48z"/>
	<path fill="#EE2E30" d="M181.6,39.3h3.7v2.6l0.1,0.1c1.2-1.9,3.2-3.1,5.5-3.1c3.8,0,6.2,2,6.2,6v12h-3.9v-11
		c-0.1-2.7-1.2-3.9-3.4-3.9c-2.6,0-4.2,2-4.2,4.6v10.3h-3.9V39.3z"/>
	<path fill="#EE2E30" d="M201,39.3h3.7v2.4h0.1c1.1-1.7,2.6-2.9,5.4-2.9c2.1,0,4.1,0.9,4.9,2.9c1.3-1.8,2.9-2.9,5.5-2.9
		c3.7,0,5.9,1.6,5.9,5.9v12.1h-3.9V46.6c0-2.8-0.2-4.7-3.2-4.7c-2.6,0-3.7,1.7-3.7,4.7v10.3h-3.9V45.6c0-2.4-0.7-3.7-3.1-3.7
		c-2,0-3.8,1.6-3.8,4.5v10.4H201V39.3z"/>
	<path fill="#EE2E30" d="M245.2,52.9c0,1,0.2,1.3,0.9,1.3c0.2,0,0.5,0,0.9-0.1v2.7c-0.6,0.2-1.8,0.4-2.4,0.4c-1.6,0-2.7-0.5-3-2.1
		c-1.5,1.5-4,2.1-6.1,2.1c-3.2,0-6-1.7-6-5.1c0-4.4,3.5-5.1,6.7-5.5c2.8-0.5,5.3-0.2,5.3-2.5c0-2-2.1-2.4-3.6-2.4
		c-2.2,0-3.7,0.9-3.9,2.8h-3.9c0.3-4.5,4.1-5.8,8-5.8c3.4,0,7,1.4,7,5.1V52.9z M241.3,48c-1.2,0.8-3.1,0.7-4.7,1.1
		c-1.7,0.3-3.2,0.9-3.2,2.9c0,1.7,2.2,2.2,3.6,2.2c1.7,0,4.3-0.9,4.3-3.3V48z"/>
	<path fill="#EE2E30" d="M249.7,39.3h3.6v3.4h0.1c0.4-1.9,2.7-3.9,5.1-3.9c0.9,0,1.1,0.1,1.5,0.1v3.7c-0.5-0.1-1.1-0.2-1.7-0.2
		c-2.6,0-4.7,2.1-4.7,6v8.3h-3.9V39.3z"/>
	<path fill="#EE2E30" d="M261.2,39.3h2.9v-5.3h3.9v5.3h3.5v2.9h-3.5v9.3c0,1.6,0.1,2.4,1.9,2.4c0.5,0,1.1,0,1.6-0.1v3
		c-0.8,0.1-1.7,0.2-2.5,0.2c-4,0-4.8-1.6-4.8-4.5V42.2h-2.9V39.3z"/>
	<path fill="#EE2E30" d="M276.7,32.1h4.6l-4.8,4.8h-2.8L276.7,32.1z M274.3,39.3h3.9v17.5h-3.9V39.3z"/>
	<path fill="#EE2E30" d="M282.4,39.3h3.7v2.6l0.1,0.1c1.2-1.9,3.1-3.1,5.5-3.1c3.8,0,6.2,2,6.2,6v12h-3.9v-11
		c-0.1-2.7-1.2-3.9-3.4-3.9c-2.6,0-4.2,2-4.2,4.6v10.3h-3.9V39.3z"/>
</g>
</svg>
