<?xml version="1.0" encoding="utf-8"?>
<!-- Generator: Adobe Illustrator 18.0.0, SVG Export Plug-In . SVG Version: 6.00 Build 0)  -->
<!DOCTYPE svg PUBLIC "-//W3C//DTD SVG 1.1//EN" "http://www.w3.org/Graphics/SVG/1.1/DTD/svg11.dtd">
<svg version="1.1" id="Layer_1" xmlns="http://www.w3.org/2000/svg" xmlns:xlink="http://www.w3.org/1999/xlink" x="0px" y="0px"
	 viewBox="0 0 748.5 130.7" enable-background="new 0 0 748.5 130.7" xml:space="preserve">
<g>
	<g>
		<path fill="#00BCD4" d="M747.7,129.7L1,130l39.4-64.4L1,1.2L747.7,1l-39.4,64.4L747.7,129.7z M21.2,117l706.4-0.2l-31.4-51.4
			L727.5,14L21.1,14.2l31.4,51.4L21.2,117z"/>
	</g>
	<g>
		<path fill="#00BCD4" d="M75.6,100.1l-0.1-70.4l22.7,0l0,8.5l-13.5,0l0,21.4l12,0l0,8.5l-12,0l0,23.4l13.5,0l0,8.5L75.6,100.1z"/>
		<path fill="#00BCD4" d="M122.3,48.6l0-6.2c0-2.8-1.3-4.2-4-4.2l-1.4,0c-2.6,0-3.9,1.4-3.9,4.2l0,11.7c0,1.3,0.3,2.2,0.8,2.6
			c0.5,0.5,1.3,1,2.5,1.8l8.7,4.8c1.9,1.1,3.3,2,4,2.6c0.8,0.6,1.4,1.4,1.9,2.3c0.4,0.9,0.7,2.6,0.7,5.1l0,15
			c0,7.9-3.7,11.9-11,11.9l-5.6,0c-7.3,0-11-4.3-11-12.9l0-3.5l9.1,0l0,3.8c0,2.7,1.4,4.1,4.1,4.1l1.6,0c2.4,0,3.6-1.4,3.6-4.1l0-12
			c0-1.3-0.3-2.2-0.8-2.6c-0.5-0.5-1.3-1-2.5-1.8l-8.7-5c-1.9-1-3.3-1.9-4.1-2.6c-0.9-0.7-1.5-1.6-1.9-2.8c-0.4-1.1-0.6-2.6-0.6-4.5
			l0-14.4c0-8,3.6-12.1,10.9-12.1l5.7,0c7.3,0,11,4,11,12.1l0,6.9L122.3,48.6z"/>
		<path fill="#00BCD4" d="M166.4,83.6l0,4.5c0,8-3.6,12-10.9,12l-5.9,0c-7.3,0-11-4-11-12l0-46.5c0-8,3.6-12,10.9-12l5.9,0
			c7.3,0,11,4,11,12l0,7.9l-9.1,0l0-7.3c0-2.7-1.4-4.1-4.1-4.1l-1.8,0c-2.4,0-3.6,1.4-3.6,4.1l0,45.1c0,2.7,1.2,4.1,3.6,4.1l2.3,0
			c2.4,0,3.6-1.4,3.6-4.1l0-3.8L166.4,83.6z"/>
		<path fill="#00BCD4" d="M203.2,29.6l0,57.1c0,8.9-3.7,13.3-11,13.4l-7.7,0c-7.3,0-11-4.5-11-13.4l0-57l9.1,0l0,57.3
			c0,3.1,1.3,4.6,4,4.6l3.7,0c2.5,0,3.7-1.5,3.7-4.6l0-57.3L203.2,29.6z"/>
		<path fill="#00BCD4" d="M211.9,100l-0.1-70.4l22.7,0l0,8.5l-13.5,0l0,21.4l12,0l0,8.5l-12,0l0,23.4l13.5,0l0,8.5L211.9,100z"/>
		<path fill="#00BCD4" d="M262.8,100l-21.7,0L241,29.5l9.1,0l0.1,61.9l12.6,0L262.8,100z"/>
		<path fill="#00BCD4" d="M276.7,99.9l-9.1,0l0-58.4c0-8,3.6-12.1,10.9-12.1l6.9,0c7.3,0,11,4,11,12.1l0,58.4l-9.1,0l0-25.8l-10.5,0
			L276.7,99.9z M287.2,65.6l0-23.4c0-2.7-1.3-4.1-4-4.1l-2.5,0c-2.7,0-4,1.4-4,4.1l0,23.4L287.2,65.6z"/>
		<path fill="#00BCD4" d="M304.4,99.9l-0.1-70.4l15.9,0c8.6,0,12.9,4.5,12.9,13.5l0,46.7c0,6.8-3.6,10.2-10.9,10.2L304.4,99.9z
			 M313.6,91.4l6.9,0c2.4,0,3.6-1,3.6-3.1l0-45.1c0-3.4-1.4-5.1-4.1-5.1l-6.4,0L313.6,91.4z"/>
		<path fill="#00BCD4" d="M341.3,99.9l-0.1-70.4l22.7,0l0,8.5l-13.5,0l0,21.4l12,0l0,8.5l-12,0l0,23.4l13.5,0l0,8.5L341.3,99.9z"/>
		<path fill="#00BCD4" d="M400.1,29.4l-11,70.4l-10.9,0l-11.1-70.4l9,0l7.5,53.7l7.4-53.8L400.1,29.4z"/>
		<path fill="#00BCD4" d="M405.3,29.4l17.9,0c7,0,10.5,4,10.5,12.1l0,17.4c0,6.1-1.8,10-5.4,11.7l6.4,29.3l-8.7,0l-6-28.4l-5.5,0
			l0,28.4l-9.1,0L405.3,29.4z M414.5,63.3l6,0c2.7,0,4.1-1.7,4.1-5.1l0-15.2c0-3.4-1.4-5.1-4.1-5.1l-6,0L414.5,63.3z"/>
		<path fill="#00BCD4" d="M451.9,99.8c-7.4,0-11.1-4-11.1-12l0-46.4c0-8,3.6-12.1,10.9-12.1l8.8,0c7.3,0,11,4,11,12.1l0,46.4
			c0,8-3.7,12-11,12L451.9,99.8z M454.1,91.3l4.7,0c2.4,0,3.6-1.4,3.6-4.1l0-45.1c0-2.7-1.4-4.1-4.1-4.1l-4.3,0c-2.7,0-4,1.4-4,4.1
			l0,45.1C450,89.9,451.4,91.3,454.1,91.3z"/>
		<path fill="#00BCD4" d="M507,83.3l0,4.5c0,8-3.6,12-10.9,12l-5.9,0c-7.3,0-11-4-11-12l0-46.5c0-8,3.6-12,10.9-12l5.9,0
			c7.3,0,11,4,11,12l0,7.9l-9.1,0l0-7.3c0-2.7-1.4-4.1-4.1-4.1l-1.8,0c-2.4,0-3.6,1.4-3.6,4.1l0,45.1c0,2.7,1.2,4.1,3.6,4.1l2.3,0
			c2.4,0,3.6-1.4,3.6-4.1l0-3.8L507,83.3z"/>
		<path fill="#00BCD4" d="M523.2,99.7l-9.1,0L514,29.3l9.1,0L523.2,99.7z M544.3,99.7l-9.1,0l-11.5-34.4v-0.6l9.5-35.4l8.4,0
			l-9.6,35L544.3,99.7z"/>
		<path fill="#00BCD4" d="M557.8,87.7l0,12l-9.7,0l0-12L557.8,87.7z"/>
		<path fill="#00BCD4" d="M592.3,83.2l0,4.5c0,8-3.6,12-10.9,12l-5.9,0c-7.3,0-11-4-11-12l0-46.5c0-8,3.6-12,10.9-12l5.9,0
			c7.3,0,11,4,11,12l0,7.9l-9.1,0l0-7.3c0-2.7-1.4-4.1-4.1-4.1l-1.8,0c-2.4,0-3.6,1.4-3.6,4.1l0,45.1c0,2.7,1.2,4.1,3.6,4.1l2.3,0
			c2.4,0,3.6-1.4,3.6-4.1l0-3.8L592.3,83.2z"/>
		<path fill="#00BCD4" d="M610,99.7c-7.4,0-11.1-4-11.1-12l0-46.4c0-8,3.6-12.1,10.9-12.1l8.8,0c7.3,0,11,4,11,12.1l0,46.4
			c0,8-3.7,12-11,12L610,99.7z M612.2,91.1l4.7,0c2.4,0,3.6-1.4,3.6-4.1l0-45.1c0-2.7-1.4-4.1-4.1-4.1l-4.3,0c-2.7,0-4,1.4-4,4.1
			l0,45.1C608.1,89.7,609.5,91.1,612.2,91.1z"/>
		<path fill="#00BCD4" d="M656.3,70.6l8.4-41.4l10.1,0l0.1,70.4l-9.1,0l0.9-46.1l-6.8,33.4l-7,0l-6.9-33.3l1,46.1l-9.1,0l-0.1-70.4
			l10.1,0L656.3,70.6z"/>
	</g>
</g>
</svg>
