<?xml version="1.0" encoding="utf-8"?>
<!-- Generator: Adobe Illustrator 18.0.0, SVG Export Plug-In . SVG Version: 6.00 Build 0)  -->
<!DOCTYPE svg PUBLIC "-//W3C//DTD SVG 1.1//EN" "http://www.w3.org/Graphics/SVG/1.1/DTD/svg11.dtd">
<svg version="1.1" id="Layer_4" xmlns="http://www.w3.org/2000/svg" xmlns:xlink="http://www.w3.org/1999/xlink" x="0px" y="0px"
	 viewBox="0 0 851.5 137" enable-background="new 0 0 851.5 137" xml:space="preserve">
<g>
	<g>
		<g>
			<defs>
				<rect id="SVGID_1_" x="-49" y="-28.7" width="192" height="192"/>
			</defs>
			<clipPath id="SVGID_2_">
				<use xlink:href="#SVGID_1_"  overflow="visible"/>
			</clipPath>
		</g>
	</g>
	<g id="XMLID_50_">
		<g id="XMLID_72_">
			<path fill="none" d="M85.4,61.3l-33.5-58H7l37,64l-37,64h44.8l33.5-58C87.5,69.6,87.5,65,85.4,61.3z"/>
			<polygon id="XMLID_80_" fill="#FFC107" points="66.2,105.5 55.5,87.2 30,131.3 51.8,131.3 66.4,106 			"/>
			<path fill="none" d="M85.4,61.3l-33.5-58H7l37,64l-37,64h44.8l33.5-58C87.5,69.6,87.5,65,85.4,61.3z"/>
			<polygon fill="#0F9D58" points="44,67.3 55.5,87.2 30,131.3 7,131.3 			"/>
			<path fill="none" d="M85.4,61.3l-33.5-58H7l37,64l-37,64h44.8l33.5-58C87.5,69.6,87.5,65,85.4,61.3z"/>
			<polygon opacity="0.2" fill="#BF360C" enable-background="new    " points="51.8,130.3 30.6,130.3 30,131.3 51.8,131.3 66.4,106 
				66.2,105.5 			"/>
			<path fill="none" d="M85.4,61.3l-33.5-58H7l37,64l-37,64h44.8l33.5-58C87.5,69.6,87.5,65,85.4,61.3z"/>
			<polygon opacity="0.2" fill="#263238" enable-background="new    " points="7.6,130.3 7,131.3 30,131.3 30.6,130.3 			"/>
			<path fill="none" d="M85.4,61.3l-33.5-58H7l37,64l-37,64h44.8l33.5-58C87.5,69.6,87.5,65,85.4,61.3z"/>
			<polygon opacity="0.2" fill="#FFFFFF" enable-background="new    " points="7,131.3 7.6,131.3 44.3,67.8 44,67.3 			"/>
			<path fill="none" d="M85.4,61.3l-33.5-58H7l37,64l-37,64h44.8l33.5-58C87.5,69.6,87.5,65,85.4,61.3z"/>
			
				<radialGradient id="XMLID_2_" cx="66.2766" cy="344.356" r="44.2635" gradientTransform="matrix(1 0 0 -1 0 450)" gradientUnits="userSpaceOnUse">
				<stop  offset="0" style="stop-color:#BF360C;stop-opacity:0.2"/>
				<stop  offset="1" style="stop-color:#BF360C;stop-opacity:2.000000e-02"/>
			</radialGradient>
			<polygon id="XMLID_79_" fill="url(#XMLID_2_)" points="66.4,106 66.4,106 55.5,87.2 52.8,91.8 			"/>
			<path fill="none" d="M85.4,61.3l-33.5-58H7l37,64l-37,64h44.8l33.5-58C87.5,69.6,87.5,65,85.4,61.3z"/>
			
				<radialGradient id="XMLID_3_" cx="66.1509" cy="344.0761" r="44.6228" gradientTransform="matrix(1 0 0 -1 0 450)" gradientUnits="userSpaceOnUse">
				<stop  offset="0" style="stop-color:#263238;stop-opacity:0.2"/>
				<stop  offset="1" style="stop-color:#263238;stop-opacity:2.000000e-02"/>
			</radialGradient>
			<polygon id="XMLID_78_" fill="url(#XMLID_3_)" points="52.8,91.8 55.5,87.2 44,67.3 38.5,76.8 			"/>
			<path fill="none" d="M85.4,61.3l-33.5-58H7l37,64l-37,64h44.8l33.5-58C87.5,69.6,87.5,65,85.4,61.3z"/>
			<g id="XMLID_75_">
				<g id="XMLID_76_">
					<polygon id="XMLID_77_" fill="#4285F4" points="30,3.3 7,3.3 66.4,106 77.9,86.2 77.9,86.2 					"/>
				</g>
			</g>
			<path fill="none" d="M85.4,61.3l-33.5-58H7l37,64l-37,64h44.8l33.5-58C87.5,69.6,87.5,65,85.4,61.3z"/>
			<path fill="#DB4437" d="M85.4,73.3c2.1-3.7,2.1-8.3,0-12l-33.5-58H30l47.9,82.9L85.4,73.3z"/>
			<path fill="none" d="M85.4,61.3l-33.5-58H7l37,64l-37,64h44.8l33.5-58C87.5,69.6,87.5,65,85.4,61.3z"/>
			<polygon opacity="0.2" fill="#1A237E" enable-background="new    " points="77.9,86.2 77.7,85.7 66.4,105 7.6,3.3 7,3.3 
				66.4,106 77.9,86.2 			"/>
			<path fill="none" d="M85.4,61.3l-33.5-58H7l37,64l-37,64h44.8l33.5-58C87.5,69.6,87.5,65,85.4,61.3z"/>
			<path opacity="0.2" fill="#FFFFFF" enable-background="new    " d="M51.8,4.3l33.5,58c1,1.7,1.5,3.6,1.6,5.5
				c0.1-2.2-0.4-4.5-1.6-6.5l-33.5-58H7l0.6,1H51.8z"/>
			<path fill="none" d="M85.4,61.3l-33.5-58H7l37,64l-37,64h44.8l33.5-58C87.5,69.6,87.5,65,85.4,61.3z"/>
			<path id="XMLID_74_" opacity="0.2" fill="#3E2723" enable-background="new    " d="M77.9,86.2l7.4-12.9c1.2-2,1.7-4.3,1.6-6.5
				c-0.1,1.9-0.6,3.8-1.6,5.5l-7.7,13.4L77.9,86.2z"/>
			<path fill="none" d="M85.4,61.3l-33.5-58H7l37,64l-37,64h44.8l33.5-58C87.5,69.6,87.5,65,85.4,61.3z"/>
			
				<radialGradient id="XMLID_4_" cx="6" cy="445.73" r="134.3503" gradientTransform="matrix(1 0 0 -1 0 450)" gradientUnits="userSpaceOnUse">
				<stop  offset="0" style="stop-color:#FFFFFF;stop-opacity:0.1"/>
				<stop  offset="1" style="stop-color:#FFFFFF;stop-opacity:0"/>
			</radialGradient>
			<path id="XMLID_73_" fill="url(#XMLID_4_)" d="M85.4,61.3l-33.5-58H7l37,64l-37,64h44.8l33.5-58C87.5,69.6,87.5,65,85.4,61.3z"/>
		</g>
	</g>
</g>
<g id="Layer_4_1_">
	<g id="XMLID_8_" opacity="0.54">
		<path id="XMLID_104_" d="M249.5,14.4h30.6c31.2,0,50.7,20.7,50.7,49.7c0,29.1-19.6,49.7-50.7,49.7h-30.6L249.5,14.4L249.5,14.4z
			 M280.6,98.8c21.7,0,35.1-12,35.1-34.6c0-22.5-13.4-34.6-35.1-34.6h-16.1v69.3H280.6z"/>
		<rect id="XMLID_103_" x="134.5" y="11.8" fill="none" width="307.2" height="108.4"/>
		<path id="XMLID_102_" d="M236.9,59.6h-47.7v14.8h33.6c-1.1,7.5-3.7,13.4-7.6,17.3c-5,5-12.8,10.5-26.4,10.5c-21,0-37.5-17-37.5-38
			s16.5-38,37.5-38c11.4,0,19.6,4.5,25.8,10.2l10.1-10.1c-8.5-8.2-19.9-14.4-35.9-14.4c-28.8,0-53.1,23.5-53.1,52.3
			c0,28.8,24.2,52.3,53.1,52.3c15.6,0,27.3-5.1,36.5-14.7c9.4-9.4,12.4-22.7,12.4-33.4C237.7,65,237.4,62.2,236.9,59.6z"/>
		<path id="XMLID_86_" d="M441.7,59.6H394v14.8h33.6c-1.1,7.5-3.7,13.4-7.6,17.3c-5,5-12.8,10.5-26.4,10.5c-21,0-37.5-17-37.5-38
			s16.5-38,37.5-38c11.3,0,19.7,4.5,25.8,10.2l10.1-10.1c-8.5-8.2-19.9-14.4-35.8-14.4c-28.8,0-53.1,23.5-53.1,52.3
			c0,28.8,24.2,52.3,53.1,52.3c15.6,0,27.3-5.1,36.5-14.7c9.4-9.4,12.4-22.7,12.4-33.4C442.5,65,442.2,62.2,441.7,59.6z"/>
	</g>
</g>
<g opacity="0.54">
	<path d="M514.3,73.3v44H502V11.5h29c13,0,22.6,2.5,28.8,7.4c6.2,5,9.3,12.4,9.3,22.4c0,14-7.1,23.4-21.3,28.4l28.7,47.5H562
		l-25.6-44H514.3z M514.3,62.7h16.9c8.7,0,15-1.7,19.1-5.2c4.1-3.4,6.1-8.6,6.1-15.5c0-7-2.1-12-6.2-15.1
		c-4.1-3.1-10.7-4.6-19.9-4.6h-16V62.7z"/>
	<path d="M678,63.4c0,17.5-4.7,30.8-14.2,40c-9.5,9.2-23.1,13.9-40.9,13.9h-29.3V11.5H626c16.4,0,29.2,4.6,38.3,13.7
		S678,47,678,63.4z M665,63.8c0-13.8-3.5-24.2-10.4-31.2c-6.9-7-17.2-10.5-30.8-10.5h-17.9v84.5h15c14.7,0,25.7-3.6,33.1-10.8
		C661.3,88.6,665,77.9,665,63.8z"/>
	<path d="M701.6,117.2V11.5h12.3v94.6h46.7v11.1H701.6z"/>
	<path d="M845.5,42.3c0,10.7-3.7,18.9-11,24.7c-7.3,5.8-17.8,8.6-31.4,8.6h-12.4v41.6h-12.3V11.5h27.4
		C832.3,11.5,845.5,21.8,845.5,42.3z M790.7,65.1h11.1c10.9,0,18.8-1.8,23.7-5.3c4.9-3.5,7.3-9.2,7.3-16.9c0-7-2.3-12.2-6.9-15.6
		c-4.6-3.4-11.7-5.1-21.4-5.1h-13.7V65.1z"/>
</g>
</svg>
