<?xml version="1.0" encoding="utf-8"?>
<!-- Generator: Adobe Illustrator 18.0.0, SVG Export Plug-In . SVG Version: 6.00 Build 0)  -->
<!DOCTYPE svg PUBLIC "-//W3C//DTD SVG 1.1//EN" "http://www.w3.org/Graphics/SVG/1.1/DTD/svg11.dtd">
<svg version="1.1" id="Layer_4" xmlns="http://www.w3.org/2000/svg" xmlns:xlink="http://www.w3.org/1999/xlink" x="0px" y="0px"
	 viewBox="127.9 161.3 435.5 69.3" enable-background="new 127.9 161.3 435.5 69.3" xml:space="preserve">
<g>
	<g id="XMLID_50_">
		<g id="XMLID_72_">
			<path fill="none" d="M170.1,192.7l-17.6-30.4h-23.5l19.4,33.6l-19.4,33.6h23.5l17.6-30.4C171.2,197,171.2,194.6,170.1,192.7z"/>
			<polygon id="XMLID_80_" fill="#FFC107" points="160,215.9 154.4,206.3 141,229.4 152.5,229.4 160.1,216.2 			"/>
			<path fill="none" d="M170.1,192.7l-17.6-30.4h-23.5l19.4,33.6l-19.4,33.6h23.5l17.6-30.4C171.2,197,171.2,194.6,170.1,192.7z"/>
			<polygon fill="#0F9D58" points="148.4,195.8 154.4,206.3 141,229.4 128.9,229.4 			"/>
			<path fill="none" d="M170.1,192.7l-17.6-30.4h-23.5l19.4,33.6l-19.4,33.6h23.5l17.6-30.4C171.2,197,171.2,194.6,170.1,192.7z"/>
			<polygon opacity="0.2" fill="#BF360C" enable-background="new    " points="152.5,228.9 141.3,228.9 141,229.4 152.5,229.4 
				160.1,216.2 160,215.9 			"/>
			<path fill="none" d="M170.1,192.7l-17.6-30.4h-23.5l19.4,33.6l-19.4,33.6h23.5l17.6-30.4C171.2,197,171.2,194.6,170.1,192.7z"/>
			<polygon opacity="0.2" fill="#263238" enable-background="new    " points="129.2,228.9 128.9,229.4 141,229.4 141.3,228.9 			
				"/>
			<path fill="none" d="M170.1,192.7l-17.6-30.4h-23.5l19.4,33.6l-19.4,33.6h23.5l17.6-30.4C171.2,197,171.2,194.6,170.1,192.7z"/>
			<polygon opacity="0.2" fill="#FFFFFF" enable-background="new    " points="128.9,229.4 129.2,229.4 148.5,196.1 148.4,195.8 			
				"/>
			<path fill="none" d="M170.1,192.7l-17.6-30.4h-23.5l19.4,33.6l-19.4,33.6h23.5l17.6-30.4C171.2,197,171.2,194.6,170.1,192.7z"/>
			
				<radialGradient id="XMLID_2_" cx="160.0324" cy="956.5184" r="23.2176" gradientTransform="matrix(1 0 0 1 0 -740.55)" gradientUnits="userSpaceOnUse">
				<stop  offset="0" style="stop-color:#BF360C;stop-opacity:0.2"/>
				<stop  offset="1" style="stop-color:#BF360C;stop-opacity:2.000000e-02"/>
			</radialGradient>
			<polygon id="XMLID_79_" fill="url(#XMLID_2_)" points="160.1,216.2 160.1,216.2 154.4,206.3 153,208.7 			"/>
			<path fill="none" d="M170.1,192.7l-17.6-30.4h-23.5l19.4,33.6l-19.4,33.6h23.5l17.6-30.4C171.2,197,171.2,194.6,170.1,192.7z"/>
			
				<radialGradient id="XMLID_3_" cx="159.9665" cy="956.6652" r="23.4061" gradientTransform="matrix(1 0 0 1 0 -740.55)" gradientUnits="userSpaceOnUse">
				<stop  offset="0" style="stop-color:#263238;stop-opacity:0.2"/>
				<stop  offset="1" style="stop-color:#263238;stop-opacity:2.000000e-02"/>
			</radialGradient>
			<polygon id="XMLID_78_" fill="url(#XMLID_3_)" points="153,208.7 154.4,206.3 148.4,195.8 145.5,200.8 			"/>
			<path fill="none" d="M170.1,192.7l-17.6-30.4h-23.5l19.4,33.6l-19.4,33.6h23.5l17.6-30.4C171.2,197,171.2,194.6,170.1,192.7z"/>
			<g id="XMLID_75_">
				<g id="XMLID_76_">
					<polygon id="XMLID_77_" fill="#4285F4" points="141,162.3 128.9,162.3 160.1,216.2 166.1,205.8 166.2,205.7 					"/>
				</g>
			</g>
			<path fill="none" d="M170.1,192.7l-17.6-30.4h-23.5l19.4,33.6l-19.4,33.6h23.5l17.6-30.4C171.2,197,171.2,194.6,170.1,192.7z"/>
			<path fill="#DB4437" d="M170.1,199c1.1-1.9,1.1-4.3,0-6.3l-17.6-30.4H141l25.1,43.5L170.1,199z"/>
			<path fill="none" d="M170.1,192.7l-17.6-30.4h-23.5l19.4,33.6l-19.4,33.6h23.5l17.6-30.4C171.2,197,171.2,194.6,170.1,192.7z"/>
			<polygon opacity="0.2" fill="#1A237E" enable-background="new    " points="166.2,205.7 166,205.5 160.1,215.7 129.2,162.3 
				128.9,162.3 160.1,216.2 166.1,205.8 			"/>
			<path fill="none" d="M170.1,192.7l-17.6-30.4h-23.5l19.4,33.6l-19.4,33.6h23.5l17.6-30.4C171.2,197,171.2,194.6,170.1,192.7z"/>
			<path opacity="0.2" fill="#FFFFFF" enable-background="new    " d="M152.5,162.8l17.6,30.4c0.5,0.9,0.8,1.9,0.8,2.9
				c0-1.2-0.2-2.4-0.8-3.4l-17.6-30.4h-23.5l0.3,0.5H152.5z"/>
			<path fill="none" d="M170.1,192.7l-17.6-30.4h-23.5l19.4,33.6l-19.4,33.6h23.5l17.6-30.4C171.2,197,171.2,194.6,170.1,192.7z"/>
			<path id="XMLID_74_" opacity="0.2" fill="#3E2723" enable-background="new    " d="M166.2,205.7l3.9-6.8c0.6-1,0.9-2.2,0.8-3.4
				c0,1-0.3,2-0.8,2.9l-4.1,7L166.2,205.7z"/>
			<path fill="none" d="M170.1,192.7l-17.6-30.4h-23.5l19.4,33.6l-19.4,33.6h23.5l17.6-30.4C171.2,197,171.2,194.6,170.1,192.7z"/>
			
				<radialGradient id="XMLID_4_" cx="128.4155" cy="903.3445" r="70.471" gradientTransform="matrix(1 0 0 1 0 -740.55)" gradientUnits="userSpaceOnUse">
				<stop  offset="0" style="stop-color:#FFFFFF;stop-opacity:0.1"/>
				<stop  offset="1" style="stop-color:#FFFFFF;stop-opacity:0"/>
			</radialGradient>
			<path id="XMLID_73_" fill="url(#XMLID_4_)" d="M170.1,192.7l-17.6-30.4h-23.5l19.4,33.6l-19.4,33.6h23.5l17.6-30.4
				C171.2,197,171.2,194.6,170.1,192.7z"/>
		</g>
	</g>
</g>
<g id="XMLID_8_" opacity="0.54">
	<path id="XMLID_104_" d="M256.1,168.1h16.1c16.3,0,26.6,10.8,26.6,26.1c0,15.3-10.3,26.1-26.6,26.1h-16.1V168.1L256.1,168.1z
		 M272.4,212.4c11.4,0,18.4-6.3,18.4-18.2c0-11.8-7-18.2-18.4-18.2H264v36.3H272.4z"/>
	<rect id="XMLID_103_" x="195.8" y="166.8" fill="none" width="161.2" height="56.9"/>
	<path id="XMLID_102_" d="M249.5,191.8h-25v7.7h17.6c-0.6,3.9-2,7-4,9.1c-2.6,2.6-6.7,5.5-13.9,5.5c-11,0-19.7-8.9-19.7-19.9
		c0-11,8.6-19.9,19.7-19.9c6,0,10.3,2.3,13.5,5.4l5.3-5.3c-4.5-4.3-10.4-7.6-18.8-7.6c-15.1,0-27.8,12.3-27.8,27.4
		c0,15.1,12.7,27.4,27.8,27.4c8.2,0,14.3-2.7,19.1-7.7c5-5,6.5-11.9,6.5-17.5C249.9,194.7,249.8,193.2,249.5,191.8z"/>
	<path id="XMLID_86_" d="M357,191.8h-25v7.7h17.6c-0.6,3.9-2,7-4,9.1c-2.6,2.6-6.7,5.5-13.9,5.5c-11,0-19.7-8.9-19.7-19.9
		c0-11,8.6-19.9,19.7-19.9c6,0,10.3,2.3,13.5,5.4l5.3-5.3c-4.5-4.3-10.4-7.6-18.8-7.6c-15.1,0-27.8,12.3-27.8,27.4
		c0,15.1,12.7,27.4,27.8,27.4c8.2,0,14.3-2.7,19.1-7.7c5-5,6.5-11.9,6.5-17.5C357.4,194.7,357.2,193.2,357,191.8z"/>
</g>
<text transform="matrix(1 0 0 1 370.9941 221.7341)" opacity="0.54" font-family="'OpenSans'" font-size="76.9812">RDLP</text>
</svg>
