<?xml version="1.0" encoding="utf-8"?>
<!-- Generator: Adobe Illustrator 18.0.0, SVG Export Plug-In . SVG Version: 6.00 Build 0)  -->
<!DOCTYPE svg PUBLIC "-//W3C//DTD SVG 1.1//EN" "http://www.w3.org/Graphics/SVG/1.1/DTD/svg11.dtd">
<svg version="1.1" id="Layer_4" xmlns="http://www.w3.org/2000/svg" xmlns:xlink="http://www.w3.org/1999/xlink" x="0px" y="0px"
	 viewBox="127.9 161.3 435.5 128" enable-background="new 127.9 161.3 435.5 128" xml:space="preserve">
<g>
	<g id="XMLID_50_">
		<g id="XMLID_72_">
			<path fill="none" d="M206.3,219.3l-33.5-58h-44.8l37,64l-37,64h44.9l33.5-58C208.5,227.6,208.5,223,206.3,219.3z"/>
			<polygon id="XMLID_80_" fill="#FFC107" points="187.1,263.5 176.5,245.1 150.9,289.3 172.8,289.3 187.4,264 			"/>
			<path fill="none" d="M206.3,219.3l-33.5-58h-44.8l37,64l-37,64h44.9l33.5-58C208.5,227.6,208.5,223,206.3,219.3z"/>
			<polygon fill="#0F9D58" points="165,225.3 176.5,245.1 150.9,289.3 127.9,289.3 			"/>
			<path fill="none" d="M206.3,219.3l-33.5-58h-44.8l37,64l-37,64h44.9l33.5-58C208.5,227.6,208.5,223,206.3,219.3z"/>
			<polygon opacity="0.2" fill="#BF360C" enable-background="new    " points="172.8,288.3 151.5,288.3 150.9,289.3 172.8,289.3 
				187.4,264 187.1,263.5 			"/>
			<path fill="none" d="M206.3,219.3l-33.5-58h-44.8l37,64l-37,64h44.9l33.5-58C208.5,227.6,208.5,223,206.3,219.3z"/>
			<polygon opacity="0.2" fill="#263238" enable-background="new    " points="128.5,288.3 127.9,289.3 150.9,289.3 151.5,288.3 			
				"/>
			<path fill="none" d="M206.3,219.3l-33.5-58h-44.8l37,64l-37,64h44.9l33.5-58C208.5,227.6,208.5,223,206.3,219.3z"/>
			<polygon opacity="0.2" fill="#FFFFFF" enable-background="new    " points="127.9,289.3 128.5,289.3 165.2,225.8 165,225.3 			
				"/>
			<path fill="none" d="M206.3,219.3l-33.5-58h-44.8l37,64l-37,64h44.9l33.5-58C208.5,227.6,208.5,223,206.3,219.3z"/>
			
				<radialGradient id="XMLID_2_" cx="187.2166" cy="1004.194" r="44.2635" gradientTransform="matrix(1 0 0 1 0 -740.55)" gradientUnits="userSpaceOnUse">
				<stop  offset="0" style="stop-color:#BF360C;stop-opacity:0.2"/>
				<stop  offset="1" style="stop-color:#BF360C;stop-opacity:2.000000e-02"/>
			</radialGradient>
			<polygon id="XMLID_79_" fill="url(#XMLID_2_)" points="187.4,264 187.4,264 176.5,245.1 173.8,249.8 			"/>
			<path fill="none" d="M206.3,219.3l-33.5-58h-44.8l37,64l-37,64h44.9l33.5-58C208.5,227.6,208.5,223,206.3,219.3z"/>
			
				<radialGradient id="XMLID_3_" cx="187.0909" cy="1004.4739" r="44.6228" gradientTransform="matrix(1 0 0 1 0 -740.55)" gradientUnits="userSpaceOnUse">
				<stop  offset="0" style="stop-color:#263238;stop-opacity:0.2"/>
				<stop  offset="1" style="stop-color:#263238;stop-opacity:2.000000e-02"/>
			</radialGradient>
			<polygon id="XMLID_78_" fill="url(#XMLID_3_)" points="173.8,249.8 176.5,245.1 165,225.3 159.5,234.8 			"/>
			<path fill="none" d="M206.3,219.3l-33.5-58h-44.8l37,64l-37,64h44.9l33.5-58C208.5,227.6,208.5,223,206.3,219.3z"/>
			<g id="XMLID_75_">
				<g id="XMLID_76_">
					<polygon id="XMLID_77_" fill="#4285F4" points="150.9,161.3 127.9,161.3 187.4,264 198.9,244.2 198.9,244.1 					"/>
				</g>
			</g>
			<path fill="none" d="M206.3,219.3l-33.5-58h-44.8l37,64l-37,64h44.9l33.5-58C208.5,227.6,208.5,223,206.3,219.3z"/>
			<path fill="#DB4437" d="M206.3,231.3c2.1-3.7,2.1-8.3,0-12l-33.5-58h-21.9l47.9,82.9L206.3,231.3z"/>
			<path fill="none" d="M206.3,219.3l-33.5-58h-44.8l37,64l-37,64h44.9l33.5-58C208.5,227.6,208.5,223,206.3,219.3z"/>
			<polygon opacity="0.2" fill="#1A237E" enable-background="new    " points="198.9,244.1 198.6,243.7 187.4,263 128.5,161.3 
				127.9,161.3 187.4,264 198.9,244.2 			"/>
			<path fill="none" d="M206.3,219.3l-33.5-58h-44.8l37,64l-37,64h44.9l33.5-58C208.5,227.6,208.5,223,206.3,219.3z"/>
			<path opacity="0.2" fill="#FFFFFF" enable-background="new    " d="M172.8,162.3l33.5,58c1,1.7,1.5,3.6,1.6,5.5
				c0.1-2.2-0.4-4.5-1.6-6.5l-33.5-58h-44.8l0.6,1H172.8z"/>
			<path fill="none" d="M206.3,219.3l-33.5-58h-44.8l37,64l-37,64h44.9l33.5-58C208.5,227.6,208.5,223,206.3,219.3z"/>
			<path id="XMLID_74_" opacity="0.2" fill="#3E2723" enable-background="new    " d="M198.9,244.1l7.4-12.9c1.2-2,1.7-4.3,1.6-6.5
				c-0.1,1.9-0.6,3.8-1.6,5.5l-7.7,13.4L198.9,244.1z"/>
			<path fill="none" d="M206.3,219.3l-33.5-58h-44.8l37,64l-37,64h44.9l33.5-58C208.5,227.6,208.5,223,206.3,219.3z"/>
			
				<radialGradient id="XMLID_4_" cx="126.94" cy="902.8199" r="134.3503" gradientTransform="matrix(1 0 0 1 0 -740.55)" gradientUnits="userSpaceOnUse">
				<stop  offset="0" style="stop-color:#FFFFFF;stop-opacity:0.1"/>
				<stop  offset="1" style="stop-color:#FFFFFF;stop-opacity:0"/>
			</radialGradient>
			<path id="XMLID_73_" fill="url(#XMLID_4_)" d="M206.3,219.3l-33.5-58h-44.8l37,64l-37,64h44.9l33.5-58
				C208.5,227.6,208.5,223,206.3,219.3z"/>
		</g>
	</g>
</g>
<g id="XMLID_8_" opacity="0.54">
	<path id="XMLID_104_" d="M370.4,172.4H401c31.2,0,50.7,20.7,50.7,49.7c0,29.1-19.6,49.7-50.7,49.7h-30.6V172.4L370.4,172.4z
		 M401.5,256.8c21.7,0,35.1-12,35.1-34.6c0-22.5-13.4-34.6-35.1-34.6h-16.1v69.3H401.5z"/>
	<rect id="XMLID_103_" x="255.4" y="169.8" fill="none" width="307.2" height="108.4"/>
	<path id="XMLID_102_" d="M357.8,217.6h-47.7v14.8h33.6c-1.1,7.5-3.7,13.4-7.6,17.3c-5,5-12.8,10.5-26.4,10.5c-21,0-37.5-17-37.5-38
		s16.5-38,37.5-38c11.4,0,19.6,4.5,25.8,10.2l10.1-10.1c-8.5-8.2-19.9-14.4-35.9-14.4c-28.8,0-53.1,23.5-53.1,52.3
		c0,28.8,24.2,52.3,53.1,52.3c15.6,0,27.3-5.1,36.5-14.7c9.4-9.4,12.4-22.7,12.4-33.4C358.6,223,358.3,220.2,357.8,217.6z"/>
	<path id="XMLID_86_" d="M562.7,217.6H515v14.8h33.6c-1.1,7.5-3.7,13.4-7.6,17.3c-5,5-12.8,10.5-26.4,10.5c-21,0-37.5-17-37.5-38
		s16.5-38,37.5-38c11.3,0,19.7,4.5,25.8,10.2l10.1-10.1c-8.5-8.2-19.9-14.4-35.8-14.4c-28.8,0-53.1,23.5-53.1,52.3
		c0,28.8,24.2,52.3,53.1,52.3c15.6,0,27.3-5.1,36.5-14.7c9.4-9.4,12.4-22.7,12.4-33.4C563.4,223,563.2,220.2,562.7,217.6z"/>
</g>
</svg>
