<?xml version="1.0" encoding="UTF-8" standalone="no"?>
<svg width="697px" height="160px" viewBox="0 0 697 160" version="1.1" xmlns="http://www.w3.org/2000/svg" xmlns:xlink="http://www.w3.org/1999/xlink">
    <!-- Generator: Sketch 3.8.2 (29753) - http://www.bohemiancoding.com/sketch -->
    <title>Group</title>
    <desc>Created with Sketch.</desc>
    <defs></defs>
    <g id="Guía-de-Branding" stroke="none" stroke-width="1" fill="none" fill-rule="evenodd">
        <g id="Group">
            <path d="M655.504157,31.38322 L630.97808,31.38322 L590.343159,128.61678 L616.030234,128.61678 L622.851096,110.911565 L663.776266,110.911565 L670.597128,128.61678 L696.139078,128.61678 L655.504157,31.38322 Z M630.97808,90.3038549 L643.313681,58.3764172 L655.794407,90.3038549 L630.97808,90.3038549 Z" id="A" fill="#624FD8"></path>
            <polygon id="H" fill="#624FD8" points="561.608466 31.38322 561.608466 69.260771 520.683296 69.260771 520.683296 31.38322 496.737717 31.38322 496.737717 128.61678 520.683296 128.61678 520.683296 90.1587302 561.608466 90.1587302 561.608466 128.61678 585.408919 128.61678 585.408919 31.38322"></polygon>
            <path d="M347.936508,160 C392.119288,160 427.936508,124.18278 427.936508,80 C427.936508,35.81722 392.119288,0 347.936508,0 C303.753728,0 267.936508,35.81722 267.936508,80 C267.936508,124.18278 303.753728,160 347.936508,160 L347.936508,160 Z M347.936508,154.920635 C306.558984,154.920635 273.015873,121.377524 273.015873,80 C273.015873,38.6224759 306.558984,5.07936508 347.936508,5.07936508 C389.314032,5.07936508 422.857143,38.6224759 422.857143,80 C422.857143,121.377524 389.314032,154.920635 347.936508,154.920635 L347.936508,154.920635 Z" id="Circle" fill="#FF1B70"></path>
            <path d="M349.206349,146.031746 C385.674676,146.031746 415.238095,116.468326 415.238095,80 C415.238095,43.5316737 385.674676,13.968254 349.206349,13.968254 C312.738023,13.968254 283.174603,43.5316737 283.174603,80 C283.174603,116.468326 312.738023,146.031746 349.206349,146.031746 L349.206349,146.031746 Z M349.206349,140.952381 C315.543279,140.952381 288.253968,113.66307 288.253968,80 C288.253968,46.3369295 315.543279,19.047619 349.206349,19.047619 C382.86942,19.047619 410.15873,46.3369295 410.15873,80 C410.15873,113.66307 382.86942,140.952381 349.206349,140.952381 L349.206349,140.952381 Z" id="Circle" fill="#FF1B70"></path>
            <path d="M385.668934,44.0090703 C375.655329,34.1405896 363.464853,29.2063492 348.952381,29.2063492 C334.439909,29.2063492 322.104308,34.1405896 312.090703,44.0090703 C302.077098,53.877551 297.142857,65.9229025 297.142857,80.1451247 C297.142857,94.2222222 302.077098,106.267574 312.090703,116.136054 C322.104308,125.85941 334.439909,130.793651 348.952381,130.793651 C363.464853,130.793651 375.655329,125.85941 385.668934,116.136054 C395.68254,106.267574 400.761905,94.2222222 400.761905,80.1451247 C400.761905,65.9229025 395.68254,53.877551 385.668934,44.0090703 Z M376.816327,80.1451247 C376.816327,88.4172336 374.204082,95.2380952 368.834467,100.752834 C363.464853,106.122449 356.93424,108.879819 348.952381,108.879819 C340.970522,108.879819 334.439909,106.122449 329.070295,100.752834 C323.70068,95.2380952 321.088435,88.4172336 321.088435,80.1451247 C321.088435,71.8730159 323.70068,64.9070295 329.070295,59.3922902 C334.439909,53.877551 340.970522,51.1201814 348.952381,51.1201814 C356.93424,51.1201814 363.464853,53.877551 368.834467,59.3922902 C374.204082,64.9070295 376.816327,71.8730159 376.816327,80.1451247 Z" id="O" fill="#FF1B70"></path>
            <path d="M447.201814,29.2063492 C435.736961,29.2063492 426.44898,31.9637188 419.337868,37.478458 C412.226757,42.9931973 408.743764,50.3945578 408.743764,59.8276644 C408.743764,74.6303855 417.451247,84.0634921 434.866213,87.9818594 L455.183673,92.3356009 C462.004535,93.6417234 464.181406,96.2539683 464.181406,100.897959 C464.181406,106.848073 458.666667,110.911565 449.814059,110.911565 C439.365079,110.911565 432.979592,106.122449 430.657596,96.5442177 L405.986395,101.333333 C407.292517,110.621315 411.791383,117.877551 419.628118,123.102041 C427.609977,128.181406 437.188209,130.793651 448.507937,130.793651 C459.972789,130.793651 469.405896,128.036281 477.097506,122.521542 C484.789116,117.006803 488.562358,109.315193 488.562358,99.3015873 C488.562358,84.3537415 479.709751,74.9206349 461.85941,71.0022676 L441.687075,66.5034014 C436.462585,65.3424036 433.85034,62.585034 433.85034,58.3764172 C433.85034,52.7165533 439.219955,48.5079365 446.911565,48.5079365 C455.038549,48.5079365 462.14966,53.4421769 463.891156,62.1496599 L487.401361,57.3605442 C483.773243,39.8004535 468.535147,29.2063492 447.201814,29.2063492 L447.201814,29.2063492 Z" id="S" fill="#624FD8"></path>
            <polygon id="N" fill="#624FD8" points="264.151172 31.38322 264.151172 89.4331066 214.953893 31.38322 195.071807 31.38322 195.071807 128.61678 219.017385 128.61678 219.017385 72.30839 268.214664 128.61678 287.951625 128.61678 287.951625 31.38322"></polygon>
            <polygon id="E" fill="#624FD8" points="134.421769 108.00907 134.421769 89.723356 181.587302 89.723356 181.587302 70.276644 134.421769 70.276644 134.421769 51.9909297 185.795918 51.9909297 185.795918 31.38322 110.47619 31.38322 110.47619 128.61678 186.231293 128.61678 186.231293 108.00907"></polygon>
            <path d="M48.61678,91.6099773 L78.3673469,91.6099773 C74.739229,102.494331 65.3061224,109.024943 52.6802721,109.024943 C44.553288,109.024943 37.7324263,106.267574 32.2176871,100.752834 C26.8480726,95.0929705 24.0907029,88.2721088 24.0907029,80 C24.0907029,71.7278912 26.7029478,64.9070295 32.0725624,59.3922902 C37.4421769,53.877551 43.9727891,51.1201814 51.9546485,51.1201814 C63.4195011,51.1201814 71.5464853,55.7641723 76.3356009,65.0521542 L99.4104308,58.3764172 C96.0725624,49.0884354 90.122449,41.9773243 81.5600907,36.8979592 C72.9977324,31.8185941 63.1292517,29.2063492 51.9546485,29.2063492 C37.2970522,29.2063492 24.9614512,34.1405896 14.9478458,44.0090703 C4.93424036,53.7324263 0,65.7777778 0,80 C0,94.3673469 5.07936508,106.412698 15.0929705,116.136054 C25.2517007,125.85941 37.7324263,130.793651 52.3900227,130.793651 C67.047619,130.793651 79.0929705,126.004535 88.5260771,116.571429 C97.9591837,106.993197 102.748299,94.8027211 102.748299,80.1451247 C102.748299,77.3877551 102.603175,74.3401361 102.1678,71.292517 L48.61678,71.292517 L48.61678,91.6099773 Z" id="G" fill="#624FD8"></path>
        </g>
    </g>
</svg>