<?xml version="1.0" encoding="utf-8"?>
<!-- Generator: Adobe Illustrator 18.0.0, SVG Export Plug-In . SVG Version: 6.00 Build 0)  -->
<!DOCTYPE svg PUBLIC "-//W3C//DTD SVG 1.1//EN" "http://www.w3.org/Graphics/SVG/1.1/DTD/svg11.dtd">
<svg version="1.1" id="content" xmlns="http://www.w3.org/2000/svg" xmlns:xlink="http://www.w3.org/1999/xlink" x="0px" y="0px"
	 viewBox="0 0 1300 192" enable-background="new 0 0 1300 192" xml:space="preserve">
<path id="XMLID_1_" fill="#999999" d="M680.5,52.3h28c28.5,0,46.5,19.1,46.5,45.8c0,26.9-17.9,45.8-46.5,45.8h-28V52.3z
	 M708.5,132.7c21,0,34.4-12.5,34.4-34.6c0-21.9-13.4-34.6-34.4-34.6h-16.3v69.1H708.5z M761.4,112.6c0-17.8,12.3-33.4,30.7-33.4
	c18.7,0,30.7,13.2,30.7,33.4c0,0.9-0.1,2.2-0.1,2.2h-49.5c0.6,13.3,10.2,20.5,20,20.5c6.9,0,13.8-2.8,17.2-10.8l10.5,4.4
	c-3.7,9-12.9,17.1-27.4,17.1C774.2,146,761.4,131.6,761.4,112.6z M791.9,90c-8.7,0-15.6,5.9-17.9,15.1h36.3
	C809.9,99.6,805.3,90,791.9,90z M826.9,81.3h12.8l18.4,48.6h0.3l18.7-48.6h12.5L864,144h-11.8L826.9,81.3z M890.5,112.6
	c0-17.8,12.3-33.4,30.7-33.4c18.7,0,30.7,13.2,30.7,33.4c0,0.9-0.1,2.2-0.1,2.2h-49.5c0.6,13.3,10.2,20.5,20,20.5
	c6.9,0,13.8-2.8,17.2-10.8l10.5,4.4c-3.7,9-12.9,17.1-27.4,17.1C903.3,146,890.5,131.6,890.5,112.6z M921,90
	c-8.7,0-15.6,5.9-17.9,15.1h36.3C939.1,99.6,934.5,90,921,90z M961.5,144V52.3h11.8V144H961.5z M1047.2,112.6
	c0,19.1-13.4,33.4-32.3,33.4c-18.8,0-32.3-14.3-32.3-33.4s13.4-33.4,32.3-33.4C1033.8,79.2,1047.2,93.6,1047.2,112.6z M1035.4,112.6
	c0-14.3-10-22.7-20.5-22.7s-20.5,8.3-20.5,22.7s10,22.7,20.5,22.7S1035.4,127,1035.4,112.6z M1067.9,135.3h-0.5l0.5,8.7v27.6h-11.8
	V81.3h11.3V90h0.5c3.6-5.8,11.4-10.8,21.4-10.8c15.9,0,29.8,14.2,29.8,33.4s-13.9,33.4-29.8,33.4
	C1079.3,146,1071.5,141.1,1067.9,135.3z M1107.4,112.6c0-14.1-9.5-22.7-20-22.7s-20,8.3-20,22.7s9.5,22.7,20,22.7
	S1107.4,126.7,1107.4,112.6z M1125.7,112.6c0-17.8,12.3-33.4,30.7-33.4c18.7,0,30.7,13.2,30.7,33.4c0,0.9-0.1,2.2-0.1,2.2h-49.5
	c0.6,13.3,10.2,20.5,20,20.5c6.9,0,13.8-2.8,17.2-10.8l10.5,4.4c-3.7,9-12.9,17.1-27.4,17.1C1138.5,146,1125.7,131.6,1125.7,112.6z
	 M1156.1,90c-8.7,0-15.6,5.9-17.9,15.1h36.3C1174.2,99.6,1169.6,90,1156.1,90z M1196.6,144V81.3h11.3v10.2h0.5
	c2.6-7.2,11.7-11.8,18.2-11.8c3.8,0,6.4,0.5,8.8,1.5l-4.5,11c-1.7-0.6-3.7-0.9-6.3-0.9c-8.1,0-16.3,6.8-16.3,18.3V144H1196.6z
	 M1239,128.1l10.5-4.3c3.3,7.9,9.5,11.8,17,11.8c7.3,0,12.5-3.6,12.5-8.8c0-3.2-1.9-6.7-8.6-8.3l-12.7-3.1
	c-5.8-1.4-16.8-6.4-16.8-17.4c0-11.4,11.8-18.7,24.8-18.7c10.9,0,20.3,5,24.2,14.6l-10.2,4.2c-2.4-5.9-8.2-8.3-14.3-8.3
	c-6.7,0-12.4,2.9-12.4,8.1c0,4,3.3,6.1,8.3,7.3l12.4,2.9c12.4,2.9,17.3,10.6,17.3,18.3c0,11.1-10,19.7-24.7,19.7
	C1251.2,146,1242.7,137.1,1239,128.1z M286.5,146c15.6,0,27.4-5.1,36.6-14.7c9.5-9.5,12.4-22.8,12.4-33.5c0-3.3-0.3-6.4-0.8-9h-48.3
	v14.3h34.3c-1,8.1-3.7,13.9-7.8,18.1c-5,5-12.8,10.5-26.5,10.5c-21.1,0-37.6-17-37.6-38.2c0-21.1,16.5-38.2,37.6-38.2
	c11.4,0,19.7,4.5,25.9,10.2l10.1-10.1c-8.6-8.2-20-14.5-36-14.5c-28.9,0-53.2,23.6-53.2,52.5S257.5,146,286.5,146z M374.5,78.5
	c-18.7,0-33.9,14.2-33.9,33.8c0,19.5,15.2,33.8,33.9,33.8c18.7,0,33.9-14.3,33.9-33.8C408.4,92.7,393.2,78.5,374.5,78.5z
	 M374.5,132.7c-10.2,0-19.1-8.4-19.1-20.5c0-12.2,8.8-20.5,19.1-20.5c10.2,0,19.1,8.3,19.1,20.5
	C393.6,124.3,384.7,132.7,374.5,132.7z M448.5,78.5c-18.7,0-33.9,14.2-33.9,33.8c0,19.5,15.2,33.8,33.9,33.8
	c18.7,0,33.9-14.3,33.9-33.8C482.4,92.7,467.2,78.5,448.5,78.5z M448.5,132.7c-10.2,0-19.1-8.4-19.1-20.5c0-12.2,8.8-20.5,19.1-20.5
	s19.1,8.3,19.1,20.5C467.6,124.3,458.7,132.7,448.5,132.7z M539.3,80.5V86h-0.5c-3.3-4-9.7-7.6-17.8-7.6
	c-16.9,0-32.4,14.8-32.4,33.9c0,19,15.5,33.7,32.4,33.7c8.1,0,14.5-3.6,17.8-7.7h0.5v4.9c0,12.9-6.9,19.8-18,19.8
	c-9.1,0-14.7-6.5-17-12l-12.9,5.4c3.7,9,13.6,20,29.9,20c17.4,0,32.1-10.2,32.1-35.2V80.5H539.3z M522.3,132.7
	c-10.2,0-18.8-8.6-18.8-20.3c0-11.9,8.6-20.6,18.8-20.6c10.1,0,18,8.7,18,20.6C540.3,124.2,532.4,132.7,522.3,132.7z M578.5,44.7
	h-14.8V144h14.8V44.7z M619.2,132.7c-7.5,0-12.9-3.5-16.4-10.2l45.2-18.7l-1.5-3.8c-2.8-7.6-11.4-21.5-28.9-21.5
	c-17.4,0-31.9,13.7-31.9,33.8c0,18.9,14.3,33.8,33.5,33.8c15.5,0,24.5-9.5,28.2-15l-11.5-7.7C632,129,626.8,132.7,619.2,132.7z
	 M618,91.5c5.9,0,10.9,2.9,12.5,7.2l-30.2,12.5C600,98.2,610.5,91.5,618,91.5z"/>
<g id="XMLID_30_">
	<g>
		<defs>
			<path id="SVGID_1_" d="M84.9,32H43.1L9.6,90c-2.1,3.7-2.1,8.3,0,12l33.5,58h41.8L48,96L84.9,32z"/>
		</defs>
		<clipPath id="SVGID_2_">
			<use xlink:href="#SVGID_1_"  overflow="visible"/>
		</clipPath>
		<polygon id="XMLID_50_" clip-path="url(#SVGID_2_)" fill="#DB4437" points="48,96 84.9,32 43.1,32 27.1,59.7 		"/>
	</g>
	<g>
		<defs>
			<path id="SVGID_3_" d="M84.9,32H43.1L9.6,90c-2.1,3.7-2.1,8.3,0,12l33.5,58h41.8L48,96L84.9,32z"/>
		</defs>
		<clipPath id="SVGID_4_">
			<use xlink:href="#SVGID_3_"  overflow="visible"/>
		</clipPath>
		<g id="XMLID_40_" clip-path="url(#SVGID_4_)">
			
				<image overflow="visible" opacity="0.2" enable-background="new    " width="101" height="125" id="XMLID_104_" xlink:href="2FB23A00BDC3228F.png"  transform="matrix(1 0 0 1 0 50.9999)">
			</image>
			<g id="XMLID_95_">
				<path id="XMLID_103_" fill="#4285F4" d="M9.6,90c-2.1,3.7-2.1,8.3,0,12l33.5,58h41.8L27.1,59.7L9.6,90z"/>
			</g>
		</g>
	</g>
	<g>
		<defs>
			<path id="SVGID_5_" d="M84.9,32H43.1L9.6,90c-2.1,3.7-2.1,8.3,0,12l33.5,58h41.8L48,96L84.9,32z"/>
		</defs>
		<clipPath id="SVGID_6_">
			<use xlink:href="#SVGID_5_"  overflow="visible"/>
		</clipPath>
		<path id="XMLID_39_" opacity="0.2" clip-path="url(#SVGID_6_)" fill="#1A237E" enable-background="new    " d="M9.6,101
			c-1-1.7-1.5-3.6-1.6-5.5c-0.1,2.2,0.4,4.5,1.6,6.5l33.5,58h41.8l-0.6-1H43.1L9.6,101z"/>
	</g>
	<g>
		<defs>
			<path id="SVGID_7_" d="M84.9,32H43.1L9.6,90c-2.1,3.7-2.1,8.3,0,12l33.5,58h41.8L48,96L84.9,32z"/>
		</defs>
		<clipPath id="SVGID_8_">
			<use xlink:href="#SVGID_7_"  overflow="visible"/>
		</clipPath>
		<g id="XMLID_31_" clip-path="url(#SVGID_8_)">
			<polygon id="XMLID_34_" opacity="0.2" fill="#FFFFFF" enable-background="new    " points="43.1,32 27.1,59.7 27.4,60.2 43.1,33 
				84.3,33 84.9,32 			"/>
		</g>
	</g>
	<g>
		<defs>
			<path id="SVGID_9_" d="M84.9,32H43.1L9.6,90c-2.1,3.7-2.1,8.3,0,12l33.5,58h41.8L48,96L84.9,32z"/>
		</defs>
		<clipPath id="SVGID_10_">
			<use xlink:href="#SVGID_9_"  overflow="visible"/>
		</clipPath>
		<polygon id="XMLID_38_" opacity="0.2" clip-path="url(#SVGID_10_)" fill="#3E2723" enable-background="new    " points="48,96 
			84.9,32 84.3,32 47.7,95.5 		"/>
	</g>
	<g>
		<defs>
			<path id="SVGID_11_" d="M84.9,32H43.1L9.6,90c-2.1,3.7-2.1,8.3,0,12l33.5,58h41.8L48,96L84.9,32z"/>
		</defs>
		<clipPath id="SVGID_12_">
			<use xlink:href="#SVGID_11_"  overflow="visible"/>
		</clipPath>
		<path id="XMLID_33_" opacity="0.2" clip-path="url(#SVGID_12_)" fill="#FFFFFF" enable-background="new    " d="M9.6,91l17.5-30.3
			L84.3,160h0.6L27.1,59.7L9.6,90c-1.2,2-1.7,4.3-1.6,6.5C8.1,94.6,8.6,92.7,9.6,91z"/>
	</g>
	<g>
		<defs>
			<path id="SVGID_13_" d="M84.9,32H43.1L9.6,90c-2.1,3.7-2.1,8.3,0,12l33.5,58h41.8L48,96L84.9,32z"/>
		</defs>
		<clipPath id="SVGID_14_">
			<use xlink:href="#SVGID_13_"  overflow="visible"/>
		</clipPath>
		
			<radialGradient id="XMLID_3_" cx="3043.585" cy="2319.05" r="41.1383" gradientTransform="matrix(-1 0 0 1 3070.9185 -2258.55)" gradientUnits="userSpaceOnUse">
			<stop  offset="0" style="stop-color:#3E2723;stop-opacity:0.2"/>
			<stop  offset="1" style="stop-color:#3E2723;stop-opacity:2.000000e-02"/>
		</radialGradient>
		<polygon id="XMLID_32_" clip-path="url(#SVGID_14_)" fill="url(#XMLID_3_)" points="48,96 53.6,86.3 27.1,59.8 		"/>
	</g>
</g>
<g id="XMLID_36_">
	<g>
		<defs>
			<path id="SVGID_15_" d="M182.4,90l-33.5-58h-41.8L144,96l-36.9,64h41.8l33.5-58C184.5,98.3,184.5,93.7,182.4,90z"/>
		</defs>
		<clipPath id="SVGID_16_">
			<use xlink:href="#SVGID_15_"  overflow="visible"/>
		</clipPath>
		<polygon id="XMLID_37_" clip-path="url(#SVGID_16_)" fill="#FFC107" points="144,96 107.1,160 148.9,160 164.9,132.3 		"/>
	</g>
	<g>
		<defs>
			<path id="SVGID_17_" d="M182.4,90l-33.5-58h-41.8L144,96l-36.9,64h41.8l33.5-58C184.5,98.3,184.5,93.7,182.4,90z"/>
		</defs>
		<clipPath id="SVGID_18_">
			<use xlink:href="#SVGID_17_"  overflow="visible"/>
		</clipPath>
		<g id="XMLID_29_" clip-path="url(#SVGID_18_)">
			
				<image overflow="visible" opacity="0.2" enable-background="new    " width="101" height="125" id="XMLID_106_" xlink:href="2FB23A00BDC3228D.png"  transform="matrix(1 0 0 1 99 15.9999)">
			</image>
			<g id="XMLID_99_">
				<path id="XMLID_105_" fill="#0F9D58" d="M182.4,102c2.1-3.7,2.1-8.3,0-12l-33.5-58h-41.8l57.8,100.3L182.4,102z"/>
			</g>
		</g>
	</g>
	<g>
		<defs>
			<path id="SVGID_19_" d="M182.4,90l-33.5-58h-41.8L144,96l-36.9,64h41.8l33.5-58C184.5,98.3,184.5,93.7,182.4,90z"/>
		</defs>
		<clipPath id="SVGID_20_">
			<use xlink:href="#SVGID_19_"  overflow="visible"/>
		</clipPath>
		<path id="XMLID_41_" opacity="0.2" clip-path="url(#SVGID_20_)" fill="#FFFFFF" enable-background="new    " d="M182.4,91
			c1,1.7,1.5,3.6,1.6,5.5c0.1-2.2-0.4-4.5-1.6-6.5l-33.5-58h-41.8l0.6,1h41.3L182.4,91z"/>
	</g>
	<g>
		<defs>
			<path id="SVGID_21_" d="M182.4,90l-33.5-58h-41.8L144,96l-36.9,64h41.8l33.5-58C184.5,98.3,184.5,93.7,182.4,90z"/>
		</defs>
		<clipPath id="SVGID_22_">
			<use xlink:href="#SVGID_21_"  overflow="visible"/>
		</clipPath>
		<polygon id="XMLID_42_" opacity="0.2" clip-path="url(#SVGID_22_)" fill="#FFFFFF" enable-background="new    " points="144,96 
			107.1,160 107.7,160 144.3,96.5 		"/>
	</g>
	<g>
		<defs>
			<path id="SVGID_23_" d="M182.4,90l-33.5-58h-41.8L144,96l-36.9,64h41.8l33.5-58C184.5,98.3,184.5,93.7,182.4,90z"/>
		</defs>
		<clipPath id="SVGID_24_">
			<use xlink:href="#SVGID_23_"  overflow="visible"/>
		</clipPath>
		<path id="XMLID_43_" opacity="0.2" clip-path="url(#SVGID_24_)" fill="#263238" enable-background="new    " d="M182.4,101
			l-17.5,30.3L107.7,32h-0.6l57.8,100.3l17.5-30.3c1.2-2,1.7-4.3,1.6-6.5C183.9,97.4,183.4,99.3,182.4,101z"/>
	</g>
	<g>
		<defs>
			<path id="SVGID_25_" d="M182.4,90l-33.5-58h-41.8L144,96l-36.9,64h41.8l33.5-58C184.5,98.3,184.5,93.7,182.4,90z"/>
		</defs>
		<clipPath id="SVGID_26_">
			<use xlink:href="#SVGID_25_"  overflow="visible"/>
		</clipPath>
		
			<radialGradient id="XMLID_4_" cx="164.6667" cy="61.05" r="41.1383" gradientTransform="matrix(1 0 0 -1 0 192.5499)" gradientUnits="userSpaceOnUse">
			<stop  offset="0" style="stop-color:#BF360C;stop-opacity:0.2"/>
			<stop  offset="1" style="stop-color:#BF360C;stop-opacity:2.000000e-02"/>
		</radialGradient>
		<polygon id="XMLID_44_" clip-path="url(#SVGID_26_)" fill="url(#XMLID_4_)" points="144,96 138.4,105.7 164.9,132.2 		"/>
	</g>
</g>
</svg>
