<?xml version="1.0" encoding="utf-8"?>
<!-- Generator: Adobe Illustrator 18.0.0, SVG Export Plug-In . SVG Version: 6.00 Build 0)  -->
<!DOCTYPE svg PUBLIC "-//W3C//DTD SVG 1.1//EN" "http://www.w3.org/Graphics/SVG/1.1/DTD/svg11.dtd">
<svg version="1.1" id="Capa_1" xmlns="http://www.w3.org/2000/svg" xmlns:xlink="http://www.w3.org/1999/xlink" x="0px" y="0px"
	 viewBox="0 0 431.7 206.6" enable-background="new 0 0 431.7 206.6" xml:space="preserve">
<g>
	<g>
		<path fill="#EA0A8A" d="M366.1,89.6h-4.4v11.1h4.6c2.2,0,3.9-0.5,5-1.6c1.2-1,1.7-2.4,1.7-4.2c0-1.5-0.6-2.8-1.7-3.8
			C370.1,90.1,368.4,89.6,366.1,89.6z"/>
		<path fill="#EA0A8A" d="M9,65.6h12.8c2.3,0,4.4-0.1,6.5-0.2c2.1-0.1,4.1-0.4,6.1-0.8c2-0.4,3.9-1,5.8-1.9c1.9-0.8,3.8-1.9,5.7-3.3
			c4-3,7.1-6.8,9.4-11.3c2.2-4.6,3.3-9.5,3.3-14.9c0-6.3-1.5-11.8-4.5-16.7c-3-4.8-7.2-8.5-12.5-10.9c-3.2-1.5-6.5-2.4-9.9-2.8
			c-3.4-0.4-7-0.6-10.8-0.6H9l-4.7,19H9V65.6z M27.1,21.1c4.2,0.1,7.4,1.3,9.5,3.7c2.2,2.4,3.2,5.3,3.2,8.7c0,4.1-1.1,7.3-3.2,9.6
			c-2.1,2.3-5.3,3.4-9.6,3.6V21.1z"/>
		<path fill="#EA0A8A" d="M105.6,44.7H84.3v-5.3H102l3.7-14.1H84.3v-4.9H102L107.1,0H90.4l-0.6,2.1H66.2l-4.6,18.3h4.6v42.7h9.9
			c8.1-5.8,17.6-9.8,27.9-11.5L105.6,44.7z"/>
		<path fill="#EA0A8A" d="M170.2,2.1H150l-8.9,32.1L132,2.1h-20l16.9,50.3c7.8,1.8,15.1,4.9,21.6,9.2L170.2,2.1z"/>
		<path fill="#EA0A8A" d="M42.1,113c2-1.3,3.7-2.8,5.2-4.5c0.9-6.3,2.6-12.4,5.2-18c-0.3-2.6-1-5-2.1-7.2c-1.5-3.1-3.7-5.6-6.4-7.6
			c-2.6-1.9-5.4-3.2-8.5-3.8c-3-0.6-6.4-0.9-10.3-0.9H5L0.4,89.4H5v42.7h18.1v-16.9h0.6l8.3,16.9h16.1c-0.8-3.7-1.3-7.6-1.4-11.5
			L42.1,113z M32.7,98.3c-1.2,1-2.8,1.6-5,1.6h-4.6V88.7h4.4c2.3,0,4.1,0.5,5.2,1.6c1.2,1,1.7,2.3,1.7,3.8
			C34.5,95.9,33.9,97.3,32.7,98.3z"/>
		<path fill="#EA0A8A" d="M198.7,93.1c1.2-1.2,2.6-2.1,4.2-2.8c1.6-0.7,3.3-1,5.2-1c2,0,4,0.5,5.8,1.5c1.9,1,3.7,2.4,5.6,4.2
			l8.9-19.6l-15-5.6l-1.1,2.1c-0.7-0.2-1.6-0.4-2.6-0.6c-1-0.2-2.1-0.4-3.5-0.4c-4,0-7.8,0.8-11.5,2.5c-3.6,1.6-6.8,3.9-9.5,6.7
			c-2.7,2.8-4.9,6.2-6.5,10c-0.7,1.6-1.2,3.4-1.6,5.1c2.5,7.1,3.9,14.7,3.9,22.7c0,0.4,0,0.8,0,1.3c1.2,2,2.6,3.8,4.2,5.4
			c2.8,2.9,6.1,5.1,9.9,6.8c3.8,1.6,8,2.5,12.5,2.5c4.3,0,7.9-0.7,11-2.1c3.1-1.4,6.1-3.2,9-5.5l-8.1-17c-1.8,1.9-3.7,3.4-5.5,4.5
			c-1.8,1.1-3.9,1.7-6.1,1.7c-1.8,0-3.5-0.3-5.1-1c-1.6-0.7-3-1.6-4.1-2.7c-1.2-1.2-2.1-2.5-2.7-4.1c-0.7-1.6-1-3.2-1-5
			c0-1.9,0.3-3.7,1-5.3C196.6,95.7,197.5,94.3,198.7,93.1z"/>
		<polygon fill="#EA0A8A" points="283,72.4 262.4,72.4 251.2,95.3 251.2,72.4 233.1,72.4 228.4,90.7 233.1,90.7 233.1,133.4 
			251.2,133.4 251.2,109.4 263.6,133.4 285.1,133.4 267.3,101.9 		"/>
		<polygon fill="#EA0A8A" points="322.7,92.6 327.8,72.3 311.1,72.3 310.5,74.4 286.9,74.4 282.3,92.6 286.9,92.6 286.9,135.3 
			321.8,135.3 326.4,116.9 305,116.9 305,111.6 322.7,111.6 326.4,97.6 305,97.6 305,92.6 		"/>
		<path fill="#EA0A8A" d="M383.4,94.5c0-3.7-0.8-7.1-2.3-10.2c-1.5-3.1-3.7-5.6-6.4-7.6c-2.6-1.9-5.4-3.2-8.5-3.8
			c-3-0.6-6.4-0.9-10.3-0.9h-20.2l-4.7,18.3h4.7v42.7h18.1V116h0.6l8.3,16.9h21.7l-11.6-19C379.9,109.3,383.4,102.8,383.4,94.5z
			 M363.4,99.2c-1.2,1-2.8,1.6-5,1.6h-4.6V89.6h4.4c2.3,0,4,0.5,5.2,1.6c1.2,1,1.7,2.3,1.7,3.8C365.2,96.8,364.6,98.2,363.4,99.2z"
			/>
		<path fill="#EA0A8A" d="M415,95c-1.1-0.3-2-0.6-2.8-0.9s-1.7-0.6-2.8-0.9c-1-0.3-1.7-0.7-2.3-1.2c-0.5-0.5-0.8-1.2-0.8-2
			c0-0.8,0.5-1.5,1.4-2.1c0.9-0.6,2.3-0.9,4-0.9c2.1,0,4.3,0.4,6.5,1.2c2.2,0.8,4.5,1.8,7,2.9l4.8-18.8l-16.2-2.7l-0.6,2.7
			c-1.2-0.2-2.2-0.5-3.1-0.6c-0.8-0.2-1.8-0.3-3.1-0.3c-3.1,0-5.9,0.5-8.5,1.4c-2.6,0.9-4.7,2.2-6.5,3.8c-1.8,1.6-3.1,3.5-4.1,5.7
			c-1,2.2-1.5,4.5-1.5,7c0,3.3,0.5,6,1.6,8.1c1,2.1,2.6,4,4.6,5.5c2,1.5,4.4,2.8,7.3,3.9c2.9,1.1,6.1,2.2,9.8,3.4
			c0.7,0.2,1.3,0.7,1.8,1.2c0.5,0.6,0.8,1.2,0.8,1.9c0,1-0.4,1.8-1.3,2.4c-0.9,0.6-1.8,0.9-2.8,0.9c-2.9,0-5.6-0.5-8.1-1.5
			s-5.2-2.3-8-4l-4.6,17.7c1.5,0.6,3,1.2,4.5,1.8c1.6,0.6,3.2,1.2,5,1.6c1.8,0.5,3.7,0.9,5.7,1.2c2,0.3,4.2,0.5,6.6,0.5
			c3.2,0,6.2-0.5,8.9-1.6c2.7-1,5.1-2.5,7-4.3c2-1.8,3.5-4,4.6-6.5c1.1-2.5,1.6-5.2,1.6-8.1C431.3,104.5,425.9,98.3,415,95z"/>
		<circle fill="#EA0A8A" cx="113.5" cy="116.1" r="63.2"/>
		<rect x="19" y="97" fill="#EA0A8A" width="17.3" height="5.6"/>
	</g>
	<g>
		<path fill="none" d="M351.2,88.2H347v10.6h4.3c2.1,0,3.7-0.5,4.8-1.5c1.1-1,1.6-2.3,1.6-4c0-1.4-0.6-2.7-1.6-3.6
			C355,88.7,353.4,88.2,351.2,88.2z"/>
		<path fill="#F48520" d="M119.4,100.1c0,4.3-0.8,8.3-2.4,11.8s-3.7,6.7-6.4,9.2c-2.7,2.6-5.7,4.6-9.2,6c-3.5,1.4-7.1,2.1-10.8,2.1
			c-4.1,0-7.9-0.8-11.5-2.3c-3.6-1.5-6.7-3.6-9.3-6.2c-2.6-2.6-4.7-5.7-6.3-9.3c-1.5-3.6-2.3-7.4-2.3-11.6c0-2.6,0.3-4.9,0.8-6.7
			c0.5-1.9,1.4-4,2.6-6.3c5.5-10.9,14.2-16.3,26.3-16.3c4,0,7.7,0.8,11.2,2.4c3.5,1.6,6.5,3.8,9.1,6.5c2.6,2.7,4.6,5.8,6.1,9.4
			C118.6,92.5,119.4,96.2,119.4,100.1z M102,100.1c0-1.5-0.3-3-0.8-4.5c-0.5-1.5-1.3-2.8-2.3-4c-1-1.2-2.1-2.1-3.5-2.8
			c-1.4-0.7-3-1-4.7-1c-1.9,0-3.7,0.4-5.2,1.1c-1.5,0.7-2.8,1.6-3.8,2.8c-1,1.2-1.8,2.5-2.3,3.9s-0.8,2.9-0.8,4.4
			c0,1.7,0.3,3.3,0.9,4.8c0.6,1.5,1.4,2.8,2.4,3.9c1.1,1.1,2.3,1.9,3.8,2.6c1.5,0.6,3.1,0.9,4.9,0.9c1.2,0,2.2-0.2,3-0.5
			c0.8-0.3,1.7-0.8,2.7-1.4c2-1.2,3.5-2.7,4.4-4.3C101.5,104.4,102,102.4,102,100.1z"/>
		<g>
			<path fill="#F1E9F4" d="M8.2,63h12.2c2.1,0,4.2-0.1,6.2-0.2c2-0.1,3.9-0.4,5.8-0.7c1.9-0.4,3.7-0.9,5.5-1.7
				c1.8-0.8,3.6-1.8,5.4-3C47,54.6,50,51.2,52.1,47c2.1-4.2,3.2-8.7,3.2-13.6c0-5.7-1.4-10.8-4.3-15.2c-2.8-4.4-6.8-7.7-11.9-10
				c-3.1-1.3-6.2-2.2-9.4-2.6c-3.2-0.4-6.6-0.6-10.3-0.6H8.2L3.8,22.4h4.4V63z M25.4,22.4c4,0.1,7,1.2,9.1,3.3
				c2.1,2.2,3.1,4.8,3.1,7.9c0,3.8-1,6.7-3,8.7c-2,2.1-5.1,3.1-9.1,3.3V22.4z"/>
			<path fill="#F1E9F4" d="M102.9,45.5H82.5v-5h16.8l3.5-13.4H82.5v-4.7h16.8l4.9-19.4H88.4l-0.6,2H65.4L61,22.4h4.3V63h9.4
				c7.7-5.5,16.7-9.3,26.5-10.9L102.9,45.5z"/>
			<path fill="#F1E9F4" d="M165.1,5.1h-19.2l-8.4,30.5l-8.7-30.5h-19l16,47.8c7.4,1.7,14.3,4.7,20.5,8.7L165.1,5.1z"/>
			<path fill="#F1E9F4" d="M43.5,110.4c1.9-1.3,3.5-2.7,4.9-4.3c0.8-6,2.5-11.7,4.9-17.1c-0.3-2.4-0.9-4.7-2-6.8
				c-1.4-2.9-3.5-5.3-6.1-7.2c-2.5-1.9-5.2-3.1-8-3.6c-2.9-0.5-6.1-0.8-9.8-0.8H8.2L3.8,88h4.4v40.5h17.2v-16.1H26l7.9,16.1h15.3
				c-0.8-3.6-1.2-7.2-1.4-11L43.5,110.4z M34.5,96.5c-1.1,1-2.7,1.5-4.8,1.5h-4.3V87.4h4.2c2.2,0,3.8,0.5,4.9,1.5
				c1.1,1,1.6,2.2,1.6,3.6C36.2,94.2,35.6,95.5,34.5,96.5z"/>
			<path fill="#F1E9F4" d="M192.2,91.5c1.1-1.1,2.4-2,4-2.6c1.5-0.6,3.2-1,4.9-1c1.9,0,3.8,0.5,5.6,1.4c1.8,0.9,3.6,2.3,5.3,4
				l8.4-18.6l-14.2-5.3l-1,2c-0.7-0.2-1.5-0.4-2.4-0.6c-0.9-0.2-2-0.3-3.3-0.3c-3.8,0-7.5,0.8-10.9,2.3c-3.4,1.6-6.5,3.7-9.1,6.4
				c-2.6,2.7-4.7,5.8-6.2,9.5c-0.7,1.6-1.2,3.2-1.5,4.8c2.4,6.7,3.7,14,3.7,21.5c0,0.4,0,0.8,0,1.2c1.1,1.9,2.5,3.6,4,5.2
				c2.6,2.7,5.8,4.9,9.4,6.4c3.6,1.6,7.6,2.3,11.9,2.3c4,0,7.5-0.7,10.5-2c2.9-1.3,5.8-3.1,8.5-5.3l-7.7-16.1
				c-1.7,1.8-3.5,3.2-5.2,4.3c-1.7,1.1-3.7,1.6-5.8,1.6c-1.7,0-3.4-0.3-4.9-1c-1.5-0.6-2.8-1.5-3.9-2.6c-1.1-1.1-2-2.4-2.6-3.9
				c-0.6-1.5-1-3.1-1-4.7c0-1.8,0.3-3.5,1-5C190.2,94,191.1,92.7,192.2,91.5z"/>
			<polygon fill="#F1E9F4" points="274.5,71.4 254.9,71.4 244.3,93.1 244.3,71.4 227.1,71.4 222.6,88.8 227.1,88.8 227.1,129.3 
				244.3,129.3 244.3,106.6 256.1,129.3 276.5,129.3 259.6,99.5 			"/>
			<polygon fill="#F1E9F4" points="317.3,88.8 322.2,69.4 306.3,69.4 305.7,71.4 283.3,71.4 279,88.8 283.3,88.8 283.3,129.3 
				316.5,129.3 320.8,111.9 300.5,111.9 300.5,106.8 317.3,106.8 320.8,93.5 300.5,93.5 300.5,88.8 			"/>
			<path fill="#F1E9F4" d="M375.1,92.8c0-3.5-0.7-6.8-2.2-9.7c-1.4-2.9-3.5-5.3-6.1-7.2c-2.5-1.9-5.2-3.1-8-3.6
				c-2.9-0.5-6.1-0.8-9.8-0.8h-19.2l-4.4,17.4h4.4v40.5H347v-16.1h0.6l7.9,16.1h20.6l-11-18.1C371.7,106.9,375.1,100.7,375.1,92.8z
				 M356.1,97.3c-1.1,1-2.7,1.5-4.8,1.5H347V88.2h4.2c2.2,0,3.8,0.5,4.9,1.5c1.1,1,1.6,2.2,1.6,3.6C357.8,95,357.2,96.3,356.1,97.3z
				"/>
			<path fill="#F1E9F4" d="M406.6,93c-1-0.3-1.9-0.6-2.7-0.8c-0.8-0.3-1.6-0.5-2.7-0.8c-0.9-0.3-1.6-0.7-2.2-1.1
				c-0.5-0.5-0.8-1.1-0.8-1.9c0-0.8,0.4-1.4,1.3-2c0.9-0.6,2.2-0.9,3.8-0.9c2,0,4.1,0.4,6.2,1.2c2.1,0.8,4.3,1.7,6.7,2.7l4.5-17.9
				l-15.4-2.5l-0.6,2.5c-1.2-0.2-2.1-0.4-2.9-0.6c-0.8-0.2-1.8-0.3-2.9-0.3c-3,0-5.6,0.4-8.1,1.3c-2.4,0.9-4.5,2.1-6.2,3.6
				c-1.7,1.5-3,3.3-3.9,5.4c-0.9,2.1-1.4,4.3-1.4,6.7c0,3.1,0.5,5.7,1.5,7.7c1,2,2.4,3.8,4.3,5.2c1.9,1.4,4.2,2.7,6.9,3.7
				c2.7,1,5.8,2.1,9.3,3.2c0.6,0.2,1.2,0.6,1.7,1.2c0.5,0.6,0.7,1.1,0.7,1.8c0,1-0.4,1.8-1.3,2.3c-0.8,0.6-1.7,0.8-2.6,0.8
				c-2.7,0-5.3-0.5-7.7-1.4c-2.4-1-5-2.2-7.6-3.8l-4.3,16.8c1.4,0.6,2.8,1.2,4.3,1.7c1.5,0.6,3.1,1.1,4.7,1.6
				c1.7,0.5,3.5,0.8,5.4,1.1c1.9,0.3,4,0.4,6.2,0.4c3.1,0,5.9-0.5,8.5-1.5c2.6-1,4.8-2.3,6.7-4.1s3.3-3.8,4.4-6.2
				c1-2.4,1.6-4.9,1.6-7.7C422,102,416.9,96.1,406.6,93z"/>
			<circle cx="111.3" cy="115.3" r="60"/>
		</g>
		<path fill="#FFFFFF" d="M98.7,91.2c0-2.3-2.3-4.4-6-5.6c0.8-4,0.1-6.9-2-8.1c-2-1.2-4.9-0.1-7.8,2.4c-3-2.7-5.9-3.5-8-2.3
			c-2,1.2-2.6,4.2-1.9,8c-3.6,1.2-6,3.3-6,5.6c0,2.4,2.3,4.6,6,5.9c-0.7,3.7-0.1,6.7,1.9,7.8c2.1,1.2,5.2,0.4,8.1-2.2
			c2.9,2.5,5.7,3.4,7.7,2.3c2.1-1.2,2.7-4.4,1.9-8.2C96.5,95.5,98.7,93.6,98.7,91.2z M84.4,82.1c2.1-1.8,4-2.5,4.9-2
			c0.9,0.5,1.3,2.7,0.7,5.6c0,0.2-0.1,0.4-0.1,0.6c-1.2-0.3-2.4-0.5-3.8-0.6c-0.8-1.1-1.6-2.1-2.4-3C84,82.5,84.2,82.3,84.4,82.1z
			 M77.8,91.2c0.4-0.8,0.8-1.5,1.2-2.3l0,0c0.4-0.8,0.9-1.5,1.4-2.2c0.8-0.1,1.7-0.1,2.6-0.1c0.9,0,1.7,0,2.6,0.1
			c0.5,0.7,0.9,1.4,1.4,2.2c0.4,0.8,0.8,1.5,1.2,2.3c-0.4,0.8-0.8,1.5-1.2,2.3c-0.4,0.8-0.9,1.5-1.3,2.2c-0.8,0.1-1.7,0.1-2.6,0.1
			c-0.9,0-1.7,0-2.5-0.1c-0.5-0.7-0.9-1.4-1.4-2.2h0C78.6,92.7,78.2,92,77.8,91.2z M77.2,92.6c0.3,0.5,0.5,1,0.8,1.5h0
			c0.3,0.5,0.6,1,0.9,1.4c-0.9-0.1-1.8-0.2-2.6-0.4C76.5,94.3,76.8,93.5,77.2,92.6z M77.1,89.8c-0.3-0.8-0.6-1.6-0.9-2.4
			c0.8-0.2,1.7-0.3,2.5-0.4c-0.3,0.5-0.6,0.9-0.9,1.4v0C77.7,88.8,77.4,89.3,77.1,89.8z M87.9,94.1c0.3-0.5,0.6-1,0.8-1.5
			c0.4,0.9,0.7,1.7,0.9,2.5c-0.8,0.2-1.7,0.3-2.6,0.4C87.3,95,87.6,94.6,87.9,94.1z M88.7,89.8c-0.3-0.5-0.5-1-0.8-1.5
			c-0.3-0.5-0.6-0.9-0.9-1.4c0.9,0.1,1.8,0.3,2.6,0.4C89.3,88.2,89,89,88.7,89.8z M84.6,85.5c-0.5,0-1.1,0-1.7,0c-0.6,0-1.1,0-1.7,0
			c0.5-0.7,1.1-1.4,1.7-2C83.5,84.1,84,84.8,84.6,85.5z M76.4,80.1c0.9-0.5,3,0.2,5.2,2.2c0.1,0.1,0.3,0.3,0.4,0.4
			c-0.8,0.9-1.6,1.9-2.4,3c-1.3,0.1-2.6,0.3-3.7,0.6c-0.1-0.3-0.1-0.6-0.2-0.9C75.2,82.7,75.6,80.6,76.4,80.1z M74.4,94.6
			c-1.4-0.5-2.5-1.1-3.3-1.7c-0.7-0.6-1-1.2-1-1.7c0-1,1.5-2.3,4.1-3.2c0.3-0.1,0.6-0.2,1-0.3c0.4,1.1,0.8,2.3,1.4,3.5
			c-0.6,1.2-1,2.4-1.4,3.6C74.8,94.7,74.6,94.7,74.4,94.6z M81.6,100.3c-1.1,1-2.2,1.6-3.1,2c-0.9,0.3-1.6,0.3-2,0.1
			c-0.9-0.5-1.3-2.5-0.8-5.1c0.1-0.3,0.1-0.6,0.2-0.9c1.2,0.3,2.4,0.4,3.8,0.5c0.8,1.1,1.6,2.1,2.4,3
			C81.9,100,81.8,100.1,81.6,100.3z M82.9,98.9c-0.6-0.6-1.1-1.3-1.7-2c0.5,0,1.1,0,1.6,0c0.6,0,1.1,0,1.7,0
			C84.1,97.6,83.5,98.3,82.9,98.9z M90.2,100.6c-0.2,0.9-0.5,1.5-0.9,1.7c-0.9,0.5-2.8-0.2-4.8-1.9c-0.2-0.2-0.5-0.4-0.7-0.6
			c0.8-0.9,1.6-1.9,2.4-3c1.4-0.1,2.6-0.3,3.8-0.6c0.1,0.2,0.1,0.5,0.2,0.7C90.4,98.3,90.4,99.6,90.2,100.6z M91.3,94.6
			c-0.2,0.1-0.3,0.1-0.5,0.1c-0.4-1.1-0.8-2.3-1.4-3.6c0.6-1.2,1-2.4,1.4-3.5c0.3,0.1,0.6,0.2,0.8,0.3c2.6,0.9,4.2,2.2,4.2,3.2
			C95.7,92.3,94,93.7,91.3,94.6z"/>
		<g>
			<g transform="translate(-1.000000, 0.000000)">
				<g transform="translate(51.398438, 0.000000)">
					<path fill="#FFFFFF" stroke="#050606" stroke-width="0.25" stroke-miterlimit="10" d="M102.9,91.2L71,102.9l1.5-8.4l31.9-11.7
						L102.9,91.2L102.9,91.2z"/>
					<path fill="#FFFFFF" fill-opacity="0.2" stroke="#050606" stroke-width="0.25" stroke-miterlimit="10" d="M102.9,91.2l-6.5-5.5
						l8-2.9L102.9,91.2L102.9,91.2z"/>
					<path fill="#FFFFFF" fill-opacity="0.1" stroke="#050606" stroke-width="0.25" stroke-miterlimit="10" d="M94.9,94.1l8-2.9
						l-6.5-5.5L94.9,94.1L94.9,94.1L94.9,94.1z"/>
					<path fill="#FFFFFF" fill-opacity="0.1" stroke="#050606" stroke-width="0.25" stroke-miterlimit="10" d="M86.9,97.1l8-2.9
						l-6.5-5.5L86.9,97.1L86.9,97.1L86.9,97.1z"/>
					<path fill="#FFFFFF" fill-opacity="0.2" stroke="#050606" stroke-width="0.25" stroke-miterlimit="10" d="M86.9,97.1l-6.5-5.5
						l8-2.9L86.9,97.1L86.9,97.1L86.9,97.1z"/>
					<path fill="#FFFFFF" fill-opacity="0.3" stroke="#050606" stroke-width="0.25" stroke-miterlimit="10" d="M79,100l8-2.9
						l-6.5-5.5L79,100L79,100L79,100z"/>
					<path fill="#FFFFFF" fill-opacity="0.4" stroke="#050606" stroke-width="0.25" stroke-miterlimit="10" d="M79,100l-6.5-5.5
						l8-2.9L79,100L79,100L79,100z"/>
					<path fill="#FFFFFF" fill-opacity="0.5" stroke="#050606" stroke-width="0.25" stroke-miterlimit="10" d="M71,102.9l8-2.9
						l-6.5-5.5L71,102.9L71,102.9z"/>
				</g>
				<g transform="translate(0.000000, 44.343750)">
					<path fill="#FFFFFF" stroke="#050606" stroke-width="0.25" stroke-miterlimit="10" d="M151.4,63.6l-16,5.8l-6.5-5.5l24-8.8
						L151.4,63.6L151.4,63.6L151.4,63.6z"/>
					<path fill="#FFFFFF" fill-opacity="0.2" stroke="#050606" stroke-width="0.25" stroke-miterlimit="10" d="M151.4,63.6l-6.5-5.5
						l8-2.9L151.4,63.6L151.4,63.6z"/>
					<path fill="#FFFFFF" fill-opacity="0.1" stroke="#050606" stroke-width="0.25" stroke-miterlimit="10" d="M143.4,66.6l8-2.9
						l-6.5-5.5L143.4,66.6L143.4,66.6z"/>
					<path fill="#FFFFFF" stroke="#050606" stroke-width="0.25" stroke-miterlimit="10" d="M143.4,66.6l-6.5-5.5l8-2.9L143.4,66.6
						L143.4,66.6z"/>
					<path fill="#FFFFFF" fill-opacity="0.1" stroke="#050606" stroke-width="0.25" stroke-miterlimit="10" d="M135.4,69.5l8-2.9
						l-6.5-5.5L135.4,69.5L135.4,69.5z"/>
					<path fill="#FFFFFF" fill-opacity="0.2" stroke="#050606" stroke-width="0.25" stroke-miterlimit="10" d="M135.4,69.5l-6.5-5.5
						l8-2.9L135.4,69.5L135.4,69.5z"/>
				</g>
				<g transform="translate(26.203125, 0.000000)">
					<path fill="#FFFFFF" stroke="#050606" stroke-width="0.25" stroke-miterlimit="10" d="M110.7,105.4l-8,2.9l-6.5-5.5l8-2.9
						L110.7,105.4L110.7,105.4z"/>
					<path fill="#FFFFFF" fill-opacity="0.2" stroke="#050606" stroke-width="0.25" stroke-miterlimit="10" d="M104.2,100l-8,2.9
						l6.5,5.5L104.2,100L104.2,100z"/>
				</g>
				<g transform="translate(179.390625, 88.687500)">
					<path fill="#FFFFFF" stroke="#050606" stroke-width="0.25" stroke-miterlimit="10" d="M-23.6-5.8l-8,2.9l-6.5-5.5l8-2.9
						L-23.6-5.8L-23.6-5.8z"/>
					<path fill="#FFFFFF" fill-opacity="0.2" stroke="#050606" stroke-width="0.25" stroke-miterlimit="10" d="M-30.1-11.3l6.5,5.5
						l-8,2.9L-30.1-11.3L-30.1-11.3z"/>
				</g>
				<g transform="translate(154.195312, 0.000000)">
					<path fill="#FFFFFF" stroke="#050606" stroke-width="0.25" stroke-miterlimit="10" d="M-4.9,77.4l-24,8.8l1.5-8.4l16-5.8
						L-4.9,77.4L-4.9,77.4L-4.9,77.4z"/>
					<path fill="#FFFFFF" fill-opacity="0.2" stroke="#050606" stroke-width="0.25" stroke-miterlimit="10" d="M-12.9,80.3l8-2.9
						l-6.5-5.5L-12.9,80.3L-12.9,80.3z"/>
					<path fill="#FFFFFF" fill-opacity="0.1" stroke="#050606" stroke-width="0.25" stroke-miterlimit="10" d="M-12.9,80.3l-6.5-5.5
						l8-2.9L-12.9,80.3L-12.9,80.3z"/>
					<path fill="#FFFFFF" fill-opacity="0.1" stroke="#050606" stroke-width="0.25" stroke-miterlimit="10" d="M-20.9,83.2l-6.5-5.5
						l8-2.9L-20.9,83.2L-20.9,83.2z"/>
					<path fill="#FFFFFF" fill-opacity="0.2" stroke="#050606" stroke-width="0.25" stroke-miterlimit="10" d="M-28.9,86.2l8-2.9
						l-6.5-5.5L-28.9,86.2L-28.9,86.2z"/>
				</g>
			</g>
		</g>
		<path fill="#FFFFFF" d="M122.1,128.7h4.5V118l-5-5l-3.2,3.2l3.7,3.7L122.1,128.7L122.1,128.7z M126.6,131h-6.5H111l-3.7-3.7
			l1.6-1.6l3.1,3.1h6.3l-6.3-6.3l1.6-1.6l6.3,6.3v-6.3l-3.1-3.1l1.6-1.6l-7.8-7.8l-7.7,0v0l-7.9,0l4.5,4.5v0h0l9.2,0l3.3,3.3
			l-4.8,4.8l-3.3-3.3v-2.5h-4.5v4.4l7.8,7.8l-3.2,3.2l5,5h7.7h14.3v0L126.6,131z"/>
		<g>
			<rect x="76.5" y="129.9" fill="#FFFFFF" width="0" height="5.8"/>
			<path fill="#FFFFFF" d="M71.4,122.8l-9.8,10.3l9.9,14.7l12.9,0.4l7.2-10.8l-6.2-16.6L71.4,122.8z M90.3,137.1l-6.5,9.7l-4.8-9.2
				l0,0l4.8,9.2l-11.5-0.4l-8.8-13.2l8.6-9.2l0.4,0.8l0,0v0l-0.4-0.8l12.8-1.9L90.3,137.1z"/>
			<polygon fill="#FFFFFF" points="77.9,135.4 77.9,135.4 79,137.6 79,137.6 			"/>
			<polygon fill="#FFFFFF" points="72.5,124.9 72.5,124.9 72.5,124.9 			"/>
			<polygon fill="#FFFFFF" points="72.5,125 72.5,124.9 75.2,130.3 75.2,130.3 			"/>
			<rect x="79" y="137.6" fill="#FFFFFF" width="0" height="0"/>
			<polygon fill="#FFFFFF" points="75.2,130.2 75.2,130.2 72.5,125 75.2,130.3 			"/>
			<polygon fill="#FFFFFF" points="79,137.6 79,137.6 79,137.6 			"/>
			<polygon fill="#FFFFFF" points="72.5,124.9 72.5,124.9 72.5,124.9 			"/>
			<polygon fill="#FFFFFF" points="79,137.6 77.9,135.4 78,135.4 77.9,135.4 			"/>
			<polygon fill="#FFFFFF" points="77.9,135.4 75.7,136.5 75.2,130.3 72.5,124.9 73.5,145.2 76.3,143.7 75.8,139.2 79,137.6 
				79,137.6 			"/>
			<polygon fill="#FFFFFF" points="72.5,124.9 72.5,124.9 72.5,124.9 			"/>
			<polygon fill="#FFFFFF" points="78,135.4 80.6,134.1 75.2,130.2 75.2,130.2 80.4,134.1 			"/>
			<polygon fill="#FFFFFF" points="79,137.6 82.5,135.8 86,138.8 88.7,137.4 72.5,124.9 81.3,134.7 			"/>
			<polygon fill="#FFFFFF" points="72.5,125 72.5,124.9 72.5,124.9 72.5,124.9 			"/>
			<polygon fill="#FFFFFF" points="79,137.6 79,137.6 79,137.6 			"/>
			<polygon fill="#FFFFFF" points="72.5,125 75.2,130.2 75.2,130.2 75.2,130.2 80.6,134.1 78,135.4 77.9,135.4 79,137.6 79,137.6 
				79,137.6 81.3,134.7 72.5,124.9 72.5,124.9 			"/>
		</g>
		<g>
			<g>
				<path fill="#FFFFFF" d="M116.9,59.8c1,0,1.9,0.6,2.3,1.4c2.4,4.1,4.8,8.2,7.2,12.4c0.4,0.8,0.5,1.8,0,2.6l-7.1,12.1
					c-0.5,0.8-1.4,1.3-2.3,1.2c-4.7-0.1-9.5-0.2-14.2-0.3c-1,0-1.9-0.6-2.3-1.5c-0.7-1.2-1.4-2.5-2.1-3.7c-0.1-0.3-0.3-0.5-0.4-0.8
					c0.2-0.1,0.5,0,0.7,0.1c0.5,0.1,1.1,0.1,1.6,0.2c0.1,0,0.3,0.1,0.3,0.2c0.6,1.1,1.2,2.1,1.8,3.2c0.1,0.2,0.4,0.2,0.6,0.2
					c4.7,0.1,9.3,0.2,14,0.3c0.2,0,0.3-0.1,0.4-0.2c2.4-4,4.7-8,7.1-12c0.1-0.2,0.1-0.4,0-0.5c-2.4-4.1-4.7-8.2-7.1-12.3
					c-0.1-0.2-0.2-0.3-0.4-0.2c-4.7-0.1-9.5-0.2-14.2-0.3c-0.2,0-0.4,0.1-0.4,0.2c-2.4,4-4.7,8-7.1,12c-0.1,0.1-0.1,0.3,0,0.5
					c0.6,1.1,1.3,2.2,1.9,3.3c0.4,0.6,0.9,1.2,1.6,1.3c0.6,0.1,1.3-0.2,1.6-0.8c2.3-4,4.7-8,7-12c0.1-0.2,0.3-0.2,0.5-0.1
					c0.5,0.3,0.9,0.5,1.4,0.8c0.2,0.1,0.2,0.4,0.1,0.5c-2.4,4-4.7,8-7.1,12c-0.6,1.1-1.8,2-3,1.9c-1.6-0.1-3-1.1-3.9-2.4
					c-0.7-1.1-1.4-2.3-2.1-3.5c-0.5-0.8-0.5-1.8-0.1-2.6l7.1-12.1c0.5-0.8,1.4-1.3,2.3-1.2C107.4,59.6,112.1,59.7,116.9,59.8
					L116.9,59.8z"/>
				<path fill="#FFFFFF" d="M115,70c1.6,0.8,3.3,1.8,4.2,3.4c0.7,1.2,0.6,2.8-0.1,4c-0.1,0.1-0.3,0.1-0.5,0
					c-0.5-0.3-0.9-0.5-1.4-0.8c-0.2-0.1-0.2-0.3-0.1-0.5c0.2-0.7,0.2-1.4-0.1-2c-0.6-0.9-1.6-1.5-2.5-2c-0.7-0.4-1.4-0.7-2.2-0.7
					c-0.6,0-1.1,0.6-1.2,1.1c-0.1,0.4,0.3,0.8,0.5,1.1c1.6,1.6,3.6,2.7,5.1,4.4c0.6,0.7,1,1.7,0.8,2.6c-0.3,1.3-1.2,2.5-2.4,2.9
					c-1,0.3-2.2,0.2-3.2-0.1c-1.3-0.4-2.6-1.2-3.7-2c-1.1-0.8-2.1-1.8-2.5-3.1c-0.4-1.1-0.1-2.3,0.5-3.3c0.1-0.2,0.3-0.2,0.5-0.1
					c0.5,0.3,0.9,0.5,1.4,0.8c0.2,0.1,0.2,0.3,0.1,0.5c-0.2,0.6-0.4,1.3-0.1,1.9c0.6,1.1,1.8,1.8,2.8,2.4c0.9,0.5,1.9,1,2.9,0.9
					c0.6-0.1,1-0.6,1.2-1.1c0.1-0.5-0.2-0.9-0.5-1.2c-1.5-1.7-3.6-2.6-5.1-4.4c-0.6-0.7-1-1.6-0.9-2.5c0.2-1.3,1.2-2.5,2.5-2.9
					C112.5,69.1,113.8,69.5,115,70L115,70z"/>
			</g>
		</g>
		<g>
			<g>
				<path fill="#FFFFFF" d="M134.4,166.1l4.8-4.9l2.1-0.7c0,0-2.6-0.9-5.9-3.7c-3.3-2.8-4.5-5.3-4.5-5.3l-0.4,2.4l-4,5.3
					c-0.5,0.5,0.9,2.5,3.1,4.4C131.8,165.6,133.9,166.7,134.4,166.1"/>
				<path fill="#FFFFFF" d="M154.3,141.2l2.9-2l6.9-0.7l-0.2-1.6l-7.3,0.7l-3.4,2.4c-0.5-0.5-1.1-1-1.7-1.5c-4-3.5-7.7-5.8-8.2-5.3
					c-0.5,0.6,2.4,3.8,6.4,7.3c4,3.5,7.7,5.8,8.2,5.3C158.1,145.4,156.7,143.5,154.3,141.2"/>
				<path fill="#FFFFFF" d="M152.7,142.3c0,0-0.2-0.1-0.6-0.4c-0.4-0.4-0.7-0.6-0.7-0.8c0-0.1,0-0.1,0.1-0.2c0.1-0.1,0.2-0.1,0.2,0
					l0,0.2c0,0-0.1,0-0.1,0c0,0.1,0.3,0.5,0.7,0.7c0.3,0.3,0.7,0.6,0.8,0.5c0,0,0-0.1,0-0.1l0.1,0c0.1,0.1,0.1,0.2,0,0.3
					C153,142.5,152.8,142.4,152.7,142.3"/>
				<path fill="#FFFFFF" d="M164,138.5c0.2,0,0.3-0.4,0.2-0.9c-0.1-0.5-0.3-0.8-0.4-0.8c-0.2,0-0.3,0.4-0.2,0.9
					C163.7,138.2,163.9,138.5,164,138.5"/>
				<path fill="#FFFFFF" d="M145.1,153.4c0.6-0.9,3.5-0.5,3.1-0.9c-1.1-0.8-2.6-0.1-4.2,0.6c-0.6,0.3-2.9,1.6-3.1,1
					c-0.2-0.6,2.1-1.3,3.2-2c-0.5,0-2.5-0.1-2-1.3c-0.8,0-2.1-0.7-1-1.7c-0.7,0.2-1.8,0.4-2.3-0.5c-0.6-1.1,3.4-2.8,3.6-2.3
					c0.2,0.5-0.8,0.7-1.1,0.9c-0.7,0.4-1.6,0.8-1.6,1.1c0.1,0.5,2,0.1,2.1,0.1c0.4-0.1,2.1-1.1,2.3-0.6c0.2,0.5-2.8,1.2-2.6,2.1
					c0,0.2,0.6,0.4,1,0.3c0.3,0,0.6-0.5,2.3-1.3c1.7-0.8,3.5-2,3.8-1.6c0.3,0.4-0.8,1-1.2,1.2c-1.9,0.9-5,2.4-4.4,2.6
					c0.7,0.3,0.9,0.5,2,0.3c1-0.2,1.8-1.1,2.1-0.8c0.3,0.3,0,0.6-0.3,0.7c0.7-0.1,2.6,0.2,2.2,1.2c-0.5,1.2-3.7,0.7-3.1,1.1
					c0.6,0.4,1.9,0.6,2.6,0.4l8.6-7.9c0,0-1.7,0-7.9-5.5c-6.2-5.4-6.4-7-6.4-7l-6.1,8.7c1.5-0.9,4.8-2.5,6.3-1
					c0.7,0.7,0.5,3-0.4,2.3c-0.4-0.3,0.2-1.1-0.1-1.5c-0.2-0.3-0.9-0.5-1.4-0.4c-1,0.1-4.1,1.2-4.9,2.4c-1,1.5,2.3,1.2,3.1,0.9
					c0.5-0.2,1.7-1.2,2-0.7c0.3,0.5-1.2,1.3-2.4,2c-1.4,0.9-2.6,1.9-3,1.4c-0.3-0.5,1.7-1.4,1.9-1.7c-0.8,0-2.4,0.3-3-1l-3.8,5.4
					c0,0,0.4,2.3,4.6,5.8c4.1,3.6,6.5,3.7,6.5,3.7l5.6-5.2C146.8,155,144.4,154.5,145.1,153.4"/>
			</g>
		</g>
		<g>
			<g>
				<path fill="#FFFFFF" d="M120.2,166.2c-1.4-0.7-2.8-1.1-4.1-1.1c0-0.9,0-1.8,0.2-2.3c0.2-0.6,0.3-1,0.8-1.6s1.4-1.4,1.4-1.4
					c0-0.1,0.1-0.5-0.7-0.9c-0.8-0.4-1.6-0.7-1.8-0.5c-0.2,0.2-0.6,0.6-1,1c-0.5,0.7-3.4,2.5-5,3.4c0-0.7,0-1.3,0.2-1.7
					c0.2-0.6,0.3-1,0.8-1.6c0.5-0.6,1.4-1.4,1.4-1.4c0-0.1,0.1-0.5-0.7-0.9c-0.8-0.4-1.6-0.7-1.8-0.5s-0.6,0.6-1,1
					c-0.4,0.4-4.7,3.7-5.8,4.5c-0.6,0.4-1,0.8-1.4,1l0,0c0,0,0,0-0.1,0c-0.3,0.2-0.4,0.3-0.4,0.3s0,0,0,0c-0.2,0.1-0.4,0.3-0.5,0.2
					c0,0,0.2-0.6,0.7-1.2c1.1-1.3,3.1-3.3,3.1-3.4c0,0,0.4-0.4-0.1-0.9c-0.5-0.5-0.8-0.3-0.9-0.3s-0.2,0.1-0.2,0.1s2.1-2.3,0.2-3.3
					c-1.2-0.6-3.4-0.2-4.8,0.5c-0.6,0-2,0-3.5,0c-0.6,0-1.1,0-1.7,0c0,0,0-0.1,0-0.1c-0.9-3.6-4.1-7.5-2.2-10.6
					c0.7-1.1,2.8-4,12.2-3.6c7.8,0.3,12.2,3.8,12,6.1c-0.2,3.3-6.7,6.2-13.4,3.4c-2.6-1-3.3-2.7-3.5-3.2c-0.1-0.5-0.2-0.6-0.3-0.6
					c-0.3,0-0.3,0.4-0.3,0.6c-0.1,0.6,0.2,1.9,1.3,3c1,1,3.7,2.8,7.8,3.3c4.6,0.6,9.9-1.9,10.9-5.8c1-4-4.2-8.3-10.7-9.3
					c-3.9-0.6-8.5-0.7-12.3,0.3c-4.6,1.2-6.4,3.4-6.8,4.5c-1.3,4.1,2.5,9.2,3.5,12.1c-0.1,0-0.3,0-0.4,0c-1.3,0-6.2-0.1-8.4,1.5
					c-2.4,1.8-2.1,4.2-1.4,4.9c2.2,2.1,5.6,2.3,8.2,0.9c2.6-1.4,3.9-4.2,4-5.9c0,0,0,0,0-0.1c0.3,0,0.7,0,1,0c0.7,0,1.3,0,1.9,0
					c-0.6,0.5-1.2,1.3-2,2.4c-0.9,1.3-1.3,3.4-0.9,4.5c0.2,0.5,0.5,0.7,0.8,0.8c0.9,0.5,1.6,0,2.5-0.6c1.1-0.7,2.2-1.7,2.2-1.7
					s-2.4,2.9-0.8,3.8c0.6,0.3,1.6-0.1,2.1-0.4l0,0c0,0,0,0,0.1,0c0.1-0.1,0.2-0.1,0.2-0.1l0,0c0.5-0.3,1.5-0.9,3.1-2
					c2.1-1.4,4.4-3.4,4.4-3.4s-0.2,0.7-0.5,1.8c-0.1,0.7-0.1,1.5-0.2,2.3c-0.4,0.2-0.7,0.3-0.7,0.3s0,0,0,0c-0.3,0.1-0.7,0.3-1,0.4
					c-1.3,0.5-2.8,1.1-3.1,1.3c-0.4,0.3-0.5,0.6-0.3,1c0.1,0.3,0.5,0.5,0.9,0.7c0.7,0.3,1.3,0.4,1.6,0.5c0.5,0.1,1,0.1,1.6,0
					c1.1-0.2,2-0.7,2.6-1.8c0.3-0.6,0.4-1.3,0.5-2c0.1-0.1,0.2-0.1,0.4-0.2c2.2-1.1,4.2-2.6,4.2-2.6s-0.2,0.7-0.5,1.8
					c-0.1,0.6-0.1,1.3-0.2,2c-1.7,0.3-3,1-3.6,1.6c-1.2,1.1-1.1,1.9-0.5,2.4c0.3,0.2,0.8,0.3,1.2,0.4c0.5,0.1,1.1,0.1,1.7,0
					c1.1-0.2,2.3-0.5,2.8-1.7c0.2-0.5,0.4-1.1,0.5-1.6c1.2,0.1,2.6,0.6,4.1,1.7c3.2,2.3,2.8,4.8,2.1,5.7c-0.6,0.8-1.6,0.9-1.9,1
					c-0.3,0-0.4,0-0.5,0.2c-0.1,0.2,0.1,0.2,0.3,0.3c0.3,0.1,2.2,0.3,3.2-1.4C124.6,171.6,123.9,168.1,120.2,166.2L120.2,166.2z
					 M88.6,160.7c-1.8,0.6-3.7,0.2-4.2-0.5c-0.5-0.8,0.8-2.5,2.9-3.1c1.3-0.3,2.8-0.5,3.8-0.6c0.2,0,0.5,0,0.9,0c0.1,0,0.1,0,0.1,0
					l0,0c0.1,0,0.2,0,0.2,0C91.9,158.6,90.5,160,88.6,160.7L88.6,160.7z M100.1,159.6c-0.9,0.8-3.1,2.8-3.6,2.4
					c-0.4-0.4,0.4-2.4,2-3.9c0.8-0.8,2.1-1.5,2.7-1.8c1-0.4,1.8-0.2,1.8,0.2C103.1,156.9,100.7,159.1,100.1,159.6L100.1,159.6z
					 M105.2,166.6c-0.2,0-0.4,0-0.5-0.1c0-0.1,0.2-0.1,0.2-0.1s1.4-0.5,1.9-0.7c0.3-0.1,0.7-0.3,1.1-0.5l-0.1,0.1
					C107.3,166.4,105.8,166.6,105.2,166.6L105.2,166.6z M111.2,168.3c-0.1-0.2,0.1-0.4,1-1.1c0.4-0.3,1.1-0.7,2-0.9
					c-0.1,0.3-0.1,0.5-0.2,0.7C113.2,168.4,111.9,168.4,111.2,168.3L111.2,168.3z"/>
			</g>
		</g>
		<path fill="#FFFFFF" d="M158,110.5c8.1,10.3,2.3,16.9,2.3,16.9s1.9,4.2-0.2,6.7c0,0-0.6-2.4-2.6-3c-1.9-0.6-3.7,1-7.7-0.2
			c-8.7-2.8-10.6-11.4-10.6-11.4c6.2,7.7,12.8,5.7,12.8,5.7c-2.9-3.2-7.3-15.4-7.3-15.4c4.8,7.7,7.2,10,7.2,10
			c-1.2-1.9-3.8-10.3-3.8-10.3c2.6,5.1,8.4,12.8,8.4,12.8C160.5,117.2,158,110.5,158,110.5z"/>
		<g>
			<g>
				<g>
					<g>
						<path fill="#FFFFFF" d="M118.6,93c-2.8-2.3-6.9-1.8-9.2,1c-1.8,2.3-1.9,5.3-0.4,7.6c0.2,0.3,0.4,0.2,0.5,0
							c0.1-0.1,0.4-0.5,0.8-1c-1.7-0.8-1.2-2-1.2-2c0.2-0.8,0-1.2,0-1.2c-0.2-0.7,0.3-0.3,0.3-0.3c0.5,0.4,0.4,1.2,0.4,1.2
							c-0.2,1.1,0.7,1.5,1.1,1.6c0.3-0.3,0.6-0.4,0.9-0.4c-1-1-1.9-2.4-0.3-4.4c0.4-0.6,1-0.9,1.6-0.9c0.1-0.2,0.3-0.8,1.1-1.3
							c0,0,0.5,0.2,1,1.7c0.5,0.2,1,0.5,1.4,0.9c0.4,0.4,0.8,0.8,1.1,1.2c1.5,0.1,1.8,0.6,1.8,0.6c-0.3,0.9-0.9,1.3-1,1.4
							c0,0.6-0.1,1.2-0.6,1.8c-1.6,2-3.1,1.4-4.4,0.6c0.1,0.3,0,0.7-0.4,1.2c-0.5,0.7-1,1.2-1.1,1.4c-0.1,0.1-0.1,0.4,0.2,0.5
							c2.6,1,5.6,0.2,7.4-2C121.9,99.4,121.5,95.2,118.6,93"/>
						<path fill="#FFFFFF" d="M109.6,97.7C109.6,97.7,109.5,97.7,109.6,97.7c-0.1-0.1-0.1-0.2-0.1-0.2c0,0,0.1,0,0.1,0.1
							C109.6,97.6,109.6,97.6,109.6,97.7"/>
						<path fill="#FFFFFF" d="M109.7,98.1c0,0-0.1,0-0.1-0.1c0-0.1,0-0.1,0.1-0.1c0,0,0.1,0,0.1,0.1C109.8,98,109.7,98.1,109.7,98.1
							"/>
						<path fill="#FFFFFF" d="M109.6,98.5c0,0-0.1-0.1-0.1-0.1c0-0.1,0-0.1,0.1-0.1c0,0,0.1,0.1,0.1,0.1
							C109.7,98.5,109.7,98.5,109.6,98.5"/>
						<path fill="#FFFFFF" d="M109.6,99.1c-0.1,0-0.1,0-0.1-0.1c0-0.1,0-0.1,0.1-0.2c0.1,0,0.1,0,0.1,0.1
							C109.7,99,109.7,99.1,109.6,99.1"/>
						<path fill="#FFFFFF" d="M109.9,99.5c0,0-0.1,0-0.2-0.1c0-0.1,0-0.1,0-0.2c0,0,0.1,0,0.2,0.1C110,99.4,110,99.5,109.9,99.5"/>
						<path fill="#FFFFFF" d="M110.3,99.9c0,0-0.1,0-0.2,0c-0.1,0-0.1-0.1-0.1-0.2c0,0,0.1,0,0.2,0
							C110.3,99.8,110.4,99.8,110.3,99.9"/>
						<path fill="#FFFFFF" d="M110.8,100.2c0,0-0.1,0.1-0.2,0c-0.1,0-0.1-0.1-0.1-0.2c0,0,0.1-0.1,0.2,0
							C110.7,100.1,110.8,100.2,110.8,100.2"/>
					</g>
				</g>
			</g>
		</g>
		<g>
			<g>
				<path fill="#FFFFFF" d="M140.7,125.1l-6.5-4.3c-0.4-0.3-0.9-0.1-1.1,0.2l-0.9,1.4l1.7,1.1c0.3-0.2,0.7-0.2,1,0
					c0.3,0.2,0.5,0.6,0.4,0.9l1.7,1.1c0.3-0.2,0.7-0.2,1,0c0.4,0.3,0.6,0.9,0.3,1.3c-0.3,0.4-0.9,0.6-1.3,0.3
					c-0.3-0.2-0.5-0.6-0.4-1l-1.5-1l0.7,3.4c0.1,0,0.2,0.1,0.3,0.1c0.4,0.3,0.6,0.9,0.3,1.3c-0.3,0.4-0.9,0.6-1.3,0.3
					c-0.4-0.3-0.6-0.9-0.3-1.3c0.1-0.1,0.2-0.2,0.3-0.3l-0.7-3.4c-0.1,0-0.2-0.1-0.4-0.1c-0.3-0.2-0.5-0.6-0.4-1l-1.7-1.1l-3,4.5
					c-0.3,0.4-0.1,0.9,0.2,1.1l6.5,4.3c0.4,0.3,0.9,0.1,1.1-0.2l4.3-6.5C141.2,125.9,141,125.4,140.7,125.1"/>
			</g>
		</g>
		<g>
			<g>
				<path fill="#FFFFFF" d="M157.8,107.1c-0.6-1.1-0.7-2.2-0.4-3.4c0.2-0.7,0.5-1.5,0.9-2.2c-0.8-0.1-1.6-0.2-2.3-0.4
					c-1.3-0.4-2.2-1.3-2.7-2.5c-1.2-2.3-0.4-5.1,1.8-6.2c2.2-1.2,5-0.3,6.2,2c0.7,1.2,0.8,2.5,0.4,3.9c-0.2,0.7-0.4,1.3-0.8,1.9
					c0.7,0.1,1.3,0.2,2,0.4c1.3,0.5,2.3,1.3,3,2.5c1.2,2.3,0.4,5.1-1.8,6.2c-2.2,1.2-5,0.3-6.2-2
					C157.8,107.3,157.8,107.2,157.8,107.1L157.8,107.1z M160,101.7c-0.5,0.8-0.9,1.6-1.1,2.4c-0.2,0.9-0.1,1.6,0.4,2.4l0,0
					c0.8,1.5,2.6,2.1,4,1.3c1.4-0.8,1.9-2.6,1.1-4.1c-0.5-0.9-1.1-1.4-2.1-1.8C161.7,101.8,160.9,101.7,160,101.7L160,101.7z
					 M159.8,95.2c-0.8-1.5-2.6-2.1-4-1.3c-1.4,0.8-1.9,2.6-1.1,4.1l0,0c0.4,0.8,1,1.4,1.8,1.7c0.8,0.3,1.7,0.3,2.7,0.4
					c0.4-0.7,0.8-1.4,1-2.1C160.4,96.9,160.3,96,159.8,95.2L159.8,95.2z"/>
				<path fill="#FFFFFF" d="M162.5,105.1l0.8-0.4l-0.4-0.8l-0.8,0.4l-0.4-0.8l-0.8,0.4l0.4,0.8l-0.8,0.4l0.4,0.8l0.8-0.4l0.4,0.8
					l0.8-0.4L162.5,105.1"/>
				<path fill="#FFFFFF" d="M157.2,95.1l1.3,2.5l-0.8,0.4l-1.3-2.5L157.2,95.1z"/>
			</g>
		</g>
		<g>
			<g>
				<circle fill="#FFFFFF" cx="96.6" cy="128.4" r="2.5"/>
				<path fill="#FFFFFF" d="M101.6,124c0-0.5-0.4-0.9-0.9-0.8c-0.2,0-0.4,0.1-0.6,0.2c-1-0.7-2.3-1.2-3.7-1.1
					c-3.4,0.1-6.1,2.9-6,6.3c0.1,3.4,2.9,6.1,6.3,6c3.4-0.1,6.1-2.9,6-6.3c0-1.4-0.5-2.6-1.3-3.7C101.6,124.4,101.6,124.2,101.6,124
					L101.6,124z M96.8,134.3c-3.3,0.1-6-2.5-6.1-5.8s2.5-6,5.8-6.1c1.3,0,2.6,0.4,3.6,1.1c-0.1,0.1-0.2,0.3-0.1,0.5
					c0,0.5,0.4,0.9,0.9,0.8c0.2,0,0.4-0.1,0.5-0.2c0.8,1,1.2,2.2,1.3,3.5C102.7,131.5,100.1,134.2,96.8,134.3L96.8,134.3z"/>
			</g>
		</g>
		<g>
			<g>
				<path fill="#FFFFFF" d="M70.8,103.3c-5.2-2-5.7,0.4-5.7,0.4l-0.9,2.3l5,1.9l-0.3,0.7l-6.9-2.6c0,0-3.2-1.6-5.2,3.6s1,6.2,1,6.2
					l1.7,0.7l0.9-2.4c0,0,1-2.9,4-1.8l4.9,1.9c0,0,2.7,1.1,3.8-1.6l1.7-4.5C74.8,107.9,76.2,105.4,70.8,103.3L70.8,103.3L70.8,103.3
					z M67.5,103.8c0.5,0.2,0.7,0.7,0.6,1.2s-0.7,0.7-1.2,0.6c-0.5-0.2-0.7-0.7-0.6-1.2S67,103.6,67.5,103.8L67.5,103.8L67.5,103.8z"
					/>
				<path fill="#FFFFFF" d="M63.2,123.7c5.2,2,5.7-0.4,5.7-0.4l0.9-2.3l-5-1.9l0.3-0.7L72,121c0,0,3.2,1.6,5.2-3.6
					c2-5.2-1-6.2-1-6.2l-1.7-0.7l-0.9,2.4c0,0-1,2.9-4,1.8l-4.9-1.9c0,0-2.7-1.1-3.8,1.6l-1.7,4.5C59.2,119.1,57.7,121.6,63.2,123.7
					L63.2,123.7L63.2,123.7z M66.5,123.2c-0.5-0.2-0.7-0.7-0.6-1.2c0.2-0.5,0.7-0.7,1.2-0.6s0.7,0.7,0.6,1.2
					C67.6,123.1,67,123.4,66.5,123.2L66.5,123.2L66.5,123.2z"/>
			</g>
		</g>
		<g>
			<g>
				<path fill="#FFFFFF" d="M84.9,109.6c0,0.1,0,0.1-0.1,0.3c-0.2,0-0.6,0-0.9,0.2c-0.3,0.1-0.5,0.3-0.4,0.5c0.1,0.2,0.5,0.2,1,0
					c1.3-0.6,0.9-1.5,2.8-2.4c1.5-0.7,2.5-0.5,2.8,0c0.3,0.4,0,1-1,1.5c-0.9,0.4-1.6,0.4-1.8,0.1c-0.1-0.1-0.1-0.4,0.4-0.6
					c0.1,0.2,0.5,0.3,1.1,0c0.4-0.2,0.8-0.5,0.6-0.7c-0.1-0.2-0.7-0.2-1.4,0.1c-1.5,0.7-1.6,1.7-2.8,2.3c-0.9,0.4-1.8,0.4-2.1-0.1
					c-0.1-0.2-0.3-0.6,0.7-1.1C84.3,109.5,84.8,109.4,84.9,109.6L84.9,109.6z M81.9,116.7c-0.2,0.7-0.2,1.4,0.1,2s0.8,1,1.4,1.2
					c0.7,0.2,1.2,0.1,1.8-0.2c0.2-0.1,0.4-0.3,0.7-0.5c-0.5,0.2-1,0.2-1.6,0c-0.6-0.2-1.1-0.5-1.4-1.1c-0.3-0.5-0.4-1.1-0.2-1.6
					c0.2-0.6,0.5-1,1.1-1.2c0.6-0.3,1.1-0.3,1.8-0.1c-0.2-0.1-0.4-0.2-0.6-0.3c-0.6-0.2-1.2-0.1-1.8,0.3
					C82.5,115.5,82.1,116,81.9,116.7L81.9,116.7z M87.6,111.3c-1.6,0.6-3.2,1-4.3,1.1c-1.2,0.1-1.9,0-2.1-0.3
					c-0.1-0.2,0-0.3,0.1-0.6c-0.6,0.5-0.9,0.9-0.8,1.3c0.2,0.4,1,0.5,2.4,0.4c1.3-0.1,2.9-0.5,4.8-1.2c1.9-0.7,3.4-1.4,4.5-2.2
					c1.2-0.8,1.7-1.4,1.5-1.8c-0.1-0.3-0.5-0.4-1.1-0.5c0.1,0,0.3,0.1,0.3,0.3c0.1,0.4-0.3,0.9-1.4,1.6
					C90.7,110,89.3,110.7,87.6,111.3L87.6,111.3z M92.7,110.7c-1.1,0.7-2.6,1.5-4.5,2.2c-1.9,0.7-3.5,1.1-4.9,1.2
					c-1.2,0.1-1.9,0-2.2-0.2c0.7,1.3,1.6,2.4,2.7,3.3c0.7,0.5,1.4,1,2.1,1.5c0.3,0.3,0.6,0.7,0.9,1c0.5,0.3,1,0.4,1.6,0.4
					c0.8,0,1.5-0.2,2.2-0.5l0.1,0c0.7-0.2,1.4-0.6,2-1.1c0.4-0.3,0.8-0.8,0.9-1.3l0,0c-0.1-0.4-0.1-0.9,0-1.3
					c0.2-0.8,0.5-1.6,0.7-2.5c0.2-1.4,0.2-2.8-0.1-4.3C94.1,109.6,93.6,110.1,92.7,110.7L92.7,110.7z"/>
			</g>
		</g>
		<g>
			<g>
				<path fill="#FFFFFF" d="M121.7,137.1l-0.8,6.8l4.7,3.5l0.2-2l-3.2-2.3l0.4-3l3.2,2.3l0.2-1.8L121.7,137.1L121.7,137.1z"/>
				<path fill="#FFFFFF" d="M131.9,138.3l-0.8,6.8l-5.4,2.3l0.2-2l3.6-1.5l0.4-3l-3.6,1.5l0.2-1.8L131.9,138.3L131.9,138.3z"/>
				<path fill="#FFFFFF" d="M120.3,149.7l0.8-6.8l5.4-2.3l-0.2,2l-3.6,1.5l-0.3,2.9l3.6-1.5l-0.2,2L120.3,149.7L120.3,149.7z"/>
				<path fill="#FFFFFF" d="M130.4,150.9l0.8-6.8l-4.7-3.5l-0.2,2l3.2,2.3l-0.3,2.9l-3.2-2.3l-0.2,2L130.4,150.9L130.4,150.9z"/>
			</g>
		</g>
		<path fill="#FFFFFF" d="M121.9,151.5c-2.1,0-3.8,1.7-3.8,3.8c0,2.1,1.7,3.8,3.8,3.8c2.1,0,3.8-1.7,3.8-3.8
			C125.7,153.2,124,151.5,121.9,151.5z M124,153.7c-0.2,0-0.3-0.1-0.3-0.3c0-0.1,0-0.1,0.1-0.2c0-0.1,0-0.1,0-0.1
			c0-0.1-0.2-0.1-0.2-0.1c-0.6,0-0.7,0.8-0.8,1.4l-0.1,0.3c0.3,0,0.6,0,0.7-0.1c0.2-0.1-0.1-0.2,0-0.4c0-0.1,0.2-0.2,0.3-0.2
			c0.1,0,0.2,0.1,0.2,0.3c0,0.2-0.3,0.6-1,0.6c-0.1,0-0.2,0-0.2,0l-0.1,0.7c-0.1,0.5-0.3,1.2-0.8,1.8c-0.4,0.5-0.9,0.6-1.1,0.6
			c-0.4,0-0.6-0.2-0.6-0.5c0-0.3,0.2-0.4,0.4-0.4c0.2,0,0.3,0.1,0.3,0.3c0,0.1-0.1,0.2-0.1,0.2c0,0-0.1,0.1-0.1,0.1
			c0,0,0,0.1,0.1,0.1c0.2,0,0.3-0.1,0.3-0.1c0.4-0.3,0.5-0.8,0.7-1.8l0-0.2c0.1-0.3,0.1-0.7,0.2-1c-0.3-0.2-0.4-0.4-0.8-0.5
			c-0.2-0.1-0.4,0-0.5,0.1c-0.1,0.2-0.1,0.4,0,0.5l0.2,0.2c0.2,0.3,0.4,0.5,0.3,0.8c-0.1,0.5-0.6,0.8-1.3,0.6
			c-0.6-0.2-0.7-0.6-0.6-0.8c0.1-0.2,0.2-0.2,0.4-0.2c0.2,0,0.2,0.2,0.2,0.4c0,0,0,0,0,0.1c0,0-0.1,0.1-0.1,0.1
			c0,0.1,0.1,0.2,0.2,0.2c0.2,0.1,0.5-0.1,0.5-0.3c0.1-0.2-0.1-0.3-0.1-0.4l-0.2-0.2c-0.1-0.1-0.3-0.4-0.2-0.8
			c0-0.1,0.1-0.3,0.3-0.4c0.3-0.2,0.6-0.2,0.9-0.2c0.4,0.1,0.6,0.4,0.8,0.6c0.1-0.4,0.3-0.8,0.6-1.1c0.3-0.3,0.6-0.5,1-0.5
			c0.4,0,0.7,0.2,0.7,0.4C124.3,153.4,124.2,153.7,124,153.7z"/>
		<g>
			<path fill="#FFFFFF" d="M103.3,96c-1.2-0.7-2.7-0.9-4.1-0.6c-2.1,0.5-3.7,2.4-3.9,4.5c-0.3,2,0.8,4.1,2.5,5.1
				c1.7,1.1,4,1,5.7-0.1c1.5-1,2.4-2.7,2.4-4.5C105.8,98.6,104.8,96.9,103.3,96z M100.9,105c-2.4,0.2-4.7-1.8-4.8-4.2
				c-0.2-1.9,1.1-3.9,2.9-4.5c2.6-1,5.7,0.9,6,3.6C105.5,102.3,103.4,104.9,100.9,105z"/>
			<path fill="#FFFFFF" d="M100.9,100.2c0.6-1,1.3-1.9,1.9-2.8c-1.2,0.9-2.3,1.9-3.5,2.8C99.8,100.2,100.3,100.2,100.9,100.2z"/>
			<path fill="#FFFFFF" d="M98.4,103.6c1.2-0.9,2.3-1.9,3.5-2.8c-0.5,0-1.1,0-1.6,0C99.6,101.7,99,102.6,98.4,103.6z"/>
		</g>
	</g>
	<g>
		<g>
			<path fill="#00AEEF" d="M378.8,107.8c-1.1,2.1-1.9,3.7-2.5,4.8c-0.6,1-1.1,2-1.6,2.8c-0.5,0.8-1.1,1.7-1.7,2.7
				c-0.7,1-1.7,2.5-3.1,4.4c3.3-0.7,6.3-1.2,9.1-1.6c2.8-0.3,5.3-0.4,7.7-0.3c0.3,0.1,0.3,0.5,0.2,1.2c-0.1,0.6-0.3,1.3-0.7,2
				c-0.4,0.7-0.8,1.4-1.4,1.9c-0.6,0.6-1.1,0.9-1.8,0.9c-1.9-0.1-4.4,0.1-7.5,0.6c-3.1,0.5-6.6,1.2-10.5,2.1
				c-3.2,4.5-6.8,9.2-10.7,14.1c-3.9,4.9-8.1,9.9-12.4,14.9c-4.4,5-8.9,9.9-13.6,14.7c-4.7,4.8-9.6,9.3-14.5,13.5
				c-5,4.2-10,8-15,11.4c-5.1,3.4-10.1,6.2-15.1,8.4l-0.4-0.6c7.6-4.9,14.9-10.4,21.7-16.5c6.9-6.1,13.3-12.4,19.3-18.9
				c6-6.5,11.6-13,16.7-19.6c5.1-6.6,9.7-12.8,13.7-18.7c-2.5,0.8-5.1,1.6-7.9,2.6c-2.8,0.9-5.6,1.9-8.4,2.9c-2.8,1-5.5,1.9-8.1,2.8
				c-2.6,0.9-4.8,1.7-6.7,2.5c-1.9,0.7-3.4,1.4-4.5,1.9c-1.1,0.5-1.6,0.8-1.4,0.9c-0.1,0-0.1,0-0.1,0.1l-0.1,0.1
				c-0.1-0.1-0.1-0.3-0.2-0.4c-0.1-0.2-0.2-0.4-0.2-0.6c2-1.5,4.5-3.1,7.6-4.8c3-1.7,6.4-3.4,10.1-5c3.7-1.7,7.6-3.3,11.7-4.9
				c4.1-1.6,8.3-3,12.4-4.3c1.4-2.2,2.6-4.1,3.6-5.8c1.1-1.7,2.1-3.3,3-4.8c0.9-1.5,1.9-3.1,2.8-4.7c0.9-1.6,2-3.3,3.2-5.3
				c1.4-2.5,1.7-4.1,0.8-4.9c-0.9-0.7-2.6-0.9-5.3-0.6c-2.7,0.3-5.8,1-9.3,2.1c-3.5,1.1-7.1,2.4-10.9,4c-3.8,1.6-7.6,3.3-11.6,5.1
				c-3.9,1.8-7.6,3.7-11.2,5.4c-3.5,1.8-6.8,3.4-9.7,5c-2.9,1.6-5.4,2.8-7.3,3.8l-0.9-0.8c0.5-0.3,1.6-1,3.3-2.1
				c1.7-1.2,3.7-2.6,6.3-4.2s5.4-3.5,8.6-5.4c3.2-2,6.6-3.9,10.1-5.9c3.6-2,7.2-3.8,11-5.6c3.8-1.7,7.4-3.2,11-4.5
				c3.6-1.2,7-2.1,10.3-2.6c3.3-0.5,6.2-0.5,8.9,0.1c2.1,0.5,3.6,1.3,4.5,2.2c0.9,1,1.3,2.1,1.4,3.3s-0.2,2.6-0.8,4
				C380.2,105,379.5,106.4,378.8,107.8z"/>
			<path fill="#00AEEF" d="M355.4,171.6c-0.6,1.1-1,2-1.2,2.8c-0.1,0.7,0.1,1.4,0.8,1.9c0.3,0.3,0.9,0.3,1.7,0
				c0.8-0.2,1.8-0.6,2.8-1c1-0.5,2.1-1,3.1-1.6c1-0.6,1.9-1.2,2.6-1.7c0.3-0.2,0.8-0.6,1.5-1.2c0.7-0.6,1.5-1.3,2.3-2
				c0.8-0.7,1.5-1.4,2.2-2c0.7-0.6,1.2-1.1,1.6-1.4c0.5-0.3,0.9-0.3,1.2,0.1c0.3,0.4,0.2,0.8-0.1,1.1c-0.3,0.4-1.2,1.2-2.7,2.6
				c-1.5,1.3-3.3,2.9-5.5,4.8c-3.7,3.1-7.7,4.9-12.1,5.2c-0.8,0.1-1.7,0.1-2.5,0c-0.8,0-1.5-0.2-2.2-0.4c-0.6-0.3-1.2-0.6-1.6-1
				c-0.4-0.4-0.7-1-0.7-1.7c-0.1-1.9,0.5-4.1,1.9-6.7c1.4-2.6,3.4-5,5.8-7.2c1.1-1,2.6-2.2,4.4-3.3c1.8-1.2,3.7-2.1,5.7-2.6
				c1.2-0.3,2.3-0.4,3.3-0.3c1,0.1,2,0.5,2.9,1.2c0.7,0.7,1.1,1.4,1.1,2c0,0.6-0.2,1.3-0.5,2.1c-0.9,2.1-2.7,4.2-5.2,6.2
				c-1.9,1.4-3.7,2.4-5.6,3S356.8,171.4,355.4,171.6z M368.3,162.3c-0.3-0.2-0.7-0.2-1.1-0.1c-0.4,0.1-0.9,0.2-1.4,0.4
				c-0.6,0.3-1.3,0.6-2,1c-0.7,0.4-1.4,0.9-2.1,1.3c-0.7,0.5-1.3,0.9-1.9,1.4c-0.6,0.5-1.1,0.8-1.5,1.2c-0.5,0.5-0.9,0.9-1,1.1
				c-0.2,0.2-0.3,0.3-0.3,0.4c0,0.1,0,0.1,0,0.1c0,0,0,0.1-0.1,0.2c1.1,0,2.4-0.4,3.9-1.1c1.5-0.7,2.8-1.5,3.8-2.2
				c1-0.8,1.8-1.5,2.3-2C367.3,163.4,367.8,162.8,368.3,162.3z"/>
			<path fill="#00AEEF" d="M397.6,165.7c-1.7,1.7-3.5,3.4-5.3,5.1c-1.8,1.7-3.7,3.1-5.6,4.4c-1.9,1.3-3.9,2.3-6.1,3.2
				c-2.1,0.8-4.4,1.3-6.8,1.4c-1.6,0.1-2.8-0.2-3.8-0.8c-1-0.6-1.7-1.2-2.2-1.7c-1-1-1.5-1.7-1.3-1.9c0.2-0.3,0.4-0.3,0.6-0.2
				c0.2,0.1,1,0.2,2.3,0.3c1.1,0.2,2.3-0.1,3.6-0.8c1.3-0.7,2.4-1.6,3.3-2.5c0.6-0.6,1-1.3,1.1-1.9c0.2-0.6,0.2-1.3,0.2-2
				c0-0.7-0.1-1.4-0.3-2.1c-0.2-0.7-0.3-1.5-0.4-2.2l-9.2,8c-0.5,0.5-0.9,0.5-1.2,0.1c-0.3-0.4-0.3-0.8,0-1.2l10.4-9.5
				c0.5-1.9,1.6-3.7,3.1-5.2c1.6-1.5,3.9-2.3,7-2.4c0.7,0,1.5,0.1,2.4,0.2c0.9,0.1,1.7,0.4,2.3,0.9c0.7,0.5,1.2,1.1,1.4,1.9
				c0.2,0.7,0.1,1.5-0.3,2.2c-0.3,0.5-0.7,0.9-1.2,1.1c-0.5,0.2-0.9,0.3-1.5,0.3c-0.5,0-1,0-1.4,0c-0.4-0.1-0.7-0.1-0.9-0.2
				c-1.2-0.4-2.2-0.5-2.8-0.3c-0.6,0.2-1.1,0.3-1.3,0.5c-0.5,0.3-0.7,0.8-0.8,1.5c-0.1,0.6,0,1.4,0.1,2.1c0.1,0.8,0.3,1.5,0.5,2.2
				c0.2,0.7,0.4,1.3,0.5,1.7c0.5,1.9,0.5,3.5-0.2,4.8c-0.6,1.3-1.6,2.5-2.7,3.6c0.1,0,0.1,0,0.2-0.1c2.9-1.2,5.6-2.8,8-4.9
				c2.4-2,4.8-4.1,7.1-6.4c0.3-0.3,0.5-0.2,0.9,0.1C397.7,165.3,397.8,165.5,397.6,165.7z"/>
			<path fill="#00AEEF" d="M411.7,165.8c0.3-0.3,0.7-0.3,1.2,0c0.5,0.2,0.5,0.7,0,1.3l-7.6,6.5l-3.1,2.6c-1.4,1.2-2.9,2.1-4.8,2.8
				c-1.8,0.7-3.9,0.7-6.2,0c-0.7-0.2-1.2-0.8-1.6-1.8c-0.4-1-0.1-2.3,0.8-4c0.8-1.7,2-3.6,3.5-5.7c1.5-2.1,3.2-4.3,5-6.6
				c1.8-2.3,3.6-4.7,5.6-7.1c1.9-2.5,3.8-4.9,5.5-7.3c1.7-2.4,3.3-4.8,4.7-7c1.4-2.3,2.4-4.4,3.1-6.4c0.1-0.3,0.2-0.6,0.2-0.9
				c0-0.3,0-0.5,0.1-0.6c0.1-0.1,0.2-0.2,0.3-0.1c0.2,0.1,0.5,0.3,1,0.7l0.3,0.3c1.2,1.5,1.6,3.4,1.3,5.8c-0.3,2.4-1.4,5.1-3.4,8.3
				c-1.5,2.3-3.1,4.6-4.9,7.1c-1.7,2.5-3.5,4.9-5.2,7.2h4.8l-1.7,2.1h-4.6l-1,1.4c-1.2,1.6-2.1,2.9-2.8,3.8
				c-0.7,0.9-1.2,1.7-1.6,2.2c-0.4,0.5-0.6,0.9-0.8,1.1c-0.1,0.2-0.2,0.4-0.3,0.6c-1.4,2.1-2,3.4-2,4c0.1,0.5,0.6,0.5,1.7,0
				c1.1-0.5,2.8-1.8,5.3-3.9L411.7,165.8z"/>
		</g>
		<g>
			<path fill="#00AEEF" d="M380.1,107.8c-1.1,2.1-1.9,3.7-2.5,4.8c-0.6,1-1.1,2-1.6,2.8c-0.5,0.8-1.1,1.7-1.7,2.7
				c-0.7,1-1.7,2.5-3.1,4.4c3.3-0.7,6.3-1.2,9.1-1.6c2.8-0.3,5.3-0.4,7.7-0.3c0.3,0.1,0.3,0.5,0.2,1.2c-0.1,0.6-0.3,1.3-0.7,2
				c-0.4,0.7-0.8,1.4-1.4,1.9c-0.6,0.6-1.1,0.9-1.8,0.9c-1.9-0.1-4.4,0.1-7.5,0.6c-3.1,0.5-6.6,1.2-10.5,2.1
				c-3.2,4.5-6.8,9.2-10.7,14.1c-3.9,4.9-8.1,9.9-12.4,14.9c-4.4,5-8.9,9.9-13.6,14.7c-4.7,4.8-9.6,9.3-14.5,13.5
				c-5,4.2-10,8-15,11.4c-5.1,3.4-10.1,6.2-15.1,8.4l-0.4-0.6c7.6-4.9,14.9-10.4,21.7-16.5c6.9-6.1,13.3-12.4,19.3-18.9
				c6-6.5,11.6-13,16.7-19.6c5.1-6.6,9.7-12.8,13.7-18.7c-2.5,0.8-5.1,1.6-7.9,2.6c-2.8,0.9-5.6,1.9-8.4,2.9c-2.8,1-5.5,1.9-8.1,2.8
				c-2.6,0.9-4.8,1.7-6.7,2.5c-1.9,0.7-3.4,1.4-4.5,1.9c-1.1,0.5-1.6,0.8-1.4,0.9c-0.1,0-0.1,0-0.1,0.1l-0.1,0.1
				c-0.1-0.1-0.1-0.3-0.2-0.4c-0.1-0.2-0.2-0.4-0.2-0.6c2-1.5,4.5-3.1,7.6-4.8c3-1.7,6.4-3.4,10.1-5c3.7-1.7,7.6-3.3,11.7-4.9
				c4.1-1.6,8.3-3,12.4-4.3c1.4-2.2,2.6-4.1,3.6-5.8c1.1-1.7,2.1-3.3,3-4.8c0.9-1.5,1.9-3.1,2.8-4.7c0.9-1.6,2-3.3,3.2-5.3
				c1.4-2.5,1.7-4.1,0.8-4.9c-0.9-0.7-2.6-0.9-5.3-0.6c-2.7,0.3-5.8,1-9.3,2.1c-3.5,1.1-7.1,2.4-10.9,4c-3.8,1.6-7.6,3.3-11.6,5.1
				c-3.9,1.8-7.6,3.7-11.2,5.4c-3.5,1.8-6.8,3.4-9.7,5c-2.9,1.6-5.4,2.8-7.3,3.8l-0.9-0.8c0.5-0.3,1.6-1,3.3-2.1
				c1.7-1.2,3.7-2.6,6.3-4.2s5.4-3.5,8.6-5.4c3.2-2,6.6-3.9,10.1-5.9c3.6-2,7.2-3.8,11-5.6c3.8-1.7,7.4-3.2,11-4.5
				c3.6-1.2,7-2.1,10.3-2.6c3.3-0.5,6.2-0.5,8.9,0.1c2.1,0.5,3.6,1.3,4.5,2.2c0.9,1,1.3,2.1,1.4,3.3s-0.2,2.6-0.8,4
				C381.6,105,380.9,106.4,380.1,107.8z"/>
			<path fill="#00AEEF" d="M356.7,171.6c-0.6,1.1-1,2-1.2,2.8c-0.1,0.7,0.1,1.4,0.8,1.9c0.3,0.3,0.9,0.3,1.7,0
				c0.8-0.2,1.8-0.6,2.8-1c1-0.5,2.1-1,3.1-1.6c1-0.6,1.9-1.2,2.6-1.7c0.3-0.2,0.8-0.6,1.5-1.2c0.7-0.6,1.5-1.3,2.3-2
				c0.8-0.7,1.5-1.4,2.2-2c0.7-0.6,1.2-1.1,1.6-1.4c0.5-0.3,0.9-0.3,1.2,0.1c0.3,0.4,0.2,0.8-0.1,1.1c-0.3,0.4-1.2,1.2-2.7,2.6
				c-1.5,1.3-3.3,2.9-5.5,4.8c-3.7,3.1-7.7,4.9-12.1,5.2c-0.8,0.1-1.7,0.1-2.5,0c-0.8,0-1.5-0.2-2.2-0.4c-0.6-0.3-1.2-0.6-1.6-1
				c-0.4-0.4-0.7-1-0.7-1.7c-0.1-1.9,0.5-4.1,1.9-6.7c1.4-2.6,3.4-5,5.8-7.2c1.1-1,2.6-2.2,4.4-3.3c1.8-1.2,3.7-2.1,5.7-2.6
				c1.2-0.3,2.3-0.4,3.3-0.3c1,0.1,2,0.5,2.9,1.2c0.7,0.7,1.1,1.4,1.1,2c0,0.6-0.2,1.3-0.5,2.1c-0.9,2.1-2.7,4.2-5.2,6.2
				c-1.9,1.4-3.7,2.4-5.6,3S358.1,171.4,356.7,171.6z M369.6,162.3c-0.3-0.2-0.7-0.2-1.1-0.1c-0.4,0.1-0.9,0.2-1.4,0.4
				c-0.6,0.3-1.3,0.6-2,1c-0.7,0.4-1.4,0.9-2.1,1.3c-0.7,0.5-1.3,0.9-1.9,1.4c-0.6,0.5-1.1,0.8-1.5,1.2c-0.5,0.5-0.9,0.9-1,1.1
				c-0.2,0.2-0.3,0.3-0.3,0.4c0,0.1,0,0.1,0,0.1c0,0,0,0.1-0.1,0.2c1.1,0,2.4-0.4,3.9-1.1c1.5-0.7,2.8-1.5,3.8-2.2
				c1-0.8,1.8-1.5,2.3-2C368.7,163.4,369.2,162.8,369.6,162.3z"/>
			<path fill="#00AEEF" d="M398.9,165.7c-1.7,1.7-3.5,3.4-5.3,5.1c-1.8,1.7-3.7,3.1-5.6,4.4c-1.9,1.3-3.9,2.3-6.1,3.2
				c-2.1,0.8-4.4,1.3-6.8,1.4c-1.6,0.1-2.8-0.2-3.8-0.8c-1-0.6-1.7-1.2-2.2-1.7c-1-1-1.5-1.7-1.3-1.9c0.2-0.3,0.4-0.3,0.6-0.2
				c0.2,0.1,1,0.2,2.3,0.3c1.1,0.2,2.3-0.1,3.6-0.8c1.3-0.7,2.4-1.6,3.3-2.5c0.6-0.6,1-1.3,1.1-1.9c0.2-0.6,0.2-1.3,0.2-2
				c0-0.7-0.1-1.4-0.3-2.1c-0.2-0.7-0.3-1.5-0.4-2.2l-9.2,8c-0.5,0.5-0.9,0.5-1.2,0.1c-0.3-0.4-0.3-0.8,0-1.2l10.4-9.5
				c0.5-1.9,1.6-3.7,3.1-5.2c1.6-1.5,3.9-2.3,7-2.4c0.7,0,1.5,0.1,2.4,0.2c0.9,0.1,1.7,0.4,2.3,0.9c0.7,0.5,1.2,1.1,1.4,1.9
				c0.2,0.7,0.1,1.5-0.3,2.2c-0.3,0.5-0.7,0.9-1.2,1.1c-0.5,0.2-0.9,0.3-1.5,0.3c-0.5,0-1,0-1.4,0c-0.4-0.1-0.7-0.1-0.9-0.2
				c-1.2-0.4-2.2-0.5-2.8-0.3c-0.6,0.2-1.1,0.3-1.3,0.5c-0.5,0.3-0.7,0.8-0.8,1.5c-0.1,0.6,0,1.4,0.1,2.1c0.1,0.8,0.3,1.5,0.5,2.2
				c0.2,0.7,0.4,1.3,0.5,1.7c0.5,1.9,0.5,3.5-0.2,4.8c-0.6,1.3-1.6,2.5-2.7,3.6c0.1,0,0.1,0,0.2-0.1c2.9-1.2,5.6-2.8,8-4.9
				c2.4-2,4.8-4.1,7.1-6.4c0.3-0.3,0.5-0.2,0.9,0.1C399.1,165.3,399.1,165.5,398.9,165.7z"/>
			<path fill="#00AEEF" d="M413,165.8c0.3-0.3,0.7-0.3,1.2,0c0.5,0.2,0.5,0.7,0,1.3l-7.6,6.5l-3.1,2.6c-1.4,1.2-2.9,2.1-4.8,2.8
				c-1.8,0.7-3.9,0.7-6.2,0c-0.7-0.2-1.2-0.8-1.6-1.8c-0.4-1-0.1-2.3,0.8-4c0.8-1.7,2-3.6,3.5-5.7c1.5-2.1,3.2-4.3,5-6.6
				c1.8-2.3,3.6-4.7,5.6-7.1c1.9-2.5,3.8-4.9,5.5-7.3c1.7-2.4,3.3-4.8,4.7-7c1.4-2.3,2.4-4.4,3.1-6.4c0.1-0.3,0.2-0.6,0.2-0.9
				c0-0.3,0-0.5,0.1-0.6c0.1-0.1,0.2-0.2,0.3-0.1c0.2,0.1,0.5,0.3,1,0.7l0.3,0.3c1.2,1.5,1.6,3.4,1.3,5.8c-0.3,2.4-1.4,5.1-3.4,8.3
				c-1.5,2.3-3.1,4.6-4.9,7.1c-1.7,2.5-3.5,4.9-5.2,7.2h4.8l-1.7,2.1h-4.6l-1,1.4c-1.2,1.6-2.1,2.9-2.8,3.8
				c-0.7,0.9-1.2,1.7-1.6,2.2c-0.4,0.5-0.6,0.9-0.8,1.1c-0.1,0.2-0.2,0.4-0.3,0.6c-1.4,2.1-2,3.4-2,4c0.1,0.5,0.6,0.5,1.7,0
				c1.1-0.5,2.8-1.8,5.3-3.9L413,165.8z"/>
		</g>
	</g>
</g>
</svg>
