<?xml version="1.0" encoding="utf-8"?>
<!-- Generator: Adobe Illustrator 18.0.0, SVG Export Plug-In . SVG Version: 6.00 Build 0)  -->
<!DOCTYPE svg PUBLIC "-//W3C//DTD SVG 1.1//EN" "http://www.w3.org/Graphics/SVG/1.1/DTD/svg11.dtd">
<svg version="1.1" id="Layer_1" xmlns="http://www.w3.org/2000/svg" xmlns:xlink="http://www.w3.org/1999/xlink" x="0px" y="0px"
	 viewBox="0 0 720 221" enable-background="new 0 0 720 221" xml:space="preserve">
<g>
	<g>
		<path fill="#00A1DF" d="M111.4,5.8C54,5.8,7.3,52.3,7.3,109.5c0,57.2,46.7,103.7,104.2,103.7s104.2-46.5,104.2-103.7
			C215.6,52.3,168.9,5.8,111.4,5.8z M111.5,205.2c-52.5,0-95.1-42.6-95.1-95c0-52.5,42.6-95,95.1-95c52.5,0,95,42.6,95,95
			C206.5,162.6,164,205.2,111.5,205.2z"/>
		<path fill="#00A1DF" d="M85,156c-15.7-7.4-26.6-24-26.6-43.4c0-10.2,3-19.6,8.2-27.3l34.3,51.1h20.7l34.3-51.1
			c5.2,7.7,8.2,17.2,8.2,27.3c0,18-9.5,33.7-23.5,41.7l6.6,25.3c25.1-13,42.3-39.1,42.3-69.4c0-28.5-15.3-53.5-38.2-67.1l-39.8,61.4
			L72,43C49,56.6,33.5,81.6,33.5,110.3c0,31.3,18.4,58.3,45.1,70.7L85,156z"/>
	</g>
	<g>
		<polygon fill="#00A1DF" points="294.2,120.3 268.6,65.8 255.3,65.8 255.3,153.4 268.6,153.4 268.6,94.8 289.3,137.6 299.1,137.6 
			319.3,94.8 319.3,153.4 332.6,153.4 332.6,65.8 319.3,65.8 		"/>
		<path fill="#00A1DF" d="M382.6,129.1c0,9.6-5.9,13.9-12.9,13.9c-7,0-12.6-4.2-12.6-13.9V91h-12.6v39.9c0,7,1.5,12.9,6.3,17.6
			c3.7,3.6,9,5.7,15.4,5.7c6.3,0,12.3-2.3,16.6-7v6.3h12.3V91h-12.6V129.1z"/>
		<path fill="#00A1DF" d="M419.7,135.5V65.8h-12.6v70.4c0,9.2,5.2,17.2,17.1,17.2h7.7v-10.7h-5.5
			C421.4,142.7,419.7,140.3,419.7,135.5z"/>
		<path fill="#00A1DF" d="M462.2,90.3c-16,0-26.5,11.7-26.5,31.9c0,23.8,12.4,32,28.1,32c11,0,17-3.3,23.4-9.7l-8-7.5
			c-4.4,4.4-8.1,6.4-15.1,6.4c-10.2,0-15.9-6.8-15.9-17.5h40.5v-5.5C488.7,102.6,479,90.3,462.2,90.3z M448.2,117.1
			c0.1-3.8,0.4-5.7,1.6-8.5c2-4.7,6.5-7.9,12.4-7.9c5.9,0,10.3,3.2,12.3,7.9c1.2,2.8,1.6,4.7,1.7,8.5H448.2z"/>
		<path fill="#00A1DF" d="M550.7,110.5c-3.7-3.3-8.2-5.3-16.4-6.5l-10-1.5c-4.1-0.6-7.6-2.1-9.8-4.1c-2.3-2.1-3.3-4.9-3.3-8.1
			c0-7.8,5.7-13.7,16-13.7c7.4,0,13.7,1.6,19.1,6.8l8.5-8.4c-7.5-7-15.6-10-27.2-10c-18.2,0-29.3,10.5-29.3,25.7
			c0,7.1,2.1,12.7,6.4,16.7c3.8,3.6,9.5,6,16.6,7l10.3,1.5c5.2,0.7,7.4,1.6,9.6,3.7c2.3,2.1,3.4,5.3,3.4,9.1
			c0,8.5-6.7,13.4-18.1,13.4c-9,0-16-2-22.4-8.4l-8.9,8.7c8.4,8.5,17.9,11.6,31,11.6c18.3,0,31.5-9.6,31.5-25.7
			C557.8,120.9,555.5,114.7,550.7,110.5z"/>
		<path fill="#00A1DF" d="M590.9,90.3c-8.5,0-14.5,3.2-18.6,7.4c-5.9,6.1-7.4,14-7.4,24.5c0,10.6,1.5,18.5,7.4,24.6
			c4.1,4.2,10.1,7.4,18.6,7.4c8.5,0,14.7-3.2,18.7-7.4c5.9-6.1,7.4-14,7.4-24.6c0-10.5-1.5-18.4-7.4-24.5
			C605.6,93.5,599.4,90.3,590.9,90.3z M600.2,139.3c-2.3,2.3-5.5,3.7-9.2,3.7c-3.7,0-6.8-1.4-9.1-3.7c-3.8-3.8-4.3-10.3-4.3-17.1
			c0-6.8,0.5-13.3,4.3-17.1c2.3-2.3,5.4-3.6,9.1-3.6c3.7,0,6.9,1.2,9.2,3.6c3.8,3.8,4.3,10.3,4.3,17.1
			C604.5,128.9,604,135.5,600.2,139.3z"/>
		<path fill="#00A1DF" d="M629.7,82.5v9.6h-7.2v9.6h7.2v51.7h12.6v-51.7h12.4v-9.6h-12.4v-9c0-4.6,2.2-7.3,6.9-7.3h5.5V65.2h-7.9
			C635.1,65.2,629.7,73.5,629.7,82.5z"/>
		<path fill="#00A1DF" d="M682.2,73.2h-12.5v18.9h-7.2v9.6h7.2v34.3c0,9,5.4,17.4,17.1,17.4h7.5v-10.7h-5.2c-4.7,0-6.9-2.7-6.9-7.3
			v-33.7h12.1v-9.6h-12.1V73.2z"/>
		<path fill="#00A1DF" d="M709.8,82.8c-0.4-0.8-0.8-1.5-1.5-2.1c-0.6-0.6-1.3-1.1-2.1-1.4c-0.8-0.3-1.7-0.5-2.6-0.5
			c-0.9,0-1.8,0.2-2.6,0.5c-0.8,0.3-1.5,0.8-2.2,1.4c-0.6,0.6-1.1,1.3-1.5,2.1c-0.4,0.8-0.5,1.7-0.5,2.6c0,1,0.2,1.9,0.5,2.7
			c0.4,0.8,0.8,1.5,1.5,2.1s1.3,1.1,2.2,1.4c0.8,0.3,1.7,0.5,2.6,0.5c0.9,0,1.8-0.2,2.6-0.5c0.8-0.3,1.5-0.8,2.1-1.4
			c0.6-0.6,1.1-1.3,1.5-2.1c0.4-0.8,0.5-1.7,0.5-2.7C710.3,84.5,710.1,83.7,709.8,82.8z M708.7,87.8c-0.3,0.7-0.7,1.3-1.2,1.8
			c-0.5,0.5-1.1,0.9-1.8,1.2c-0.7,0.3-1.4,0.4-2.2,0.4c-0.8,0-1.5-0.1-2.2-0.4c-0.7-0.3-1.3-0.7-1.8-1.2c-0.5-0.5-0.9-1.1-1.2-1.8
			c-0.3-0.7-0.4-1.5-0.4-2.3c0-0.8,0.1-1.6,0.4-2.2c0.3-0.7,0.7-1.3,1.2-1.8c0.5-0.5,1.1-0.9,1.8-1.2c0.7-0.3,1.4-0.4,2.2-0.4
			c0.8,0,1.5,0.1,2.2,0.4c0.7,0.3,1.3,0.7,1.8,1.2c0.5,0.5,0.9,1.1,1.2,1.8c0.3,0.7,0.4,1.4,0.4,2.2C709.1,86.3,709,87.1,708.7,87.8
			z"/>
		<path fill="#00A1DF" d="M706.2,85.4c0.4-0.3,0.6-0.8,0.6-1.6c0-0.8-0.2-1.3-0.7-1.7c-0.4-0.4-1.1-0.6-2.1-0.6h-3v7.9h1.2v-3.4h1.3
			l2.1,3.4h1.3l-2.2-3.5C705.3,85.9,705.8,85.7,706.2,85.4z M703.5,85.1h-1.3v-2.5h1.6c0.2,0,0.4,0,0.6,0c0.2,0,0.4,0.1,0.6,0.2
			c0.2,0.1,0.3,0.2,0.4,0.4c0.1,0.2,0.2,0.4,0.2,0.6c0,0.3-0.1,0.6-0.2,0.7c-0.1,0.2-0.3,0.3-0.5,0.4c-0.2,0.1-0.4,0.1-0.7,0.2
			C704,85.1,703.7,85.1,703.5,85.1z"/>
	</g>
</g>
</svg>
