<?xml version="1.0" encoding="utf-8"?>
<!-- Generator: Adobe Illustrator 18.0.0, SVG Export Plug-In . SVG Version: 6.00 Build 0)  -->
<!DOCTYPE svg PUBLIC "-//W3C//DTD SVG 1.1//EN" "http://www.w3.org/Graphics/SVG/1.1/DTD/svg11.dtd">
<svg version="1.1" xmlns="http://www.w3.org/2000/svg" xmlns:xlink="http://www.w3.org/1999/xlink" x="0px" y="0px"
	 viewBox="0 489.6 848 206.1" enable-background="new 0 489.6 848 206.1" xml:space="preserve">
<g id="Layer_2">
</g>
<g id="Layer_4">
	<g id="XMLID_7_">
		<path id="XMLID_2_" fill="#FFFFFF" d="M276.4,546.9c0,10.9-3.2,19.8-9.7,26.2c-7.4,7.7-17.1,11.6-28.9,11.6
			c-11.3,0-21-3.9-28.9-11.8c-7.9-7.8-11.9-17.7-11.9-29.2s4-21.4,11.9-29.2c7.9-7.8,17.6-11.8,28.9-11.8c5.6,0,11,1.1,16.2,3.3
			c5.1,2.2,9.2,5.1,12.2,8.8l-6.9,6.9c-5.2-6.2-12.3-9.3-21.5-9.3c-8.2,0-15.5,2.9-21.5,8.7c-6,5.8-9,13.3-9,22.7s3,16.9,9,22.7
			c6,5.8,13.1,8.7,21.5,8.7c8.8,0,16.1-2.9,22-8.8c3.8-3.8,6-9.1,6.6-16h-28.6V541h38.1C276.2,543.1,276.4,545,276.4,546.9
			L276.4,546.9z"/>
		<path id="XMLID_4_" fill="#FFFFFF" d="M286.4,583v-78.6h24.1c12,0,21.8,3.6,29,10.9c7.2,7.3,10.8,16.8,10.8,28.4
			s-3.6,21.1-10.8,28.4s-16.9,10.9-29,10.9h-24.1V583z M296.5,573.4h13.9c9,0,16.3-2.6,21.6-7.8c5.3-5.2,7.9-12.4,7.9-21.9
			c0-9.3-2.6-16.6-7.9-21.8c-5.3-5.2-12.5-7.8-21.6-7.8h-13.9C296.5,514.1,296.5,573.4,296.5,573.4z"/>
		<path id="XMLID_8_" fill="#FFFFFF" d="M436,546.9c0,10.9-3.2,19.8-9.7,26.2c-7.4,7.7-17.1,11.6-28.9,11.6
			c-11.3,0-21-3.9-28.9-11.8c-7.9-7.8-11.9-17.7-11.9-29.2s4-21.4,11.9-29.2c7.9-7.8,17.6-11.8,28.9-11.8c5.6,0,11,1.1,16.2,3.3
			c5.1,2.2,9.2,5.1,12.2,8.8l-6.9,6.9c-5.2-6.2-12.3-9.3-21.5-9.3c-8.2,0-15.5,2.9-21.5,8.7c-6,5.8-9,13.3-9,22.7s3,16.9,9,22.7
			c6,5.8,13.1,8.7,21.5,8.7c8.8,0,16.1-2.9,22-8.8c3.8-3.8,6-9.1,6.6-16h-28.6V541h38.1C435.8,543.1,436,545,436,546.9L436,546.9z"
			/>
		<path id="XMLID_10_" fill="#FFFFFF" d="M472.4,583v-78.6h24.1c12,0,21.8,3.6,29,10.9c7.2,7.3,10.8,16.8,10.8,28.4
			s-3.6,21.1-10.8,28.4c-7.2,7.3-16.9,10.9-29,10.9h-24.1L472.4,583z M482.6,573.4h13.9c9,0,16.3-2.6,21.6-7.8
			c5.3-5.2,7.9-12.4,7.9-21.9c0-9.3-2.6-16.6-7.9-21.8c-5.3-5.2-12.5-7.8-21.6-7.8h-13.9C482.6,514.1,482.6,573.4,482.6,573.4z"/>
		<path id="XMLID_13_" fill="#FFFFFF" d="M569.4,584.8c-8.1,0-14.8-2.7-19.8-8.1c-5.1-5.4-7.6-12.2-7.6-20.6
			c0-7.8,2.5-14.5,7.4-20.2c4.9-5.6,11.2-8.4,19-8.4c7.9,0,14.3,2.6,19.2,7.8c4.8,5.2,7.2,12.1,7.2,20.9l-0.1,1.9h-42.4
			c0.3,5.4,2.1,9.7,5.4,12.8c3.3,3.1,7.2,4.7,11.6,4.7c7.2,0,12.1-3.1,14.8-9.2l9,3.7c-1.8,4.2-4.6,7.6-8.6,10.4
			C580.2,583.4,575.3,584.8,569.4,584.8L569.4,584.8z M583.9,549.7c-0.2-3.1-1.6-6-4.2-8.8c-2.6-2.8-6.4-4.2-11.5-4.2
			c-3.7,0-6.9,1.2-9.7,3.5c-2.7,2.3-4.6,5.5-5.6,9.4h31.1V549.7z"/>
		<path id="XMLID_16_" fill="#FFFFFF" d="M615.8,583L594,529.2h11l15.9,41.7h0.2l16.1-41.7h10.7l-22,53.8H615.8z"/>
		<path id="XMLID_18_" fill="#FFFFFF" d="M663.9,583h-10.1v-78.6h45.9v9.6h-35.8v25.8h32.3v9.4h-32.3V583H663.9z"/>
		<path id="XMLID_20_" fill="#FFFFFF" d="M730.2,584.8c-8.1,0-14.8-2.7-19.8-8.1c-5.1-5.4-7.6-12.2-7.6-20.6
			c0-7.8,2.5-14.5,7.4-20.2c4.9-5.6,11.2-8.4,19-8.4c7.9,0,14.3,2.6,19.2,7.8s7.2,12.1,7.2,20.9l-0.1,1.9H713
			c0.3,5.4,2.1,9.7,5.4,12.8c3.3,3.1,7.2,4.7,11.6,4.7c7.2,0,12.1-3.1,14.8-9.2l9,3.7c-1.8,4.2-4.6,7.6-8.6,10.4
			C740.9,583.4,736,584.8,730.2,584.8L730.2,584.8z M744.7,549.7c-0.2-3.1-1.6-6-4.2-8.8c-2.6-2.8-6.4-4.2-11.5-4.2
			c-3.7,0-6.9,1.2-9.7,3.5c-2.7,2.3-4.6,5.5-5.6,9.4h31.1V549.7z"/>
		<path id="XMLID_27_" fill="#FFFFFF" d="M782.2,584.8c-6,0-10.9-1.5-14.9-4.4c-3.9-2.9-6.8-6.6-8.6-10.9l9-3.7
			c2.8,6.7,7.7,10.1,14.5,10.1c3.1,0,5.7-0.7,7.7-2.1c2-1.4,3-3.2,3-5.5c0-3.5-2.4-5.9-7.3-7.1l-10.8-2.6c-3.4-0.9-6.7-2.5-9.7-5
			c-3.1-2.4-4.6-5.7-4.6-9.9c0-4.7,2.1-8.6,6.3-11.5c4.2-3,9.2-4.4,15-4.4c4.7,0,9,1.1,12.7,3.2c3.7,2.2,6.4,5.2,8,9.2l-8.8,3.6
			c-2-4.7-6.1-7.1-12.2-7.1c-3,0-5.5,0.6-7.5,1.9c-2,1.2-3.1,2.9-3.1,5c0,3.1,2.4,5.1,7.1,6.2l10.6,2.5c5,1.2,8.8,3.2,11.2,6
			c2.4,2.8,3.6,6.1,3.6,9.6c0,4.8-2,8.8-5.9,12C793.5,583.2,788.4,584.8,782.2,584.8L782.2,584.8z"/>
		<path id="XMLID_29_" fill="#FFFFFF" d="M833.8,583.9c-5.6,0-9.9-1.5-12.9-4.5c-3-3-4.4-7.2-4.4-12.7v-28.2H807v-9.2h9.4v-16.5
			h10.1v16.5h13.1v9.2h-13.1v27.4c0,5.8,2.4,8.8,7.2,8.8c1.8,0,3.4-0.3,4.6-0.9l3.5,8.6C839.7,583.4,837,583.9,833.8,583.9
			L833.8,583.9z"/>
		<path id="XMLID_46_" fill="#FFFFFF" d="M700.6,671.1h-32.4v-6.9c9.7-9.8,15.9-16.1,18.7-19.1c2.4-2.7,4.1-4.8,4.9-6.2
			c0.8-1.4,1.3-3.1,1.3-5.2s-0.8-4-2.5-5.6c-1.7-1.6-3.9-2.4-6.8-2.4c-2.6,0-4.7,0.7-6.2,2.2s-2.6,3.1-3.1,4.9l-6.2-2.5
			c0.8-2.6,2.6-5.2,5.3-7.6c2.6-2.4,6.1-3.5,10.4-3.5c4.7,0,8.6,1.4,11.6,4.3c3,2.9,4.5,6.3,4.5,10.3c0,5-2.7,10.3-8.1,15.9
			l-14.9,14.9h23.6L700.6,671.1L700.6,671.1z"/>
		<path id="XMLID_48_" fill="#FFFFFF" d="M739.7,664.6c-3.7,5.1-8.7,7.7-14.8,7.7s-11-2.6-14.8-7.7c-3.7-5.1-5.6-11.4-5.6-18.9
			c0-7.6,1.9-13.9,5.6-18.9c3.7-5.1,8.7-7.6,14.8-7.6s11,2.5,14.8,7.6c3.7,5.1,5.6,11.4,5.6,18.9S743.4,659.5,739.7,664.6z
			 M724.9,665.8c4.1,0,7.3-1.9,9.8-5.7c2.4-3.8,3.7-8.6,3.7-14.3s-1.2-10.6-3.7-14.4s-5.7-5.7-9.8-5.7c-4.1,0-7.4,1.9-9.8,5.7
			c-2.4,3.8-3.7,8.6-3.7,14.4c0,5.8,1.2,10.5,3.7,14.3C717.6,663.9,720.8,665.8,724.9,665.8z"/>
		<path id="XMLID_51_" fill="#FFFFFF" d="M767,671.1h-6.9v-42.3l-9.8,4.3l-2.6-5.8l14.9-7h4.4L767,671.1L767,671.1z"/>
		<path id="XMLID_53_" fill="#FFFFFF" d="M792.9,638.6c3.9,0,7.6,1.6,10.9,4.9c3.3,3.3,5,7.2,5,11.7c0,4.5-1.7,8.5-5.2,11.9
			s-7.5,5.1-12.2,5.1c-5,0-9.2-1.7-12.5-5.2c-3.3-3.5-5-7.4-5-11.8c0-4.7,2-10,6-15.8l13.8-20.4l5.5,3.8l-12.1,16.8l0.1,0.1
			C788.5,639,790.4,638.6,792.9,638.6L792.9,638.6z M791.4,665.6c2.9,0,5.4-1,7.4-3c2-2,3.1-4.4,3.1-7.3c0-2.9-1-5.3-3.1-7.3
			c-2-2-4.5-3-7.4-3s-5.4,1-7.4,3c-2.1,2-3.1,4.4-3.1,7.3c0,2.9,1,5.4,3.1,7.3C786,664.7,788.5,665.6,791.4,665.6z"/>
		<g>
			<path fill="#FFFFFF" d="M196.7,618.6H212c7.1,0,12.2,1,15.3,3.1c3.1,2.1,4.7,5.3,4.7,9.8c0,3-0.8,5.5-2.3,7.5s-3.8,3.2-6.7,3.8
				v0.4c3.6,0.7,6.2,2,7.9,4c1.7,2,2.5,4.7,2.5,8.1c0,4.6-1.6,8.2-4.8,10.8s-7.7,3.9-13.4,3.9h-18.5V618.6z M205.1,639.8h8.1
				c3.5,0,6.1-0.6,7.7-1.7c1.6-1.1,2.4-3,2.4-5.7c0-2.4-0.9-4.2-2.6-5.2c-1.7-1.1-4.5-1.6-8.3-1.6h-7.3V639.8z M205.1,646.6v16.2
				h8.9c3.5,0,6.2-0.7,7.9-2c1.8-1.3,2.7-3.5,2.7-6.4c0-2.7-0.9-4.6-2.7-5.9c-1.8-1.3-4.6-1.9-8.3-1.9H205.1z"/>
			<path fill="#FFFFFF" d="M270.7,669.9l-1.2-5.1h-0.4c-1.1,1.8-2.8,3.2-4.9,4.2c-2.1,1-4.5,1.5-7.2,1.5c-4.7,0-8.2-1.2-10.5-3.5
				c-2.3-2.3-3.5-5.9-3.5-10.6v-25.4h8.3V655c0,3,0.6,5.2,1.8,6.7c1.2,1.5,3.1,2.2,5.7,2.2c3.5,0,6-1,7.6-3.1
				c1.6-2.1,2.4-5.5,2.4-10.4v-19.3h8.3v38.8H270.7z"/>
			<path fill="#FFFFFF" d="M305.8,670.6c-6,0-10.8-1.8-14.2-5.3s-5.1-8.4-5.1-14.5c0-6.3,1.6-11.3,4.7-14.9c3.2-3.6,7.5-5.4,13-5.4
				c5.1,0,9.2,1.6,12.1,4.7c3,3.1,4.5,7.4,4.5,12.8v4.5h-25.9c0.1,3.8,1.1,6.7,3.1,8.7c1.9,2,4.6,3,8.1,3c2.3,0,4.4-0.2,6.4-0.6
				c2-0.4,4.1-1.2,6.4-2.2v6.7c-2,1-4,1.6-6.1,2C310.8,670.4,308.5,670.6,305.8,670.6z M304.3,636.6c-2.6,0-4.7,0.8-6.3,2.5
				c-1.6,1.7-2.5,4.1-2.8,7.3h17.6c0-3.2-0.8-5.6-2.3-7.3C309,637.4,306.9,636.6,304.3,636.6z"/>
			<path fill="#FFFFFF" d="M364.4,669.9h-8.3V646c0-3-0.6-5.2-1.8-6.7c-1.2-1.5-3.1-2.2-5.7-2.2c-3.5,0-6,1-7.6,3.1
				c-1.6,2.1-2.4,5.5-2.4,10.3v19.3h-8.2v-38.8h6.5l1.2,5.1h0.4c1.2-1.8,2.8-3.3,5-4.3c2.2-1,4.5-1.5,7.2-1.5c9.3,0,14,4.7,14,14.2
				V669.9z"/>
			<path fill="#FFFFFF" d="M410.3,650.4c0,6.3-1.6,11.3-4.9,14.8c-3.3,3.6-7.8,5.3-13.6,5.3c-3.6,0-6.8-0.8-9.6-2.5
				c-2.8-1.6-4.9-4-6.4-7.1c-1.5-3.1-2.2-6.6-2.2-10.7c0-6.3,1.6-11.2,4.8-14.7c3.2-3.5,7.8-5.3,13.6-5.3c5.6,0,10.1,1.8,13.3,5.4
				C408.7,639.4,410.3,644.3,410.3,650.4z M382.1,650.4c0,9,3.3,13.4,9.9,13.4c6.5,0,9.8-4.5,9.8-13.4c0-8.9-3.3-13.3-9.9-13.3
				c-3.5,0-6,1.1-7.5,3.4C382.8,642.8,382.1,646.1,382.1,650.4z"/>
			<path fill="#FFFFFF" d="M445.8,658.8c0,3.8-1.4,6.7-4.1,8.7c-2.8,2-6.7,3-11.9,3c-5.2,0-9.3-0.8-12.5-2.3v-7.1
				c4.6,2.1,8.8,3.2,12.7,3.2c5.1,0,7.6-1.5,7.6-4.6c0-1-0.3-1.8-0.8-2.5c-0.6-0.7-1.5-1.3-2.8-2s-3.1-1.5-5.4-2.4
				c-4.5-1.7-7.5-3.5-9.1-5.2c-1.6-1.7-2.4-4-2.4-6.7c0-3.3,1.3-5.9,4-7.7c2.7-1.8,6.3-2.8,10.9-2.8c4.6,0,8.9,0.9,12.9,2.8
				l-2.7,6.2c-4.2-1.7-7.7-2.6-10.6-2.6c-4.3,0-6.5,1.2-6.5,3.7c0,1.2,0.6,2.2,1.7,3.1c1.1,0.8,3.6,2,7.4,3.5c3.2,1.2,5.5,2.4,7,3.4
				c1.4,1,2.5,2.2,3.2,3.6C445.5,655.3,445.8,656.9,445.8,658.8z"/>
			<path fill="#FFFFFF" d="M506.1,669.9l-5.1-14.2h-19.6l-5,14.2h-8.8l19.2-51.5h9.1l19.2,51.5H506.1z M498.8,648.4l-4.8-14
				c-0.4-0.9-0.8-2.4-1.5-4.4c-0.6-2-1-3.5-1.3-4.4c-0.6,2.9-1.6,6-2.8,9.4l-4.6,13.4H498.8z"/>
			<path fill="#FFFFFF" d="M520.4,620.8c0-1.5,0.4-2.6,1.2-3.4s2-1.2,3.5-1.2c1.4,0,2.6,0.4,3.4,1.2s1.2,1.9,1.2,3.4
				c0,1.4-0.4,2.5-1.2,3.3s-1.9,1.2-3.4,1.2c-1.5,0-2.6-0.4-3.5-1.2S520.4,622.2,520.4,620.8z M529.1,669.9h-8.2v-38.8h8.2V669.9z"
				/>
			<path fill="#FFFFFF" d="M560.6,630.4c1.7,0,3,0.1,4.1,0.4l-0.8,7.7c-1.2-0.3-2.4-0.4-3.6-0.4c-3.3,0-6,1.1-8,3.2
				c-2,2.2-3.1,4.9-3.1,8.4v20.3h-8.2v-38.8h6.5l1.1,6.8h0.4c1.3-2.3,3-4.2,5-5.5S558.2,630.4,560.6,630.4z"/>
			<path fill="#FFFFFF" d="M588.8,670.6c-6,0-10.8-1.8-14.2-5.3s-5.1-8.4-5.1-14.5c0-6.3,1.6-11.3,4.7-14.9c3.2-3.6,7.5-5.4,13-5.4
				c5.1,0,9.2,1.6,12.1,4.7s4.5,7.4,4.5,12.8v4.5h-25.9c0.1,3.8,1.1,6.7,3.1,8.7c1.9,2,4.6,3,8.1,3c2.3,0,4.4-0.2,6.4-0.6
				c2-0.4,4.1-1.2,6.4-2.2v6.7c-2,1-4,1.6-6.1,2C593.8,670.4,591.5,670.6,588.8,670.6z M587.3,636.6c-2.6,0-4.7,0.8-6.3,2.5
				c-1.6,1.7-2.5,4.1-2.8,7.3h17.6c0-3.2-0.8-5.6-2.3-7.3C592,637.4,589.9,636.6,587.3,636.6z"/>
			<path fill="#FFFFFF" d="M639.3,658.8c0,3.8-1.4,6.7-4.1,8.7c-2.8,2-6.7,3-11.9,3c-5.2,0-9.3-0.8-12.5-2.3v-7.1
				c4.6,2.1,8.8,3.2,12.7,3.2c5.1,0,7.6-1.5,7.6-4.6c0-1-0.3-1.8-0.8-2.5c-0.6-0.7-1.5-1.3-2.8-2s-3.1-1.5-5.4-2.4
				c-4.5-1.7-7.5-3.5-9.1-5.2c-1.6-1.7-2.4-4-2.4-6.7c0-3.3,1.3-5.9,4-7.7c2.7-1.8,6.3-2.8,10.9-2.8c4.6,0,8.9,0.9,12.9,2.8
				l-2.7,6.2c-4.2-1.7-7.7-2.6-10.6-2.6c-4.3,0-6.5,1.2-6.5,3.7c0,1.2,0.6,2.2,1.7,3.1c1.1,0.8,3.6,2,7.4,3.5c3.2,1.2,5.5,2.4,7,3.4
				c1.4,1,2.5,2.2,3.2,3.6C639,655.3,639.3,656.9,639.3,658.8z"/>
		</g>
	</g>
	<g id="XMLID_261_">
		<path id="XMLID_259_" fill="#FFFFFF" d="M32.4,494.9H0l92.6,160.6l16.3-28.1L32.4,494.9z"/>
		<path id="XMLID_258_" fill="#FFFFFF" d="M121.3,586.2l-52.8-91.3H36.2l74.6,129.2l10.5-18.3c1.7-2.8,2.8-6.2,2.8-9.8
			C124,592.5,123,589.2,121.3,586.2z"/>
		<path id="XMLID_257_" fill="#FFFFFF" d="M56.5,599.4L0.9,695.6h32.4l39.4-68.2L56.5,599.4z"/>
		<path id="XMLID_256_" fill="#FFFFFF" d="M74.6,630.7l-37.4,64.9h32.3l21.4-36.9L74.6,630.7z"/>
	</g>
</g>
</svg>
