<?xml version="1.0" encoding="utf-8"?>
<!-- Generator: Adobe Illustrator 18.0.0, SVG Export Plug-In . SVG Version: 6.00 Build 0)  -->
<!DOCTYPE svg PUBLIC "-//W3C//DTD SVG 1.1//EN" "http://www.w3.org/Graphics/SVG/1.1/DTD/svg11.dtd">
<svg version="1.1" id="Layer_4" xmlns="http://www.w3.org/2000/svg" xmlns:xlink="http://www.w3.org/1999/xlink" x="0px" y="0px"
	 viewBox="0 0 596.8 134" enable-background="new 0 0 596.8 134" xml:space="preserve">
<g>
	<g>
		<g>
			<defs>
				<rect id="SVGID_1_" x="-49" y="-29.1" width="192" height="192"/>
			</defs>
			<clipPath id="SVGID_2_">
				<use xlink:href="#SVGID_1_"  overflow="visible"/>
			</clipPath>
		</g>
	</g>
	<g id="XMLID_50_">
		<g id="XMLID_72_">
			<path fill="none" d="M85.4,60.9l-33.5-58H7l37,64l-37,64h44.8l33.5-58C87.5,69.2,87.5,64.6,85.4,60.9z"/>
			<polygon id="XMLID_80_" fill="#FFC107" points="66.2,105.2 55.5,86.8 30,130.9 51.8,130.9 66.4,105.7 			"/>
			<path fill="none" d="M85.4,60.9l-33.5-58H7l37,64l-37,64h44.8l33.5-58C87.5,69.2,87.5,64.6,85.4,60.9z"/>
			<polygon fill="#0F9D58" points="44,66.9 55.5,86.8 30,130.9 7,130.9 			"/>
			<path fill="none" d="M85.4,60.9l-33.5-58H7l37,64l-37,64h44.8l33.5-58C87.5,69.2,87.5,64.6,85.4,60.9z"/>
			<polygon opacity="0.2" fill="#BF360C" enable-background="new    " points="51.8,129.9 30.6,129.9 30,130.9 51.8,130.9 
				66.4,105.7 66.2,105.2 			"/>
			<path fill="none" d="M85.4,60.9l-33.5-58H7l37,64l-37,64h44.8l33.5-58C87.5,69.2,87.5,64.6,85.4,60.9z"/>
			<polygon opacity="0.2" fill="#263238" enable-background="new    " points="7.6,129.9 7,130.9 30,130.9 30.6,129.9 			"/>
			<path fill="none" d="M85.4,60.9l-33.5-58H7l37,64l-37,64h44.8l33.5-58C87.5,69.2,87.5,64.6,85.4,60.9z"/>
			<polygon opacity="0.2" fill="#FFFFFF" enable-background="new    " points="7,130.9 7.6,130.9 44.3,67.4 44,66.9 			"/>
			<path fill="none" d="M85.4,60.9l-33.5-58H7l37,64l-37,64h44.8l33.5-58C87.5,69.2,87.5,64.6,85.4,60.9z"/>
			
				<radialGradient id="XMLID_2_" cx="66.2766" cy="28.0227" r="44.2635" gradientTransform="matrix(1 0 0 -1 0 133.3333)" gradientUnits="userSpaceOnUse">
				<stop  offset="0" style="stop-color:#BF360C;stop-opacity:0.2"/>
				<stop  offset="1" style="stop-color:#BF360C;stop-opacity:2.000000e-02"/>
			</radialGradient>
			<polygon id="XMLID_79_" fill="url(#XMLID_2_)" points="66.4,105.7 66.4,105.7 55.5,86.8 52.8,91.4 			"/>
			<path fill="none" d="M85.4,60.9l-33.5-58H7l37,64l-37,64h44.8l33.5-58C87.5,69.2,87.5,64.6,85.4,60.9z"/>
			
				<radialGradient id="XMLID_3_" cx="66.1509" cy="27.7428" r="44.6228" gradientTransform="matrix(1 0 0 -1 0 133.3333)" gradientUnits="userSpaceOnUse">
				<stop  offset="0" style="stop-color:#263238;stop-opacity:0.2"/>
				<stop  offset="1" style="stop-color:#263238;stop-opacity:2.000000e-02"/>
			</radialGradient>
			<polygon id="XMLID_78_" fill="url(#XMLID_3_)" points="52.8,91.4 55.5,86.8 44,66.9 38.5,76.4 			"/>
			<path fill="none" d="M85.4,60.9l-33.5-58H7l37,64l-37,64h44.8l33.5-58C87.5,69.2,87.5,64.6,85.4,60.9z"/>
			<g id="XMLID_75_">
				<g id="XMLID_76_">
					<polygon id="XMLID_77_" fill="#4285F4" points="30,2.9 7,2.9 66.4,105.7 77.9,85.8 77.9,85.8 					"/>
				</g>
			</g>
			<path fill="none" d="M85.4,60.9l-33.5-58H7l37,64l-37,64h44.8l33.5-58C87.5,69.2,87.5,64.6,85.4,60.9z"/>
			<path fill="#DB4437" d="M85.4,72.9c2.1-3.7,2.1-8.3,0-12l-33.5-58H30l47.9,82.9L85.4,72.9z"/>
			<path fill="none" d="M85.4,60.9l-33.5-58H7l37,64l-37,64h44.8l33.5-58C87.5,69.2,87.5,64.6,85.4,60.9z"/>
			<polygon opacity="0.2" fill="#1A237E" enable-background="new    " points="77.9,85.8 77.7,85.3 66.4,104.7 7.6,2.9 7,2.9 
				66.4,105.7 77.9,85.8 			"/>
			<path fill="none" d="M85.4,60.9l-33.5-58H7l37,64l-37,64h44.8l33.5-58C87.5,69.2,87.5,64.6,85.4,60.9z"/>
			<path opacity="0.2" fill="#FFFFFF" enable-background="new    " d="M51.8,3.9l33.5,58c1,1.7,1.5,3.6,1.6,5.5
				c0.1-2.2-0.4-4.5-1.6-6.5l-33.5-58H7l0.6,1H51.8z"/>
			<path fill="none" d="M85.4,60.9l-33.5-58H7l37,64l-37,64h44.8l33.5-58C87.5,69.2,87.5,64.6,85.4,60.9z"/>
			<path id="XMLID_74_" opacity="0.2" fill="#3E2723" enable-background="new    " d="M77.9,85.8l7.4-12.9c1.2-2,1.7-4.3,1.6-6.5
				c-0.1,1.9-0.6,3.8-1.6,5.5l-7.7,13.4L77.9,85.8z"/>
			<path fill="none" d="M85.4,60.9l-33.5-58H7l37,64l-37,64h44.8l33.5-58C87.5,69.2,87.5,64.6,85.4,60.9z"/>
			
				<radialGradient id="XMLID_4_" cx="6" cy="129.3967" r="134.3503" gradientTransform="matrix(1 0 0 -1 0 133.3333)" gradientUnits="userSpaceOnUse">
				<stop  offset="0" style="stop-color:#FFFFFF;stop-opacity:0.1"/>
				<stop  offset="1" style="stop-color:#FFFFFF;stop-opacity:0"/>
			</radialGradient>
			<path id="XMLID_73_" fill="url(#XMLID_4_)" d="M85.4,60.9l-33.5-58H7l37,64l-37,64h44.8l33.5-58C87.5,69.2,87.5,64.6,85.4,60.9z"
				/>
		</g>
	</g>
</g>
<g id="Layer_4_1_" opacity="0.54">
	<g id="XMLID_8_">
		<path id="XMLID_104_" d="M173.3,9.3h16.6c16.9,0,27.5,11.2,27.5,27c0,15.8-10.6,27-27.5,27h-16.6L173.3,9.3L173.3,9.3z
			 M190.2,55.1c11.8,0,19.1-6.5,19.1-18.8c0-12.2-7.3-18.8-19.1-18.8h-8.7v37.6H190.2z"/>
		<rect id="XMLID_103_" x="110.8" y="7.9" display="none" width="166.8" height="58.9"/>
		<path id="XMLID_102_" d="M166.4,33.9h-25.9v8h18.3c-0.6,4.1-2,7.3-4.1,9.4c-2.7,2.7-6.9,5.7-14.3,5.7c-11.4,0-20.4-9.2-20.4-20.6
			s8.9-20.6,20.4-20.6c6.2,0,10.7,2.4,14,5.5l5.5-5.5c-4.6-4.4-10.8-7.8-19.5-7.8c-15.7,0-28.8,12.7-28.8,28.4
			c0,15.7,13.2,28.4,28.8,28.4c8.4,0,14.8-2.8,19.8-8c5.1-5.1,6.7-12.3,6.7-18.2C166.8,36.8,166.7,35.3,166.4,33.9z"/>
		<path id="XMLID_86_" d="M277.7,33.9h-25.9v8H270c-0.6,4.1-2,7.3-4.1,9.4c-2.7,2.7-6.9,5.7-14.3,5.7c-11.4,0-20.4-9.2-20.4-20.6
			s8.9-20.6,20.4-20.6c6.2,0,10.7,2.4,14,5.5l5.5-5.5c-4.6-4.4-10.8-7.8-19.5-7.8c-15.7,0-28.8,12.7-28.8,28.4
			c0,15.7,13.2,28.4,28.8,28.4c8.4,0,14.8-2.8,19.8-8c5.1-5.1,6.7-12.3,6.7-18.2C278.1,36.8,277.9,35.3,277.7,33.9z"/>
	</g>
</g>
<g opacity="0.54">
	<path d="M304.5,7.8h21.8c3.9,0,7.3,0.8,10.4,2.3c3.1,1.5,5.7,3.6,7.9,6.2c2.2,2.6,3.9,5.6,5.1,9.1c1.2,3.5,1.7,7.2,1.7,11.1
		c0,4-0.6,7.8-1.9,11.3c-1.3,3.5-3,6.6-5.2,9.1c-2.2,2.6-4.9,4.6-7.9,6.1c-3.1,1.5-6.5,2.2-10.2,2.2h-21.8V7.8z M312.9,57.6h11
		c2.8,0,5.3-0.5,7.6-1.4c2.3-0.9,4.3-2.3,6-4.1c1.7-1.8,3-4,4-6.7c0.9-2.6,1.4-5.6,1.4-8.9c0-3.7-0.5-6.8-1.4-9.5
		c-1-2.6-2.3-4.8-4-6.6c-1.7-1.7-3.7-3-6-3.9c-2.3-0.8-4.8-1.2-7.5-1.2h-11V57.6z"/>
	<path d="M367.9,46.6c0.2,1.5,0.6,3,1.2,4.5c0.6,1.5,1.4,2.8,2.3,3.9c0.9,1.1,2,2,3.2,2.7c1.2,0.7,2.5,1,3.8,1c5,0,8.5-2.6,10.3-7.9
		h7.8c-0.6,2.4-1.4,4.5-2.6,6.4c-1.2,1.9-2.5,3.4-4.1,4.7c-1.6,1.3-3.4,2.3-5.3,2.9c-2,0.7-4,1-6.1,1c-2.9,0-5.6-0.6-8-1.8
		c-2.4-1.2-4.4-2.8-6.1-4.8c-1.7-2-2.9-4.4-3.9-7c-0.9-2.7-1.4-5.5-1.4-8.4c0-2.8,0.4-5.4,1.3-7.9c0.9-2.5,2.2-4.8,3.8-6.7
		c1.7-1.9,3.7-3.4,6.1-4.5c2.4-1.1,5.1-1.7,8-1.7c2.9,0,5.5,0.5,7.8,1.5s4.3,2.4,5.9,4.2c1.6,1.8,2.9,4,3.8,6.4
		c0.9,2.5,1.3,5.2,1.3,8v3.4H367.9z M377.9,30.3c-1.3,0-2.5,0.3-3.7,0.8c-1.2,0.5-2.2,1.2-3,2.1c-0.9,0.9-1.6,1.9-2.2,3.1
		c-0.6,1.2-1,2.4-1.1,3.7h20.5c-0.3-2.8-1.4-5.1-3.2-6.9C383.4,31.2,381,30.3,377.9,30.3z"/>
	<path d="M419.5,53.3L430,23.6h8.8l-15.3,41.5h-8.4l-15.3-41.5h9.1L419.5,53.3z"/>
	<path d="M481.6,7.8v7.5h-30v16.4h26.1v7.4h-26.1v25.9H443V7.8H481.6z"/>
	<path d="M497.8,46.6c0.2,1.5,0.6,3,1.2,4.5c0.6,1.5,1.4,2.8,2.3,3.9c0.9,1.1,2,2,3.2,2.7c1.2,0.7,2.5,1,3.8,1c5,0,8.5-2.6,10.3-7.9
		h7.8c-0.6,2.4-1.4,4.5-2.6,6.4c-1.2,1.9-2.5,3.4-4.1,4.7s-3.4,2.3-5.3,2.9c-2,0.7-4,1-6.1,1c-2.9,0-5.6-0.6-8-1.8
		c-2.4-1.2-4.4-2.8-6.1-4.8c-1.7-2-2.9-4.4-3.9-7c-0.9-2.7-1.4-5.5-1.4-8.4c0-2.8,0.4-5.4,1.3-7.9c0.9-2.5,2.2-4.8,3.8-6.7
		c1.7-1.9,3.7-3.4,6.1-4.5c2.4-1.1,5.1-1.7,8-1.7c2.9,0,5.5,0.5,7.8,1.5c2.3,1,4.3,2.4,5.9,4.2c1.6,1.8,2.9,4,3.8,6.4
		c0.9,2.5,1.3,5.2,1.3,8v3.4H497.8z M507.8,30.3c-1.3,0-2.5,0.3-3.7,0.8c-1.2,0.5-2.2,1.2-3,2.1c-0.9,0.9-1.6,1.9-2.2,3.1
		c-0.6,1.2-1,2.4-1.1,3.7h20.5c-0.3-2.8-1.4-5.1-3.2-6.9C513.3,31.2,510.9,30.3,507.8,30.3z"/>
	<path d="M543.2,50.8c0.1,2.9,0.8,5,2.3,6.2c1.5,1.2,3.3,1.7,5.5,1.7c0.9,0,1.9-0.1,2.9-0.2c1-0.2,1.9-0.4,2.8-0.8
		c0.8-0.4,1.5-0.9,2.1-1.6c0.6-0.6,0.8-1.5,0.8-2.5c0-0.8-0.3-1.5-0.8-2.2c-0.5-0.6-1.2-1.2-2.1-1.7c-0.9-0.5-1.9-0.9-3-1.4
		c-1.1-0.4-2.3-0.9-3.4-1.3c-1.7-0.6-3.3-1.2-5-1.9c-1.7-0.7-3.2-1.5-4.6-2.5c-1.4-0.9-2.5-2.1-3.4-3.4c-0.9-1.3-1.3-3-1.3-5
		c0-1.9,0.4-3.6,1.2-5c0.8-1.4,1.9-2.6,3.3-3.5c1.4-0.9,3-1.6,4.8-2.1c1.8-0.5,3.7-0.7,5.6-0.7c2.2,0,4.2,0.2,6.1,0.7
		c1.9,0.5,3.5,1.3,5,2.3c1.4,1.1,2.6,2.4,3.4,4c0.8,1.6,1.3,3.5,1.3,5.7h-8.4c-0.3-2.1-1.1-3.6-2.5-4.4c-1.4-0.8-3-1.1-4.9-1.1
		c-2.1,0-3.8,0.4-4.9,1.1c-1.1,0.8-1.7,1.8-1.7,3c0,0.7,0.3,1.3,0.8,1.9c0.6,0.6,1.3,1.1,2.2,1.7c0.9,0.5,1.9,1,3,1.5
		c1.1,0.5,2.2,0.9,3.3,1.2c1.6,0.6,3.2,1.3,4.9,2c1.7,0.7,3.2,1.6,4.6,2.6c1.4,1,2.5,2.1,3.4,3.4c0.9,1.3,1.3,2.7,1.3,4.4
		c0,2.3-0.5,4.3-1.4,5.9c-0.9,1.6-2.2,3-3.7,4c-1.6,1-3.4,1.8-5.4,2.3c-2.1,0.5-4.2,0.7-6.5,0.7c-2.2,0-4.3-0.3-6.2-0.9
		c-2-0.6-3.7-1.5-5.1-2.8c-1.5-1.3-2.7-2.8-3.6-4.7c-0.9-1.9-1.4-4.1-1.5-6.7H543.2z"/>
	<path d="M586.7,12v11.7h6.1v7.2h-6.1v24.4c0,1.3,0.3,2.3,0.8,2.8c0.6,0.5,1.3,0.7,2.2,0.7c0.4,0,0.8,0,1.4-0.1
		c0.6-0.1,1.5-0.2,2.6-0.6v7c-1.1,0.3-2.2,0.5-3.3,0.6c-1.1,0.1-2.1,0.2-3,0.2c-1.2,0-2.4-0.2-3.5-0.5c-1.1-0.3-2.1-0.8-2.9-1.5
		c-0.9-0.7-1.5-1.5-2-2.6c-0.5-1.1-0.7-2.4-0.7-4V30.8h-6.2v-7.2h6.2V12H586.7z"/>
</g>
<g opacity="0.54">
	<path d="M111.8,84.4h10.9c5.1,0,8.8,0.8,11.1,2.3c2.3,1.5,3.4,4,3.4,7.3c0,2.3-0.6,4.2-1.9,5.7c-1.3,1.5-3.1,2.5-5.6,2.9v0.3
		c5.9,1,8.8,4.1,8.8,9.3c0,3.5-1.2,6.2-3.5,8.1s-5.6,2.9-9.8,2.9h-13.5V84.4z M116.3,101h7.4c3.2,0,5.5-0.5,6.9-1.5
		c1.4-1,2.1-2.7,2.1-5c0-2.2-0.8-3.7-2.3-4.7c-1.6-1-4-1.4-7.4-1.4h-6.6V101z M116.3,104.8v14.5h8.1c3.1,0,5.5-0.6,7.1-1.8
		c1.6-1.2,2.4-3.1,2.4-5.7c0-2.4-0.8-4.2-2.4-5.3c-1.6-1.1-4.1-1.7-7.4-1.7H116.3z"/>
	<path d="M150.4,94.1v18.8c0,2.4,0.5,4.1,1.6,5.3s2.8,1.7,5.1,1.7c3,0,5.3-0.8,6.7-2.5c1.4-1.7,2.1-4.4,2.1-8.1V94.1h4.4v29h-3.6
		l-0.6-3.9h-0.2c-0.9,1.4-2.1,2.5-3.7,3.3c-1.6,0.8-3.4,1.1-5.5,1.1c-3.5,0-6.2-0.8-7.9-2.5c-1.8-1.7-2.6-4.4-2.6-8v-19H150.4z"/>
	<path d="M191.8,123.6c-4.3,0-7.7-1.3-10.1-3.9s-3.7-6.2-3.7-10.9c0-4.7,1.2-8.4,3.5-11.1c2.3-2.8,5.4-4.1,9.3-4.1
		c3.6,0,6.5,1.2,8.6,3.6c2.1,2.4,3.2,5.5,3.2,9.5v2.8h-20c0.1,3.4,0.9,6,2.6,7.8c1.6,1.8,3.9,2.6,6.9,2.6c3.1,0,6.2-0.7,9.3-2v3.9
		c-1.6,0.7-3,1.2-4.4,1.4C195.4,123.5,193.7,123.6,191.8,123.6z M190.6,97.2c-2.3,0-4.2,0.8-5.6,2.3c-1.4,1.5-2.2,3.6-2.4,6.3h15.2
		c0-2.8-0.6-4.9-1.9-6.4S192.9,97.2,190.6,97.2z"/>
	<path d="M229.8,123.1v-18.8c0-2.4-0.5-4.1-1.6-5.3c-1.1-1.2-2.8-1.7-5.1-1.7c-3,0-5.3,0.8-6.7,2.5c-1.4,1.6-2.1,4.3-2.1,8.1v15.2
		h-4.4v-29h3.6l0.7,4h0.2c0.9-1.4,2.2-2.5,3.8-3.3c1.6-0.8,3.4-1.2,5.4-1.2c3.5,0,6.1,0.8,7.9,2.5c1.8,1.7,2.6,4.4,2.6,8.1v18.9
		H229.8z"/>
	<path d="M268.2,108.5c0,4.7-1.2,8.4-3.6,11.1c-2.4,2.7-5.7,4-9.9,4c-2.6,0-4.9-0.6-6.9-1.8c-2-1.2-3.6-3-4.7-5.2
		c-1.1-2.3-1.6-4.9-1.6-8c0-4.7,1.2-8.4,3.5-11c2.4-2.6,5.6-4,9.8-4c4.1,0,7.3,1.3,9.7,4C267,100.3,268.2,103.9,268.2,108.5z
		 M246.1,108.5c0,3.7,0.7,6.5,2.2,8.5c1.5,1.9,3.7,2.9,6.5,2.9c2.9,0,5.1-1,6.5-2.9c1.5-1.9,2.2-4.8,2.2-8.5c0-3.7-0.7-6.5-2.2-8.4
		c-1.5-1.9-3.7-2.9-6.6-2.9c-2.9,0-5,0.9-6.5,2.8C246.8,102,246.1,104.8,246.1,108.5z"/>
	<path d="M294.6,115.2c0,2.7-1,4.8-3,6.2c-2,1.5-4.8,2.2-8.5,2.2c-3.8,0-6.8-0.6-9-1.8v-4.1c1.4,0.7,2.9,1.3,4.5,1.7
		c1.6,0.4,3.1,0.6,4.6,0.6c2.3,0,4.1-0.4,5.3-1.1c1.2-0.7,1.9-1.8,1.9-3.3c0-1.1-0.5-2.1-1.5-2.9s-2.9-1.8-5.7-2.8
		c-2.7-1-4.6-1.9-5.8-2.6c-1.1-0.7-2-1.6-2.5-2.6c-0.6-1-0.8-2.1-0.8-3.4c0-2.4,1-4.2,2.9-5.6c1.9-1.4,4.6-2.1,7.9-2.1
		c3.1,0,6.2,0.6,9.2,1.9l-1.6,3.6c-2.9-1.2-5.5-1.8-7.9-1.8c-2.1,0-3.7,0.3-4.7,1c-1.1,0.7-1.6,1.6-1.6,2.7c0,0.8,0.2,1.4,0.6,2
		s1,1.1,1.9,1.6c0.9,0.5,2.6,1.2,5.1,2.1c3.4,1.3,5.8,2.5,7,3.8C294,111.6,294.6,113.2,294.6,115.2z"/>
	<path d="M340.8,123.1l-4.8-12.3h-15.5l-4.8,12.3h-4.6l15.3-38.8h3.8l15.2,38.8H340.8z M334.6,106.7l-4.5-12
		c-0.6-1.5-1.2-3.4-1.8-5.6c-0.4,1.7-0.9,3.6-1.7,5.6l-4.6,12H334.6z"/>
	<path d="M349.7,86.2c0-1,0.2-1.7,0.7-2.2c0.5-0.5,1.1-0.7,1.9-0.7c0.7,0,1.3,0.2,1.8,0.7c0.5,0.5,0.8,1.2,0.8,2.2
		c0,1-0.3,1.7-0.8,2.2c-0.5,0.5-1.1,0.7-1.8,0.7c-0.7,0-1.4-0.2-1.9-0.7C350,87.9,349.7,87.2,349.7,86.2z M354.5,123.1h-4.4v-29h4.4
		V123.1z"/>
	<path d="M377,93.5c1.3,0,2.4,0.1,3.5,0.3l-0.6,4.1c-1.2-0.3-2.3-0.4-3.2-0.4c-2.3,0-4.4,1-6,2.9c-1.7,1.9-2.5,4.3-2.5,7.1v15.6
		h-4.4v-29h3.6l0.5,5.4h0.2c1.1-1.9,2.4-3.3,3.9-4.4C373.6,94.1,375.2,93.5,377,93.5z"/>
	<path d="M398.2,123.6c-4.3,0-7.7-1.3-10.1-3.9s-3.7-6.2-3.7-10.9c0-4.7,1.2-8.4,3.5-11.1c2.3-2.8,5.4-4.1,9.3-4.1
		c3.6,0,6.5,1.2,8.6,3.6c2.1,2.4,3.2,5.5,3.2,9.5v2.8h-20c0.1,3.4,0.9,6,2.6,7.8c1.6,1.8,3.9,2.6,6.9,2.6c3.1,0,6.2-0.7,9.3-2v3.9
		c-1.6,0.7-3,1.2-4.4,1.4C401.8,123.5,400.1,123.6,398.2,123.6z M397,97.2c-2.3,0-4.2,0.8-5.6,2.3c-1.4,1.5-2.2,3.6-2.4,6.3h15.2
		c0-2.8-0.6-4.9-1.9-6.4S399.3,97.2,397,97.2z"/>
	<path d="M435,115.2c0,2.7-1,4.8-3,6.2c-2,1.5-4.8,2.2-8.5,2.2c-3.8,0-6.8-0.6-9-1.8v-4.1c1.4,0.7,2.9,1.3,4.5,1.7
		c1.6,0.4,3.1,0.6,4.6,0.6c2.3,0,4.1-0.4,5.3-1.1c1.2-0.7,1.9-1.8,1.9-3.3c0-1.1-0.5-2.1-1.5-2.9s-2.9-1.8-5.7-2.8
		c-2.7-1-4.6-1.9-5.8-2.6c-1.1-0.7-2-1.6-2.5-2.6c-0.6-1-0.8-2.1-0.8-3.4c0-2.4,1-4.2,2.9-5.6c1.9-1.4,4.6-2.1,7.9-2.1
		c3.1,0,6.2,0.6,9.2,1.9l-1.6,3.6c-2.9-1.2-5.5-1.8-7.9-1.8c-2.1,0-3.7,0.3-4.7,1c-1.1,0.7-1.6,1.6-1.6,2.7c0,0.8,0.2,1.4,0.6,2
		s1,1.1,1.9,1.6c0.9,0.5,2.6,1.2,5.1,2.1c3.4,1.3,5.8,2.5,7,3.8C434.4,111.6,435,113.2,435,115.2z"/>
	<path d="M479.7,123.1h-25.4v-3.8l10.2-10.2c3.1-3.1,5.2-5.4,6.1-6.7s1.7-2.6,2.2-3.9c0.5-1.3,0.7-2.6,0.7-4.1
		c0-2.1-0.6-3.7-1.9-4.9c-1.3-1.2-3-1.8-5.2-1.8c-1.6,0-3.1,0.3-4.6,0.8c-1.4,0.5-3,1.5-4.8,2.9l-2.3-3c3.6-3,7.4-4.4,11.6-4.4
		c3.6,0,6.5,0.9,8.5,2.8c2.1,1.9,3.1,4.4,3.1,7.5c0,2.5-0.7,4.9-2.1,7.3c-1.4,2.4-4,5.4-7.7,9.1l-8.5,8.3v0.2h19.9V123.1z"/>
	<path d="M510.9,103.7c0,6.7-1.1,11.7-3.2,15c-2.1,3.3-5.3,4.9-9.7,4.9c-4.2,0-7.3-1.7-9.5-5.1c-2.2-3.4-3.3-8.3-3.3-14.9
		c0-6.7,1-11.7,3.1-15c2.1-3.3,5.3-4.9,9.6-4.9c4.2,0,7.4,1.7,9.6,5.1S510.9,97.2,510.9,103.7z M489.7,103.7c0,5.6,0.7,9.7,2,12.3
		c1.3,2.6,3.4,3.8,6.3,3.8c2.9,0,5-1.3,6.4-3.9s2-6.7,2-12.2c0-5.6-0.7-9.6-2-12.2c-1.3-2.6-3.4-3.9-6.4-3.9c-2.9,0-5,1.3-6.3,3.8
		C490.4,94,489.7,98.1,489.7,103.7z"/>
	<path d="M532.5,123.1h-4.3V95.5c0-2.3,0.1-4.5,0.2-6.5c-0.4,0.4-0.8,0.8-1.2,1.2c-0.5,0.4-2.6,2.1-6.3,5.2l-2.3-3l10.2-7.9h3.7
		V123.1z"/>
	<path d="M547.6,106.5c0-7.6,1.5-13.3,4.4-17.1c3-3.8,7.3-5.6,13.1-5.6c2,0,3.6,0.2,4.7,0.5v3.8c-1.4-0.4-2.9-0.7-4.7-0.7
		c-4.1,0-7.3,1.3-9.5,3.9c-2.2,2.6-3.4,6.6-3.6,12.2h0.3c1.9-3,5-4.6,9.2-4.6c3.5,0,6.2,1,8.2,3.1c2,2.1,3,4.9,3,8.5
		c0,4-1.1,7.2-3.3,9.5c-2.2,2.3-5.2,3.5-8.9,3.5c-4,0-7.2-1.5-9.5-4.5C548.8,116.1,547.6,111.9,547.6,106.5z M560.6,119.9
		c2.5,0,4.4-0.8,5.8-2.4c1.4-1.6,2.1-3.9,2.1-6.8c0-2.6-0.6-4.6-1.9-6c-1.3-1.5-3.2-2.2-5.8-2.2c-1.6,0-3,0.3-4.4,1
		c-1.3,0.7-2.4,1.6-3.2,2.7c-0.8,1.1-1.2,2.3-1.2,3.6c0,1.8,0.4,3.5,1.1,5.1c0.7,1.6,1.7,2.8,3,3.7S559,119.9,560.6,119.9z"/>
</g>
</svg>
